<svg width="195" height="128" viewBox="0 0 195 128" fill="none" xmlns="http://www.w3.org/2000/svg">
<g clip-path="url(#clip0_2_2018)">
<path d="M148.425 0.00826307C126.944 0.569254 117.372 14.1602 89.4906 19.8834C61.0983 22.0942 48.0435 11.6951 27.262 17.0922C4.90522 22.9011 -6.80098 55.6459 4.17013 84.8119C15.1412 113.978 49.5994 125.806 65.4978 123.183C78.2016 121.088 88.4017 114.091 102.659 110.548C117.352 110.007 129.136 113.906 141.925 112.406C157.929 110.529 187.639 89.6536 189.867 58.625C192.094 27.5963 171.536 -0.594181 148.425 0.00826307Z" fill="#92E3A9"/>
<path opacity="0.7" d="M148.425 0.00826307C126.944 0.569254 117.372 14.1602 89.4906 19.8834C61.0983 22.0942 48.0435 11.6951 27.262 17.0922C4.90522 22.9011 -6.80098 55.6459 4.17013 84.8119C15.1412 113.978 49.5994 125.806 65.4978 123.183C78.2016 121.088 88.4017 114.091 102.659 110.548C117.352 110.007 129.136 113.906 141.925 112.406C157.929 110.529 187.639 89.6536 189.867 58.625C192.094 27.5963 171.536 -0.594181 148.425 0.00826307Z" fill="#D2EEEA"/>
<path d="M15.9979 124.192H185.583" stroke="#263238" stroke-miterlimit="10"/>
<path d="M7.19064 124.192H11.7559" stroke="#263238" stroke-miterlimit="10"/>
<path d="M151.332 84.7124C151.332 84.7124 156.298 92.6492 158.376 100.323C159.852 105.781 159.918 116.612 159.918 116.612C159.918 116.612 160.018 84.4775 167.413 72.0334" stroke="#263238" stroke-miterlimit="10" stroke-linecap="round" stroke-linejoin="round"/>
<path d="M171.404 44.2161C171.404 44.2161 164.243 55.7205 162.248 67.692C160.253 79.6663 159.783 109.363 159.783 109.363C159.667 103.142 158.727 80.3682 156.732 70.508C154.737 60.6479 151.097 53.4876 151.097 53.4876" stroke="#263238" stroke-miterlimit="10" stroke-linecap="round" stroke-linejoin="round"/>
<path d="M152.65 56.9806C152.65 56.9806 158.642 57.2569 161.441 52.7579C164.238 48.2589 162.4 43.9589 159.769 43.6439C157.138 43.3289 155.997 46.5815 155.022 45.0229C154.046 43.4615 157.818 40.5239 153.593 37.8212C149.365 35.1185 147.394 38.9957 146.054 37.6112C144.714 36.2267 145.678 32.6065 142.887 31.0174C140.096 29.4284 138.791 31.4071 137.247 31.4734C135.702 31.5397 130.835 28.9172 128.895 30.976C126.955 33.0348 131.601 38.0146 129.418 38.1639C127.235 38.3103 126.35 42.5661 128.122 45.3213C129.896 48.0766 135.602 49.1654 134.489 50.6024C133.375 52.0394 127.925 51.951 130.144 55.1677C132.364 58.3844 139.902 58.5945 140.988 58.9758C142.072 59.3572 137.518 60.1918 138.286 63.204C139.057 66.2134 145.319 66.5865 149.348 64.6521C153.377 62.7176 152.65 56.9806 152.65 56.9806Z" fill="#92E3A9"/>
<path d="M135.359 36.6909C135.359 36.6909 148.088 45.0118 152.65 56.9806" stroke="#263238" stroke-miterlimit="10" stroke-linecap="round" stroke-linejoin="round"/>
<path d="M134.735 42.5191L143.268 43.3509L141.187 36.2764" stroke="#263238" stroke-miterlimit="10" stroke-linecap="round" stroke-linejoin="round"/>
<path d="M141.605 52.302H150.136L150.76 44.6001" stroke="#263238" stroke-miterlimit="10" stroke-linecap="round" stroke-linejoin="round"/>
<path d="M170.204 46.7861C170.204 46.7861 165.34 47.0099 163.069 43.3593C160.797 39.7087 162.292 36.2157 164.426 35.9614C166.562 35.7072 167.488 38.3463 168.278 37.0806C169.068 35.8149 166.006 33.43 169.439 31.2358C172.871 29.0416 174.471 32.1892 175.557 31.0645C176.646 29.9397 175.861 27.0021 178.127 25.7116C180.393 24.421 181.452 26.0266 182.706 26.0819C183.961 26.1344 187.91 24.0065 189.485 25.6784C191.06 27.3503 187.291 31.3933 189.062 31.5122C190.834 31.631 191.552 35.0854 190.115 37.3238C188.676 39.5595 184.044 40.4438 184.948 41.61C185.851 42.7762 190.276 42.7044 188.474 45.3159C186.672 47.9274 180.551 48.0987 179.672 48.4055C178.79 48.715 182.491 49.392 181.866 51.8377C181.242 54.2807 176.157 54.5847 172.885 53.0122C169.613 51.4426 170.204 46.7861 170.204 46.7861Z" fill="#92E3A9"/>
<path d="M184.24 30.3157C184.24 30.3157 173.907 37.0697 170.204 46.7862" stroke="#263238" stroke-miterlimit="10" stroke-linecap="round" stroke-linejoin="round"/>
<path d="M184.746 35.0468L177.82 35.7238L179.509 29.9785" stroke="#263238" stroke-miterlimit="10" stroke-linecap="round" stroke-linejoin="round"/>
<path d="M179.172 42.9891H172.244L171.738 36.738" stroke="#263238" stroke-miterlimit="10" stroke-linecap="round" stroke-linejoin="round"/>
<path d="M154.289 90.3472C154.289 90.3472 158.236 90.5296 160.079 87.5671C161.922 84.6046 160.709 81.772 158.979 81.5647C157.246 81.3575 156.494 83.4992 155.853 82.4712C155.212 81.4432 157.697 79.5087 154.911 77.729C152.128 75.9493 150.829 78.5028 149.948 77.5908C149.063 76.6789 149.702 74.2967 147.864 73.2494C146.026 72.202 145.167 73.5064 144.15 73.5478C143.133 73.592 139.927 71.8648 138.651 73.2217C137.371 74.5786 140.433 77.8589 138.993 77.9556C137.556 78.0523 136.973 80.8545 138.139 82.6701C139.308 84.483 143.067 85.2015 142.332 86.1466C141.599 87.0918 138.009 87.0365 139.471 89.1533C140.933 91.2702 145.899 91.4111 146.612 91.6598C147.325 91.9113 144.327 92.4612 144.833 94.4427C145.338 96.4241 149.464 96.6701 152.117 95.3961C154.767 94.1249 154.289 90.3472 154.289 90.3472Z" fill="#92E3A9"/>
<path d="M142.904 76.9856C142.904 76.9856 151.285 82.4656 154.289 90.3471" stroke="#263238" stroke-miterlimit="10" stroke-linecap="round" stroke-linejoin="round"/>
<path d="M142.492 80.824L148.113 81.3712L146.742 76.7119" stroke="#263238" stroke-miterlimit="10" stroke-linecap="round" stroke-linejoin="round"/>
<path d="M147.016 87.2659H152.634L153.046 82.1948" stroke="#263238" stroke-miterlimit="10" stroke-linecap="round" stroke-linejoin="round"/>
<path d="M165.993 74.8936C165.993 74.8936 160.048 74.095 158.1 69.1676C156.152 64.2403 158.73 60.341 161.375 60.5013C164.02 60.6616 164.561 64.0662 165.799 62.7066C167.037 61.3469 163.851 57.7792 168.494 55.8779C173.136 53.9767 174.38 58.1413 175.95 57.0193C177.516 55.8973 177.212 52.1638 180.244 51.0999C183.276 50.0359 184.204 52.2163 185.713 52.5562C187.222 52.8989 192.478 51.1883 194.02 53.5621C195.562 55.936 190.099 60.0039 192.221 60.54C194.343 61.0761 194.451 65.4203 192.216 67.8135C189.977 70.2067 184.168 70.2592 185.006 71.8704C185.843 73.4815 191.223 74.3713 188.463 77.1376C185.702 79.9039 178.249 78.7625 177.113 78.9449C175.977 79.1246 180.31 80.7633 179.014 83.5876C177.718 86.4119 171.489 85.6575 167.872 83.0349C164.252 80.4068 165.993 74.8936 165.993 74.8936Z" fill="#92E3A9"/>
<path d="M186.633 58.0251C186.633 58.0251 172.622 63.9335 165.993 74.8936" stroke="#263238" stroke-miterlimit="10" stroke-linecap="round" stroke-linejoin="round"/>
<path d="M186.208 63.8699L177.663 63.1625L180.976 56.5715" stroke="#263238" stroke-miterlimit="10" stroke-linecap="round" stroke-linejoin="round"/>
<path d="M177.699 72.2655L169.303 70.7401L170.066 63.052" stroke="#263238" stroke-miterlimit="10" stroke-linecap="round" stroke-linejoin="round"/>
<path d="M150.18 101.534C149.754 102.678 149.511 112.414 149.511 113.707C149.511 122.269 154.234 124.255 160.059 124.255C165.885 124.255 170.608 122.727 170.608 113.707C170.608 112.414 170.365 102.678 169.939 101.534H150.18Z" fill="#263238" stroke="#263238" stroke-miterlimit="10" stroke-linecap="round" stroke-linejoin="round"/>
<path d="M14.63 102.606V107.102" stroke="#263238" stroke-width="0.5" stroke-miterlimit="10"/>
<path d="M16.8795 104.853H12.3805" stroke="#263238" stroke-width="0.5" stroke-miterlimit="10"/>
<path d="M100.448 94.7605V97.5323" stroke="#263238" stroke-width="0.5" stroke-miterlimit="10"/>
<path d="M101.835 96.145H99.0633" stroke="#263238" stroke-width="0.5" stroke-miterlimit="10"/>
<path d="M115.1 0.91748V3.68928" stroke="#263238" stroke-width="0.5" stroke-miterlimit="10"/>
<path d="M116.484 2.302H113.713" stroke="#263238" stroke-width="0.5" stroke-miterlimit="10"/>
<path d="M171.837 93.7822V96.5568" stroke="#263238" stroke-width="0.5" stroke-miterlimit="10"/>
<path d="M173.222 95.1694H170.45" stroke="#263238" stroke-width="0.5" stroke-miterlimit="10"/>
<path d="M113.34 107.929V114.658" stroke="#263238" stroke-width="0.5" stroke-miterlimit="10"/>
<path d="M116.703 111.295H109.974" stroke="#263238" stroke-width="0.5" stroke-miterlimit="10"/>
<path d="M10.4903 11.1121V17.8412" stroke="#263238" stroke-width="0.5" stroke-miterlimit="10"/>
<path d="M13.8562 14.4753H7.12708" stroke="#263238" stroke-width="0.5" stroke-miterlimit="10"/>
<path d="M34.3034 98.0269C34.9734 98.0269 35.5166 97.4838 35.5166 96.8138C35.5166 96.1437 34.9734 95.6006 34.3034 95.6006C33.6334 95.6006 33.0902 96.1437 33.0902 96.8138C33.0902 97.4838 33.6334 98.0269 34.3034 98.0269Z" stroke="#263238" stroke-width="0.5" stroke-miterlimit="10"/>
<path d="M9.82979 64.1216C9.82979 64.7932 9.28538 65.3348 8.61661 65.3348C7.94508 65.3348 7.40343 64.7904 7.40343 64.1216C7.40343 63.4501 7.94784 62.9084 8.61661 62.9084C9.28538 62.9084 9.82979 63.4529 9.82979 64.1216Z" stroke="#263238" stroke-width="0.5" stroke-miterlimit="10"/>
<path d="M34.3946 111.107C34.8067 111.107 35.1407 110.773 35.1407 110.361C35.1407 109.949 34.8067 109.615 34.3946 109.615C33.9825 109.615 33.6484 109.949 33.6484 110.361C33.6484 110.773 33.9825 111.107 34.3946 111.107Z" stroke="#263238" stroke-width="0.5" stroke-miterlimit="10"/>
<path d="M48.9665 98.027C49.3786 98.027 49.7127 97.6929 49.7127 97.2808C49.7127 96.8687 49.3786 96.5347 48.9665 96.5347C48.5545 96.5347 48.2204 96.8687 48.2204 97.2808C48.2204 97.6929 48.5545 98.027 48.9665 98.027Z" stroke="#263238" stroke-width="0.5" stroke-miterlimit="10"/>
<path d="M78.8566 4.80845C79.2687 4.80845 79.6027 4.47439 79.6027 4.06231C79.6027 3.65022 79.2687 3.31616 78.8566 3.31616C78.4445 3.31616 78.1105 3.65022 78.1105 4.06231C78.1105 4.47439 78.4445 4.80845 78.8566 4.80845Z" stroke="#263238" stroke-width="0.5" stroke-miterlimit="10"/>
<path d="M118.742 104.753C119.206 104.753 119.582 104.377 119.582 103.913C119.582 103.449 119.206 103.073 118.742 103.073C118.278 103.073 117.902 103.449 117.902 103.913C117.902 104.377 118.278 104.753 118.742 104.753Z" stroke="#263238" stroke-width="0.5" stroke-miterlimit="10"/>
<path d="M182.151 90.2037C182.615 90.2037 182.991 89.8275 182.991 89.3635C182.991 88.8996 182.615 88.5234 182.151 88.5234C181.687 88.5234 181.311 88.8996 181.311 89.3635C181.311 89.8275 181.687 90.2037 182.151 90.2037Z" stroke="#263238" stroke-width="0.5" stroke-miterlimit="10"/>
<path d="M159.653 18.9134C160.117 18.9134 160.493 18.5372 160.493 18.0733C160.493 17.6093 160.117 17.2332 159.653 17.2332C159.189 17.2332 158.813 17.6093 158.813 18.0733C158.813 18.5372 159.189 18.9134 159.653 18.9134Z" stroke="#263238" stroke-width="0.5" stroke-miterlimit="10"/>
<path d="M6.01773 41.2546C7.06888 40.2034 7.06887 38.4992 6.01773 37.448C4.96658 36.3969 3.26234 36.3969 2.21119 37.4481C1.16005 38.4992 1.16005 40.2034 2.21119 41.2546C3.26234 42.3057 4.96658 42.3057 6.01773 41.2546Z" stroke="#263238" stroke-width="0.5" stroke-miterlimit="10"/>
<path d="M167.582 28.0823C167.922 26.6352 167.025 25.1863 165.578 24.8462C164.131 24.506 162.682 25.4035 162.342 26.8506C162.001 28.2978 162.899 29.7467 164.346 30.0868C165.793 30.4269 167.242 29.5295 167.582 28.0823Z" stroke="#263238" stroke-width="0.5" stroke-miterlimit="10"/>
<path d="M142.329 103.797C142.567 102.33 141.572 100.947 140.104 100.708C138.637 100.469 137.254 101.465 137.015 102.932C136.776 104.399 137.772 105.783 139.239 106.021C140.707 106.26 142.09 105.265 142.329 103.797Z" stroke="#263238" stroke-width="0.5" stroke-miterlimit="10"/>
<path d="M40.1354 5.01088C40.4771 3.56416 39.5812 2.11443 38.1345 1.77282C36.6877 1.43121 35.238 2.32707 34.8964 3.77379C34.5548 5.22051 35.4507 6.67024 36.8974 7.01185C38.3441 7.35346 39.7938 6.4576 40.1354 5.01088Z" stroke="#263238" stroke-width="0.5" stroke-miterlimit="10"/>
<path d="M86.8459 80.3186H76.0461V123.885H86.8459V80.3186Z" fill="#263238" stroke="#263238" stroke-miterlimit="10" stroke-linecap="round" stroke-linejoin="round"/>
<path d="M152.333 8.45361H16.0477V91.1183H152.333V8.45361Z" fill="#263238" stroke="#263238" stroke-width="0.25" stroke-miterlimit="10" stroke-linecap="round" stroke-linejoin="round"/>
<path d="M149.588 8.45361H13.3035V91.1183H149.588V8.45361Z" fill="#799093" stroke="#263238" stroke-width="0.25" stroke-miterlimit="10"/>
<path d="M144.678 11.4326H18.2143V88.1392H144.678V11.4326Z" fill="white" stroke="#263238" stroke-miterlimit="10" stroke-linecap="round" stroke-linejoin="round"/>
<path d="M144.678 83.5186H18.2143V88.1391H144.678V83.5186Z" fill="white" stroke="#263238" stroke-miterlimit="10" stroke-linecap="round" stroke-linejoin="round"/>
<path d="M82.0346 118.999L41.997 121.586V124.192H120.895V121.586L82.0346 118.999Z" fill="#263238" stroke="#263238" stroke-miterlimit="10" stroke-linecap="round" stroke-linejoin="round"/>
<path d="M144.678 11.4326H18.2143V88.1392H144.678V11.4326Z" fill="white" stroke="#263238" stroke-miterlimit="10" stroke-linecap="round" stroke-linejoin="round"/>
<path d="M144.678 73.874H18.2143V88.1392H144.678V73.874Z" fill="#C2C2C2" stroke="#263238" stroke-width="0.5" stroke-miterlimit="10" stroke-linecap="round" stroke-linejoin="round"/>
<path d="M131.866 77.345H29.8348V81.5317H131.866V77.345Z" fill="#E8E8E8" stroke="#263238" stroke-width="0.25" stroke-miterlimit="10" stroke-linecap="round" stroke-linejoin="round"/>
<path d="M131.866 78.6633H29.8348V80.2192H131.866V78.6633Z" fill="#92E3A9" stroke="#263238" stroke-width="0.25" stroke-miterlimit="10" stroke-linecap="round" stroke-linejoin="round"/>
<path d="M28.5525 79.3984L23.5672 76.5188V82.2752L28.5525 79.3984Z" fill="#92E3A9" stroke="#263238" stroke-width="0.25" stroke-miterlimit="10" stroke-linecap="round" stroke-linejoin="round"/>
<path d="M144.678 11.4326H142.086V88.1392H144.678V11.4326Z" fill="#E8E8E8" stroke="#263238" stroke-width="0.5" stroke-miterlimit="10" stroke-linecap="round" stroke-linejoin="round"/>
<path d="M144.678 26.2339H142.086V66.8242H144.678V26.2339Z" fill="#C2C2C2" stroke="#263238" stroke-width="0.5" stroke-miterlimit="10" stroke-linecap="round" stroke-linejoin="round"/>
<path d="M144.678 11.4326H18.2143V14.3868H144.678V11.4326Z" fill="black" stroke="#263238" stroke-miterlimit="10" stroke-linecap="round" stroke-linejoin="round"/>
<path d="M144.678 85.9146H18.2143V88.1392H144.678V85.9146Z" fill="black" stroke="#263238" stroke-miterlimit="10" stroke-linecap="round" stroke-linejoin="round"/>
<path d="M112.394 60.5704H49.2871C47.7727 60.5704 46.5457 59.3434 46.5457 57.829V43.923C46.5457 42.4086 47.7727 41.1816 49.2871 41.1816H112.394C113.909 41.1816 115.136 42.4086 115.136 43.923V57.829C115.133 59.3434 113.906 60.5704 112.394 60.5704Z" fill="white" stroke="#263238" stroke-miterlimit="10"/>
<path d="M52.8714 55.8781C52.2496 55.8781 51.7328 55.7454 51.321 55.4801C50.9093 55.2148 50.597 54.8473 50.3842 54.3747C50.1714 53.9049 50.0471 53.3578 50.0111 52.7387L51.3404 52.3795C51.368 52.7608 51.4261 53.1284 51.52 53.4849C51.614 53.8386 51.766 54.1288 51.9788 54.3554C52.1915 54.582 52.49 54.6953 52.8714 54.6953C53.261 54.6953 53.5567 54.5875 53.7557 54.3692C53.9547 54.1509 54.0541 53.8386 54.0541 53.4324C54.0541 52.946 53.9436 52.5508 53.7225 52.2551C53.5014 51.9594 53.2223 51.6582 52.8852 51.357L51.0751 49.7597C50.7214 49.4502 50.4588 49.1103 50.2903 48.7427C50.1217 48.3752 50.036 47.9192 50.036 47.3775C50.036 46.5872 50.2626 45.9764 50.7158 45.5426C51.169 45.1087 51.7853 44.8904 52.5646 44.8904C52.9902 44.8904 53.366 44.9456 53.6894 45.0562C54.0127 45.1667 54.2835 45.3381 54.5018 45.5674C54.7202 45.7968 54.8915 46.0897 55.0214 46.4379C55.1485 46.7889 55.2369 47.1979 55.2811 47.6677L54.0044 48.0131C53.9768 47.6594 53.9243 47.3333 53.8441 47.0349C53.764 46.7364 53.6258 46.4987 53.4241 46.3164C53.2251 46.134 52.9377 46.0428 52.5646 46.0428C52.1915 46.0428 51.9014 46.1422 51.6941 46.3412C51.4868 46.5402 51.3818 46.8359 51.3818 47.2255C51.3818 47.5544 51.4371 47.8252 51.5476 48.038C51.6582 48.2508 51.8378 48.4691 52.0865 48.6902L53.9104 50.2875C54.3194 50.6412 54.6787 51.0668 54.9882 51.5587C55.2977 52.0506 55.4552 52.6337 55.4552 53.308C55.4552 53.8414 55.3447 54.3001 55.1236 54.6842C54.9025 55.0711 54.5986 55.3641 54.2117 55.5686C53.822 55.7758 53.3771 55.8781 52.8714 55.8781Z" fill="#799093" stroke="#263238" stroke-width="0.3" stroke-miterlimit="10"/>
<path d="M57.807 55.7591V46.0979H55.9831V44.9814H61.079V46.0979H59.3103V55.7591H57.807Z" fill="#799093" stroke="#263238" stroke-width="0.3" stroke-miterlimit="10"/>
<path d="M61.5073 55.7591L63.7955 44.9814H65.2463L67.5483 55.7591H66.1251L65.6332 53.0453H63.439L62.9195 55.7591H61.5073ZM63.6352 51.9648H65.4315L64.5278 47.1093L63.6352 51.9648Z" fill="#799093" stroke="#263238" stroke-width="0.3" stroke-miterlimit="10"/>
<path d="M68.6372 55.7591V44.9814H70.8065C71.525 44.9814 72.1192 45.0782 72.589 45.2688C73.0588 45.4595 73.407 45.7663 73.6336 46.1863C73.8602 46.6064 73.9735 47.1591 73.9735 47.8417C73.9735 48.259 73.9293 48.6376 73.8408 48.9802C73.7524 49.3229 73.6087 49.6103 73.4153 49.8452C73.2191 50.0801 72.962 50.2514 72.6442 50.3565L74.1752 55.7591H72.7244L71.315 50.7019H70.1433V55.7591H68.6372ZM70.1405 49.6241H70.7126C71.1381 49.6241 71.4836 49.5716 71.7516 49.4639C72.0169 49.3561 72.2131 49.1764 72.3375 48.9194C72.4619 48.6624 72.5226 48.3032 72.5226 47.8417C72.5226 47.2116 72.4066 46.7584 72.1772 46.4793C71.9478 46.2002 71.4891 46.0592 70.8065 46.0592H70.1405V49.6241V49.6241Z" fill="#799093" stroke="#263238" stroke-width="0.3" stroke-miterlimit="10"/>
<path d="M76.7287 55.7591V46.0979H74.9048V44.9814H80.0007V46.0979H78.232V55.7591H76.7287Z" fill="#799093" stroke="#263238" stroke-width="0.3" stroke-miterlimit="10"/>
<path d="M84.0851 55.7591V44.9814H86.4258C87.2245 44.9814 87.8573 45.103 88.3216 45.3462C88.7886 45.5894 89.1202 45.957 89.3192 46.4433C89.5182 46.9325 89.6177 47.5377 89.6177 48.2673V52.2329C89.6177 52.9956 89.5182 53.6395 89.3192 54.1618C89.1202 54.6841 88.7969 55.0821 88.3492 55.3529C87.9016 55.6237 87.2991 55.7591 86.5474 55.7591H84.0851V55.7591ZM85.5885 54.6813H86.4397C86.9896 54.6813 87.3792 54.5736 87.6114 54.3608C87.8407 54.148 87.9817 53.8385 88.0314 53.4295C88.0812 53.0205 88.1033 52.5286 88.1033 51.9538V48.4552C88.1033 47.8969 88.0674 47.4437 87.9983 47.0983C87.9264 46.7528 87.7717 46.4986 87.5312 46.3411C87.2908 46.1808 86.915 46.1007 86.401 46.1007H85.5885V54.6813Z" fill="#799093" stroke="#263238" stroke-width="0.3" stroke-miterlimit="10"/>
<path d="M91.0989 55.7591V44.9814H95.2773V46.0979H92.6023V49.6628H94.7716V50.7268H92.6023V54.6786H95.3022V55.7563H91.0989V55.7591Z" fill="#799093" stroke="#263238" stroke-width="0.3" stroke-miterlimit="10"/>
<path d="M96.4878 55.7591L96.6867 44.9814H98.1624L100.067 53.7224L101.982 44.9814H103.446L103.645 55.7591H102.435L102.316 47.9356L100.492 55.7591H99.6409L97.8308 47.9356L97.712 55.7591H96.4878Z" fill="#799093" stroke="#263238" stroke-width="0.3" stroke-miterlimit="10"/>
<path d="M108.05 55.878C107.323 55.878 106.74 55.737 106.306 55.4524C105.873 55.1678 105.56 54.7615 105.375 54.2337C105.19 53.7059 105.096 53.0868 105.096 52.3766V48.2922C105.096 47.5819 105.19 46.974 105.383 46.4627C105.574 45.9515 105.884 45.5618 106.315 45.291C106.746 45.0202 107.323 44.8848 108.05 44.8848C108.777 44.8848 109.355 45.0229 109.78 45.2965C110.206 45.5729 110.515 45.9625 110.706 46.4683C110.897 46.974 110.993 47.5819 110.993 48.2922V52.3904C110.993 53.0924 110.897 53.7031 110.706 54.2254C110.515 54.7477 110.206 55.1539 109.78 55.4441C109.355 55.7343 108.777 55.878 108.05 55.878ZM108.05 54.6924C108.448 54.6924 108.752 54.6095 108.954 54.4465C109.158 54.2834 109.297 54.0513 109.366 53.7556C109.438 53.4599 109.473 53.1117 109.473 52.711V47.9882C109.473 47.5902 109.438 47.2448 109.366 46.9574C109.294 46.67 109.158 46.4461 108.954 46.2914C108.749 46.1366 108.448 46.0593 108.05 46.0593C107.652 46.0593 107.348 46.1366 107.138 46.2914C106.931 46.4461 106.79 46.6672 106.718 46.9574C106.646 47.2448 106.61 47.5902 106.61 47.9882V52.711C106.61 53.109 106.646 53.4599 106.718 53.7556C106.79 54.0541 106.928 54.2834 107.138 54.4465C107.346 54.6123 107.65 54.6924 108.05 54.6924Z" fill="#799093" stroke="#263238" stroke-width="0.3" stroke-miterlimit="10"/>
<path d="M78.9589 38.1446C84.6716 38.1446 89.3026 33.5136 89.3026 27.8008C89.3026 22.0881 84.6716 17.457 78.9589 17.457C73.2461 17.457 68.6151 22.0881 68.6151 27.8008C68.6151 33.5136 73.2461 38.1446 78.9589 38.1446Z" fill="#799093" stroke="#263238" stroke-width="0.75" stroke-miterlimit="10"/>
<path d="M66.9846 27.0657L67.3659 30.6168C67.4406 31.3215 68.1066 31.8107 68.803 31.667C71.3288 31.1502 76.9719 30.0835 80.4235 30.1415C84.975 30.2161 89.0926 32.5154 89.0926 32.5154L89.0512 30.4427C88.9848 27.2398 88.4957 24.0618 87.5948 20.9888L86.9979 18.9548C86.9979 18.9548 83.8088 22.4894 79.1606 23.9651C75.662 25.076 70.4555 25.5624 68.0955 25.7337C67.4129 25.7862 66.91 26.3887 66.9846 27.0657Z" fill="white" stroke="#263238" stroke-miterlimit="10" stroke-linecap="round" stroke-linejoin="round"/>
<path d="M87.0697 20.0105L87.0393 19.9055C87.0393 19.9055 83.795 23.3875 79.1219 24.7914C78.8704 24.866 78.6079 24.9406 78.3398 25.0097" stroke="#263238" stroke-miterlimit="10"/>
<path d="M77.2869 25.2556C76.4938 25.427 75.6648 25.5734 74.8329 25.7005" stroke="#263238" stroke-miterlimit="10"/>
<path d="M89.1645 33.2034C89.1451 33.2061 89.123 33.2061 89.1037 33.2061C88.7223 33.2144 88.4045 32.9104 88.3962 32.5263L88.3548 30.4537C88.2912 27.3144 87.8104 24.1944 86.926 21.1821L86.3291 19.1482C86.2213 18.7807 86.4314 18.3965 86.7989 18.2887C87.1665 18.181 87.5506 18.391 87.6584 18.7585L88.2553 20.7925C89.1755 23.9235 89.673 27.1651 89.7393 30.4261L89.7807 32.4987C89.789 32.8635 89.5182 33.1647 89.1645 33.2034Z" fill="#263238" stroke="#263238" stroke-miterlimit="10" stroke-linecap="round" stroke-linejoin="round"/>
<path d="M75.2005 24.8909C72.4646 25.369 69.6541 25.6232 68.0927 25.7365C67.4129 25.7862 66.9127 26.3887 66.9846 27.0657L67.3659 30.6169C67.4406 31.3215 68.1066 31.8107 68.803 31.667C70.3644 31.3464 73.114 30.8186 75.8002 30.4731L75.2005 24.8909Z" fill="#263238" stroke="#263238" stroke-miterlimit="10" stroke-linecap="round" stroke-linejoin="round"/>
<path d="M70.5688 30.7135C70.5688 30.7135 71.6743 32.9602 71.8456 33.1675C71.9092 33.2449 72.0307 33.3001 72.1579 33.3416C72.4618 33.4383 72.7244 33.6345 72.9012 33.8998C73.6916 35.0964 75.709 38.1528 75.8112 38.2634C75.9383 38.3988 76.2506 38.5176 76.4247 38.385C76.5988 38.2523 77.8894 36.9894 77.7926 36.4339C77.6959 35.8812 77.5246 36.0498 77.2372 35.8177C77.005 35.6298 76.1097 34.0325 75.7698 33.4134C75.6869 33.2642 75.6951 33.0846 75.7891 32.9436L76.0903 32.4849C76.0903 32.4849 74.7749 31.4237 74.7556 31.2386C74.7362 31.0534 75.2834 30.918 75.3027 30.7301C75.3193 30.5394 74.8357 29.8789 74.8357 29.8789L70.5688 30.7135Z" fill="white" stroke="#263238" stroke-miterlimit="10" stroke-linecap="round" stroke-linejoin="round"/>
<path d="M75.2723 31.7939L76.2368 32.1504C76.2755 32.1643 76.2893 32.2112 76.2644 32.2416L76.0903 32.4848L75.2723 31.7939Z" fill="#92E3A9" stroke="#263238" stroke-miterlimit="10"/>
<path d="M72.8708 32.6978L72.5917 32.9105" stroke="#263238" stroke-miterlimit="10"/>
<path d="M74.7556 31.2385L73.1113 32.5097" stroke="#263238" stroke-miterlimit="10"/>
<path d="M72.7101 27.4203L71.6412 27.5352L71.7144 28.2166L72.7833 28.1018L72.7101 27.4203Z" fill="#92E3A9"/>
<path d="M68.6233 112.176C68.6233 112.176 67.9794 123.12 67.9794 123.294C67.9794 123.468 67.1697 126.184 67.2858 126.591C67.4019 126.994 68.3276 127.11 68.9632 127.168C69.5989 127.226 70.9281 127.4 71.4504 127.4C71.9699 127.4 73.8215 127.284 74.1669 127.168C74.5151 127.052 74.9766 126.707 74.5704 126.417C74.1669 126.126 73.1831 126.013 72.0252 124.681C70.8701 123.352 70.5799 122.774 70.5799 122.774L73.0145 112.292L68.6233 112.176Z" fill="#FFBE9D" stroke="#263238" stroke-width="0.75" stroke-miterlimit="10"/>
<path d="M67.9794 123.294C67.9794 123.294 68.4271 123.485 68.8803 123.601C69.3363 123.714 70.2842 124.057 70.2842 124.057L70.5827 122.777L72.028 124.134C72.028 124.134 71.9147 124.438 71.8373 125.007C71.7627 125.577 71.6853 126.182 71.6853 126.182L72.5558 126.447L72.8957 124.894L74.0702 125.729L73.8049 126.79C73.8049 126.79 74.1089 127.055 74.6008 126.903C75.0927 126.751 75.0927 126.942 74.9794 127.243C74.8661 127.547 73.9182 127.774 73.0836 127.848C72.2491 127.923 69.3695 127.696 68.6869 127.544C68.0043 127.392 67.5124 127.353 67.1697 127.127C66.8298 126.9 67.0951 126.14 67.131 125.988C67.1697 125.836 69.2534 126.593 69.4441 126.593C69.6348 126.593 69.9747 125.646 69.9747 125.646L67.3217 124.924C67.3273 124.927 67.3825 123.368 67.9794 123.294Z" fill="#263238" stroke="#263238" stroke-miterlimit="10" stroke-linecap="round" stroke-linejoin="round"/>
<path d="M46.9464 122.874C46.9464 122.874 46.3053 123.056 45.7553 123.554C45.2054 124.054 45.2358 125.687 45.2358 125.687L46.9464 122.874Z" fill="#263238" stroke="#263238" stroke-miterlimit="10" stroke-linecap="round" stroke-linejoin="round"/>
<path d="M48.7537 125.651C48.7537 125.651 47.1564 125.151 46.5568 125.101C45.9571 125.051 45.2082 125.101 45.2082 125.101C45.2082 125.101 44.7577 125.25 44.7577 125.601C44.7577 125.952 44.6803 126.453 45.8797 126.652C47.0791 126.851 48.2038 126.652 48.7537 126.35C49.3037 126.052 48.7537 125.651 48.7537 125.651Z" fill="#263238" stroke="#263238" stroke-miterlimit="10" stroke-linecap="round" stroke-linejoin="round"/>
<path d="M52.3767 110.153C52.3767 110.153 48.3862 120.906 48.0408 121.37C47.6926 121.832 45.3574 124.786 45.2994 125.366C45.2413 125.944 48.2342 125.999 48.7537 125.654C49.2733 125.306 49.8923 122.296 50.2377 121.661C50.5859 121.025 57.7545 110.966 57.7545 110.966L52.3767 110.153Z" fill="#FFBE9D" stroke="#263238" stroke-width="0.75" stroke-miterlimit="10"/>
<path d="M50.1023 122.755C50.1023 122.755 49.055 122.105 48.505 122.006C47.9551 121.906 47.4051 121.857 47.4051 121.857L46.6562 123.006L49.4529 124.355C49.4529 124.352 49.9006 123.454 50.1023 122.755Z" fill="#263238" stroke="#263238" stroke-miterlimit="10" stroke-linecap="round" stroke-linejoin="round"/>
<path d="M59.9625 77.5688L59.8768 79.4508C59.8768 79.4508 54.9164 92.1905 52.5232 98.4333C50.13 104.676 49.5303 109.462 49.5303 109.462C49.5303 109.462 51.6692 111.43 57.4809 112.37C63.2953 113.309 68.8527 113.481 72.0169 113.481C75.1811 113.481 78.7709 112.455 78.7709 112.455C78.7709 112.455 76.0351 95.6974 73.8104 88.0867C71.5886 80.476 70.3036 79.2794 70.3036 79.2794L69.9609 76.8862L59.9625 77.5688Z" fill="#263238"/>
<path d="M63.591 90.5186L62.9554 112.967" stroke="#FAFAFA" stroke-miterlimit="10" stroke-linecap="round" stroke-linejoin="round"/>
<path d="M63.638 88.855L63.6131 89.7393" stroke="#FAFAFA" stroke-miterlimit="10" stroke-linecap="round" stroke-linejoin="round"/>
<path d="M68.4935 79.8901C68.85 79.8155 69.2009 79.7271 69.5381 79.6221" stroke="#FAFAFA" stroke-miterlimit="10" stroke-linecap="round" stroke-linejoin="round"/>
<path d="M60.9021 80.0476C60.9021 80.0476 64.0774 80.4787 67.1836 80.1001" stroke="#FAFAFA" stroke-miterlimit="10" stroke-linecap="round" stroke-linejoin="round"/>
<path d="M81.2691 57.4256C81.2691 57.4256 81.0177 56.2954 80.9762 55.5409C80.9348 54.7865 80.2218 53.7833 80.3074 53.3633C80.3904 52.9432 80.8104 52.9875 81.0204 53.1118C81.2305 53.2362 81.4819 53.6562 81.4819 53.6562C81.4819 53.6562 82.0678 51.8544 82.0678 51.0613C82.0678 50.2654 82.5708 50.3483 82.7808 50.8927C82.9908 51.4371 82.6979 53.5319 82.6979 53.5319C82.6979 53.5319 83.4938 53.7419 83.8696 53.9077C84.2454 54.0763 84.9584 54.4107 84.8341 55.458C84.7097 56.5054 84.5826 57.0913 84.3311 57.0913C84.0796 57.0913 83.8696 56.7569 83.8696 56.7569C83.8696 56.7569 83.8696 57.8871 83.4938 58.2215C83.1179 58.5559 82.3635 58.5974 82.3635 58.5974C82.3635 58.5974 82.4409 57.76 81.2691 57.4256Z" fill="#FFBE9D" stroke="#263238" stroke-width="0.75" stroke-miterlimit="10"/>
<path d="M83.8641 56.7541C83.8641 56.7541 84.1156 55.7896 84.1156 55.6653" stroke="#263238" stroke-miterlimit="10" stroke-linecap="round" stroke-linejoin="round"/>
<path d="M81.4792 53.6562L81.2277 54.828" stroke="#263238" stroke-miterlimit="10" stroke-linecap="round" stroke-linejoin="round"/>
<path d="M80.2273 58.5973L81.0149 57.2626C81.0149 57.2626 81.3189 56.837 82.0457 57.0802C82.054 57.0829 82.0595 57.0857 82.0678 57.0885C82.7283 57.3123 83.0958 58.0198 82.9162 58.6941L82.7144 59.4485C82.7144 59.4457 81.1365 58.5365 80.2273 58.5973Z" fill="#92E3A9" stroke="#263238" stroke-miterlimit="10" stroke-linecap="round" stroke-linejoin="round"/>
<path d="M47.3057 85.3593C47.3057 85.3593 47.4963 86.3596 47.5903 87.0726C47.6843 87.7884 48.1624 89.2171 48.494 89.4078C48.8284 89.5985 49.2567 89.8361 48.7786 89.9798C48.3033 90.1235 48.0159 90.1705 47.5875 89.8361C47.1592 89.5017 46.8718 89.1204 46.8718 89.1204C46.8718 89.1204 46.5374 90.5961 46.2997 91.3118C46.0621 92.0276 45.3463 93.1689 45.3463 93.1689C45.3463 93.1689 45.537 93.9786 45.2524 94.1223C44.9677 94.266 44.5366 93.647 44.5366 93.647C44.5366 93.647 44.1083 93.553 43.9176 93.2187C43.7269 92.8843 43.4893 90.3612 43.5362 89.8831C43.5832 89.4078 45.5094 84.9917 45.5094 84.9917L47.3057 85.3593Z" fill="#FFBE9D" stroke="#263238" stroke-width="0.75" stroke-miterlimit="10"/>
<path d="M44.6002 90.5989C44.4482 90.8752 44.3045 91.2262 44.3045 91.3616C44.3045 91.5523 44.5422 93.647 44.5422 93.647" stroke="#263238" stroke-miterlimit="10" stroke-linecap="round" stroke-linejoin="round"/>
<path d="M45.3519 93.1717L45.1612 92.0276L45.5426 90.4082" stroke="#263238" stroke-miterlimit="10" stroke-linecap="round" stroke-linejoin="round"/>
<path d="M45.6863 92.5996C45.6863 92.5996 45.7996 91.4499 46.0676 90.4551" stroke="#263238" stroke-miterlimit="10" stroke-linecap="round" stroke-linejoin="round"/>
<path d="M46.1616 88.2168C46.1616 88.2168 46.1146 88.6451 45.7802 88.9795C45.4458 89.3139 44.7798 89.7892 44.7798 89.7892" stroke="#263238" stroke-miterlimit="10" stroke-linecap="round" stroke-linejoin="round"/>
<path d="M58.9262 65.0888C58.9262 65.0888 55.0435 66.9708 54.8003 67.4544C54.5571 67.9408 49.7016 76.6182 49.0356 77.4666C48.3669 78.315 46.3053 79.4093 46.0621 80.2577C45.8189 81.1061 46.0013 83.4136 46.0013 83.4136L45.5149 84.9916C45.5149 84.9916 45.5757 85.5388 46.4241 85.7211C47.2725 85.9035 47.2725 85.9035 47.2725 85.9035L48.7289 84.508C48.7289 84.508 51.8848 83.7204 53.1588 82.2032C54.4327 80.686 57.5279 73.5866 57.5279 73.5866L57.0415 78.3813C57.0415 78.3813 60.1974 78.8677 63.9585 78.5637C67.7197 78.2597 71.8483 77.6545 71.8483 77.6545L71.3012 72.0722C71.3012 72.0722 80.2826 70.6158 80.7689 70.1902C81.2553 69.7647 81.6781 68.6123 81.7389 68.1867C81.7997 67.7611 83.3169 59.6309 83.3169 59.6309C83.3169 59.6309 82.7697 58.7217 81.4957 58.4785C80.2218 58.2353 78.9478 58.9041 78.887 59.2661C78.8262 59.6309 76.2174 64.9092 76.2174 64.9092C76.2174 64.9092 76.0351 64.7876 75.3691 65.0916C74.7003 65.3956 74.3991 65.5172 74.3991 65.5172C74.3991 65.5172 71.1823 64.2432 69.8476 64.3648C68.5128 64.4864 67.2388 64.6688 67.2388 64.6688C67.2388 64.6688 64.8733 63.5772 63.1129 64.0608C61.3553 64.5444 58.9262 65.0888 58.9262 65.0888Z" fill="#C8DCEC" stroke="#263238" stroke-width="0.5" stroke-miterlimit="10"/>
<path d="M67.3024 72.614L71.3067 72.0696L68.6372 73.4651" stroke="#263238" stroke-miterlimit="10" stroke-linecap="round" stroke-linejoin="round"/>
<path d="M57.5914 70.8535L57.5306 73.5839L56.6214 72.4315" stroke="#263238" stroke-miterlimit="10" stroke-linecap="round" stroke-linejoin="round"/>
<path d="M46.5485 83.6597C46.5485 83.6597 46.7309 84.2676 48.1872 84.2676" stroke="#263238" stroke-miterlimit="10" stroke-linecap="round" stroke-linejoin="round"/>
<path d="M69.1429 53.6536C69.1429 53.6536 69.5519 54.4135 69.7287 55.0574C69.9028 55.7013 70.6048 56.4005 70.7816 57.4534C70.9557 58.5063 70.9557 59.4403 70.8397 59.9074C70.7236 60.3744 69.7868 60.4905 69.7868 60.4905C69.7868 60.4905 68.3249 60.0234 68.2088 58.2686C68.0928 56.5166 69.1429 53.6536 69.1429 53.6536Z" fill="#FFBE9D" stroke="#263238" stroke-width="0.75" stroke-miterlimit="10"/>
<path d="M70.0217 55.5881C70.0217 55.5881 70.4003 55.7263 70.5716 55.7263C70.7429 55.7263 71.0525 55.7595 70.9502 56.1712C70.848 56.583 70.6075 56.7212 70.6075 56.7212L70.0217 55.5881Z" fill="#FFBE9D" stroke="#263238" stroke-width="0.75" stroke-miterlimit="10"/>
<path d="M65.7548 50.6717C65.7548 50.6717 64.2929 49.9697 63.3008 50.4976C62.306 51.0226 59.3849 53.6535 59.3269 54.5295C59.2689 55.4055 59.2108 56.6933 59.2108 57.2184C59.2108 57.7435 57.1078 58.8544 56.3479 60.6673C55.5879 62.4801 58.3928 66.045 60.2637 65.7521C62.1346 65.4592 62.6597 64.5831 63.3616 64.5831C64.0636 64.5831 66.2827 66.3352 67.5704 65.987C68.8555 65.636 70.8424 63.591 70.9032 62.306C70.9613 61.021 69.5602 59.6752 69.3253 58.6831C69.0904 57.6882 69.3833 56.6961 69.6182 55.9361C69.8531 55.1762 69.3253 52.7802 69.3253 52.7802C69.3253 52.7802 70.6103 52.9543 70.0272 51.6693C69.4413 50.3843 68.9163 49.9172 67.6893 49.7984C66.454 49.6768 65.7548 50.6717 65.7548 50.6717Z" fill="#263238"/>
</g>
<defs>
<clipPath id="clip0_2_2018">
<rect width="194.296" height="128" fill="white"/>
</clipPath>
</defs>
</svg>
