<svg width="143" height="128" viewBox="0 0 143 128" fill="none" xmlns="http://www.w3.org/2000/svg">
<g clip-path="url(#clip0_2_363)">
<path d="M134.633 24.8708C134.166 24.0761 133.673 23.299 133.158 22.5368C126.31 12.3881 114.525 5.44805 102.931 2.31039C97.8554 0.936556 92.6111 0.215662 87.3581 0.0383929C52.9029 -1.13158 39.1793 26.0231 27.7928 33.0311C16.4062 40.0391 -1.11389 52.0077 0.0560814 77.1179C1.22606 102.228 19.3252 125.879 54.3624 127.338C89.3996 128.798 91.7366 113.033 111.298 107.192C124.245 103.327 133.442 90.2742 137.948 78.2111C144.087 61.7723 143.798 40.4203 134.633 24.8708Z" fill="#92E3A9"/>
<path opacity="0.7" d="M134.633 24.8708C134.166 24.0761 133.673 23.299 133.158 22.5368C126.31 12.3881 114.525 5.44805 102.931 2.31039C97.8554 0.936556 92.6111 0.215662 87.3581 0.0383929C52.9029 -1.13158 39.1793 26.0231 27.7928 33.0311C16.4062 40.0391 -1.11389 52.0077 0.0560814 77.1179C1.22606 102.228 19.3252 125.879 54.3624 127.338C89.3996 128.798 91.7366 113.033 111.298 107.192C124.245 103.327 133.442 90.2742 137.948 78.2111C144.087 61.7723 143.798 40.4203 134.633 24.8708Z" fill="white"/>
<path d="M25.902 124.292C29.991 120.948 30.5198 115.322 29.9407 110.35C29.8432 109.52 29.8639 108.636 29.403 107.939C28.9421 107.242 27.9671 106.819 27.2403 107.233C26.6376 107.576 26.4249 108.317 26.1235 108.941C25.7217 109.771 25.0806 110.483 24.2977 110.967C23.7836 111.286 23.1336 111.508 22.5782 111.266C21.8189 110.929 21.6505 109.945 21.5884 109.118C21.4732 107.576 21.355 106.033 21.2398 104.488C21.1777 103.661 21.1098 102.816 20.7848 102.051C20.4598 101.286 19.8246 100.606 19.0092 100.449C18.1937 100.296 17.2453 100.831 17.1419 101.655C17.1006 101.998 17.1981 102.343 17.204 102.686C17.2099 103.032 17.0769 103.425 16.7549 103.549C16.4269 103.673 16.0724 103.466 15.8035 103.244C14.8699 102.479 14.1933 101.451 13.5581 100.426C12.9229 99.4006 12.2995 98.3488 11.4398 97.5038C10.58 96.6559 9.43368 96.0236 8.22825 96.0561C7.02282 96.0886 5.80262 96.9247 5.59285 98.1124C5.38308 99.3031 6.17193 100.432 6.99918 101.312C8.22825 102.621 9.6464 103.753 11.1945 104.657C11.4752 104.819 11.7766 104.996 11.9036 105.295C12.1311 105.833 11.6466 106.423 11.1089 106.651C10.5002 106.908 9.81776 106.899 9.17073 107.029C8.5237 107.159 7.83826 107.502 7.6403 108.131C7.36554 109.006 8.15438 109.833 8.90778 110.356C10.4146 111.402 12.1016 112.188 13.8743 112.669C14.5095 112.841 15.1742 112.982 15.706 113.369C16.2378 113.756 16.5983 114.474 16.3472 115.083C16.0931 115.692 15.3367 115.943 14.6838 115.878C14.0279 115.813 13.4222 115.514 12.787 115.337C11.5993 115.003 10.1191 115.204 9.46027 116.247C9.02891 116.933 9.05846 117.837 9.36868 118.587C9.67594 119.337 10.2284 119.958 10.8075 120.528C12.8284 122.514 15.3338 124.041 18.0814 124.735C20.8291 125.427 23.3257 125.471 25.902 124.292Z" fill="#92E3A9"/>
<path d="M26.2594 127.982C25.9137 126.023 25.2844 123.728 24.3301 121.279C23.3817 118.826 22.1143 116.22 20.6932 113.544C20.3357 112.876 19.9841 112.214 19.6355 111.564C19.2868 110.914 18.9412 110.273 18.563 109.664C17.8125 108.444 16.9971 107.327 16.1905 106.29C15.384 105.253 14.5774 104.299 13.8181 103.41C13.0558 102.523 12.332 101.711 11.6377 100.996C10.255 99.5631 9.00523 98.5408 8.11888 97.8731C7.67571 97.5363 7.32413 97.2881 7.08186 97.1227C6.96368 97.0429 6.87209 96.9809 6.80709 96.9365C6.74505 96.8952 6.70959 96.8774 6.70959 96.8774C6.70959 96.8774 6.73914 96.904 6.79823 96.9484C6.86323 96.9956 6.95186 97.0606 7.06709 97.1463C7.30345 97.3177 7.64912 97.5747 8.08934 97.9145C8.96682 98.594 10.2047 99.6222 11.5756 101.058C12.264 101.773 12.982 102.588 13.7383 103.478C14.4947 104.367 15.2953 105.324 16.096 106.361C16.8996 107.398 17.7091 108.512 18.4566 109.729C18.8318 110.335 19.1746 110.973 19.5232 111.626C19.8718 112.276 20.2234 112.938 20.5809 113.606C21.999 116.282 23.2665 118.879 24.2208 121.326C25.1781 123.769 25.8162 126.053 26.1708 128.003" fill="#E0E0E0"/>
<path d="M18.5305 109.656C18.5394 109.656 18.5541 109.529 18.5778 109.295C18.6014 109.062 18.625 108.725 18.6487 108.308C18.696 107.475 18.7255 106.32 18.755 105.05C18.7846 103.776 18.8319 102.627 18.8998 101.797C18.9323 101.38 18.9619 101.046 18.9855 100.813C19.0091 100.579 19.018 100.452 19.0091 100.449C19.0003 100.449 18.9766 100.577 18.9382 100.807C18.8998 101.037 18.8555 101.374 18.8112 101.788C18.7225 102.618 18.6575 103.773 18.628 105.047C18.6014 106.308 18.5778 107.449 18.5571 108.305C18.5453 108.704 18.5335 109.035 18.5246 109.292C18.5216 109.526 18.5246 109.653 18.5305 109.656Z" fill="#E0E0E0"/>
<path d="M7.59009 108.554C7.59009 108.557 7.6285 108.56 7.70236 108.563C7.79099 108.563 7.89735 108.563 8.0244 108.563C8.30212 108.563 8.70688 108.56 9.20324 108.574C10.1989 108.595 11.5757 108.675 13.0854 108.828C14.5981 108.985 15.9601 109.186 16.941 109.363C17.4315 109.446 17.8274 109.526 18.1021 109.579C18.2262 109.603 18.3326 109.623 18.4183 109.638C18.4921 109.65 18.5305 109.656 18.5305 109.65C18.5305 109.647 18.4951 109.632 18.4242 109.611C18.3385 109.588 18.238 109.561 18.114 109.529C17.8421 109.461 17.4492 109.366 16.9588 109.272C15.9808 109.074 14.6158 108.858 13.0972 108.701C11.5816 108.548 10.2019 108.483 9.20324 108.483C8.70393 108.48 8.29916 108.495 8.02144 108.509C7.8944 108.518 7.78804 108.524 7.6994 108.533C7.6285 108.545 7.59009 108.551 7.59009 108.554Z" fill="#E0E0E0"/>
<path d="M24.1943 121.089C24.1972 121.089 24.2179 121.045 24.2534 120.954C24.2918 120.85 24.342 120.717 24.4041 120.552C24.5341 120.203 24.7084 119.695 24.9181 119.063C25.3347 117.801 25.8606 116.04 26.4131 114.087C26.9656 112.137 27.4767 110.374 27.8726 109.106C28.0706 108.486 28.2301 107.975 28.3483 107.605C28.4015 107.44 28.4428 107.304 28.4753 107.198C28.5019 107.103 28.5167 107.053 28.5108 107.053C28.5078 107.053 28.4872 107.097 28.4517 107.189C28.4133 107.292 28.3631 107.425 28.301 107.59C28.171 107.939 27.9967 108.447 27.7869 109.08C27.3674 110.341 26.8445 112.102 26.292 114.055C25.7395 116.005 25.2284 117.769 24.8325 119.036C24.6345 119.657 24.475 120.168 24.3568 120.537C24.3036 120.702 24.2622 120.838 24.2297 120.945C24.2032 121.039 24.1913 121.089 24.1943 121.089Z" fill="#E0E0E0"/>
<path d="M9.49866 117.715C9.49866 117.718 9.54888 117.733 9.64638 117.76C9.75865 117.786 9.90047 117.819 10.0748 117.86C10.4618 117.949 10.9966 118.07 11.6495 118.221C12.979 118.525 14.8108 118.971 16.8317 119.464C18.8555 119.961 20.6902 120.392 22.0257 120.676C22.6934 120.818 23.234 120.927 23.6093 120.998C23.7865 121.03 23.9313 121.057 24.0406 121.075C24.1411 121.092 24.1913 121.098 24.1943 121.092C24.1943 121.089 24.144 121.075 24.0465 121.048C23.9372 121.021 23.7954 120.989 23.6181 120.948C23.2311 120.859 22.6963 120.738 22.0434 120.587C20.7139 120.283 18.8821 119.837 16.8612 119.34C14.8404 118.844 13.0027 118.413 11.6672 118.132C10.9995 117.99 10.4589 117.881 10.0836 117.81C9.90638 117.777 9.76161 117.754 9.65229 117.733C9.55184 117.715 9.49866 117.709 9.49866 117.715Z" fill="#E0E0E0"/>
<path d="M64.7174 39.8665L43.3568 46.293L47.6885 60.6908L69.0491 54.2644L64.7174 39.8665Z" fill="white" stroke="black" stroke-width="0.5" stroke-miterlimit="10"/>
<path d="M69.0492 54.2621C69.0492 54.2621 69.0167 54.1705 68.9635 53.9992C68.9074 53.8219 68.8306 53.5678 68.7272 53.2399C68.5203 52.5692 68.2219 51.5942 67.8408 50.3445C67.0815 47.842 65.9884 44.2553 64.6588 39.8827L64.7357 39.924C58.8415 41.7026 51.4198 43.9392 43.3807 46.3648H43.3777L43.4279 46.2702C44.9702 51.4022 46.4356 56.283 47.7533 60.6704L47.6647 60.6231C53.9518 58.747 59.2876 57.1546 63.0546 56.0289C64.9395 55.4705 66.4315 55.0273 67.4597 54.723C67.9708 54.5723 68.3638 54.4571 68.6356 54.3773C68.7656 54.3389 68.866 54.3123 68.9399 54.2887C69.0137 54.271 69.0492 54.2621 69.0492 54.2621C69.0492 54.2621 69.0197 54.2739 68.9517 54.2946C68.8808 54.3183 68.7833 54.3478 68.6563 54.3862C68.3874 54.4689 68.0004 54.5871 67.5011 54.7437C66.4788 55.0569 64.9956 55.5089 63.1225 56.0821C59.3496 57.2255 54.005 58.8475 47.709 60.7561L47.641 60.7768L47.6203 60.7088C46.2997 56.3214 44.8284 51.4435 43.2832 46.3116L43.2595 46.2377L43.3334 46.2141H43.3363C51.3814 43.8003 58.8031 41.5726 64.7002 39.8029L64.7593 39.7852L64.777 39.8442C66.0859 44.2405 67.1583 47.8479 67.9088 50.3622C68.2781 51.609 68.5647 52.584 68.7626 53.2517C68.8572 53.5796 68.931 53.8308 68.9812 54.0051C69.0285 54.1794 69.0492 54.2621 69.0492 54.2621Z" fill="#E0E0E0"/>
<path d="M69.0492 54.2621C69.0492 54.2621 69.0167 54.1705 68.9635 53.9992C68.9074 53.8219 68.8306 53.5678 68.7272 53.2399C68.5203 52.5692 68.2219 51.5942 67.8408 50.3445C67.0815 47.842 65.9884 44.2553 64.6588 39.8827L64.7357 39.924C58.8415 41.7026 51.4198 43.9392 43.3807 46.3648H43.3777L43.4279 46.2702C44.9702 51.4022 46.4356 56.283 47.7533 60.6704L47.6647 60.6231C53.9518 58.747 59.2876 57.1546 63.0546 56.0289C64.9395 55.4705 66.4315 55.0273 67.4597 54.723C67.9708 54.5723 68.3638 54.4571 68.6356 54.3773C68.7656 54.3389 68.866 54.3123 68.9399 54.2887C69.0137 54.271 69.0492 54.2621 69.0492 54.2621ZM69.0492 54.2621C69.0492 54.2621 69.0197 54.2739 68.9517 54.2946C68.8808 54.3183 68.7833 54.3478 68.6563 54.3862C68.3874 54.4689 68.0004 54.5871 67.5011 54.7437C66.4788 55.0569 64.9956 55.5089 63.1225 56.0821C59.3496 57.2255 54.005 58.8475 47.709 60.7561L47.641 60.7768L47.6203 60.7088C46.2997 56.3214 44.8284 51.4435 43.2832 46.3116L43.2595 46.2377L43.3334 46.2141H43.3363C51.3814 43.8003 58.8031 41.5726 64.7002 39.8029L64.7593 39.7852L64.777 39.8442C66.0859 44.2405 67.1583 47.8479 67.9088 50.3622C68.2781 51.609 68.5647 52.584 68.7626 53.2517C68.8572 53.5796 68.931 53.8308 68.9812 54.0051C69.0285 54.1794 69.0492 54.2621 69.0492 54.2621Z" stroke="black" stroke-width="0.5" stroke-miterlimit="10"/>
<path d="M64.718 39.865C64.7209 39.865 64.7091 39.8886 64.6884 39.93C64.6618 39.9802 64.6293 40.0393 64.588 40.1132C64.4905 40.2845 64.3575 40.515 64.1891 40.8104C63.8316 41.425 63.3235 42.2965 62.7001 43.372C61.4208 45.5406 59.6569 48.5305 57.6952 51.8631L57.6627 51.9193L57.6006 51.8956C57.3938 51.8159 57.1693 51.7302 56.9477 51.6416C53.1955 50.1791 49.7978 48.8525 47.3279 47.8894C46.1077 47.4048 45.1179 47.0119 44.4177 46.7342C44.0839 46.5983 43.8209 46.4919 43.6289 46.4121C43.5461 46.3767 43.4782 46.3471 43.425 46.3264C43.3807 46.3058 43.3571 46.2939 43.3571 46.291C43.3571 46.288 43.3836 46.2939 43.4309 46.3117C43.4871 46.3324 43.555 46.356 43.6407 46.3855C43.8357 46.4564 44.1016 46.5539 44.4384 46.681C45.1416 46.9469 46.1372 47.3251 47.3663 47.7889C49.8421 48.7432 53.2457 50.052 57.0038 51.4997C57.2284 51.5854 57.4499 51.6741 57.6568 51.7538L57.5622 51.7863C59.5417 48.4655 61.3203 45.4844 62.6085 43.3217C63.2525 42.2581 63.7725 41.3925 64.1389 40.7838C64.3162 40.4943 64.458 40.2668 64.5614 40.1013C64.6057 40.0304 64.6441 39.9714 64.6736 39.927C64.7032 39.8827 64.715 39.865 64.718 39.865Z" fill="#E0E0E0" stroke="black" stroke-width="0.5" stroke-miterlimit="10"/>
<path d="M126.866 97.3738C126.866 97.3738 125.483 96.003 122.779 99.4272C120.076 102.851 118.903 104.905 118.903 104.905C118.903 104.905 118.23 105.602 117.786 104.97C117.34 104.338 116.885 102.707 115.898 102.789C114.876 102.872 114.341 103.888 114.211 105.513C114.079 107.135 113.662 110.681 113.621 111.003C113.582 111.316 113.313 111.739 112.941 111.357C112.569 110.976 110.64 107.72 109.15 108.728C107.661 109.735 108.037 114.318 108.069 114.82C108.102 115.322 107.966 115.506 107.718 115.579C107.466 115.653 106.923 114.498 106.335 113.594C105.75 112.69 104.911 111.747 104.098 112.4C103.289 113.053 102.429 116.265 104.473 122.165L105.599 124.836L108.483 125.246C114.708 125.749 117.6 124.115 118.032 123.166C118.46 122.218 117.337 121.642 116.315 121.302C115.293 120.959 114.04 120.723 114.049 120.46C114.058 120.197 114.203 120.023 114.696 119.928C115.189 119.834 119.722 119.051 120.324 117.358C120.927 115.665 117.293 114.61 116.832 114.347C116.368 114.081 116.711 113.718 117.006 113.603C117.308 113.485 120.635 112.191 122.174 111.659C123.713 111.124 124.564 110.353 124.387 109.342C124.218 108.367 122.525 108.335 121.802 108.06C121.078 107.788 121.586 106.961 121.586 106.961C121.586 106.961 123.279 105.31 125.92 101.835C128.561 98.3606 126.839 97.3472 126.839 97.3472" fill="#92E3A9"/>
<path d="M124.44 100.438C124.443 100.441 124.425 100.464 124.393 100.512C124.354 100.565 124.304 100.636 124.242 100.721C124.1 100.913 123.902 101.182 123.651 101.522C123.137 102.216 122.381 103.215 121.441 104.444C119.565 106.902 116.941 110.276 114.025 113.987C111.118 117.701 108.486 121.06 106.574 123.503C105.632 124.718 104.864 125.704 104.326 126.396C104.063 126.73 103.859 126.993 103.711 127.179C103.643 127.261 103.59 127.329 103.549 127.38C103.51 127.424 103.493 127.448 103.49 127.445C103.487 127.442 103.504 127.418 103.537 127.371C103.575 127.318 103.626 127.247 103.688 127.161C103.829 126.969 104.027 126.7 104.279 126.36C104.793 125.666 105.549 124.667 106.486 123.438C108.362 120.98 110.985 117.606 113.901 113.895C116.809 110.185 119.438 106.822 121.35 104.382C122.292 103.168 123.06 102.181 123.598 101.49C123.861 101.156 124.065 100.893 124.212 100.707C124.28 100.624 124.334 100.556 124.375 100.506C124.416 100.458 124.437 100.438 124.44 100.438Z" fill="#E0E0E0"/>
<path d="M116.442 105.097C116.463 105.094 116.507 105.389 116.551 105.871C116.596 106.353 116.634 107.017 116.661 107.75C116.679 108.456 116.696 109.094 116.711 109.629C116.723 110.111 116.732 110.406 116.711 110.409C116.69 110.412 116.643 110.117 116.602 109.635C116.563 109.153 116.531 108.489 116.504 107.756C116.481 107.05 116.457 106.412 116.439 105.877C116.427 105.398 116.421 105.1 116.442 105.097Z" fill="#E0E0E0"/>
<path d="M116.965 110.512C116.962 110.471 118.327 110.32 120.014 110.181C121.704 110.04 123.075 109.96 123.078 110.004C123.081 110.046 121.716 110.196 120.026 110.335C118.339 110.474 116.968 110.554 116.965 110.512Z" fill="#E0E0E0"/>
<path d="M112.061 116.212C112.066 116.191 112.365 116.244 112.846 116.339C113.328 116.43 113.996 116.557 114.734 116.676C115.473 116.794 116.144 116.882 116.631 116.947C117.119 117.009 117.42 117.051 117.417 117.074C117.414 117.095 117.11 117.092 116.619 117.057C116.129 117.021 115.449 116.95 114.708 116.829C113.966 116.711 113.298 116.566 112.823 116.448C112.347 116.324 112.058 116.229 112.061 116.212Z" fill="#E0E0E0"/>
<path d="M110.512 111.417C110.533 111.411 110.64 111.671 110.799 112.096C110.959 112.522 111.165 113.112 111.387 113.771C111.609 114.427 111.801 115.024 111.934 115.461C112.067 115.896 112.137 116.167 112.117 116.176C112.096 116.182 111.99 115.922 111.83 115.497C111.671 115.071 111.464 114.48 111.242 113.822C111.021 113.166 110.829 112.569 110.696 112.132C110.563 111.694 110.492 111.423 110.512 111.417Z" fill="#E0E0E0"/>
<path d="M105.546 115.899C105.567 115.893 105.703 116.226 105.906 116.77C106.11 117.317 106.382 118.073 106.675 118.909C106.967 119.748 107.221 120.51 107.401 121.066C107.579 121.621 107.679 121.967 107.658 121.973C107.638 121.979 107.502 121.645 107.298 121.101C107.094 120.555 106.822 119.798 106.53 118.959C106.237 118.12 105.983 117.358 105.803 116.803C105.626 116.25 105.525 115.904 105.546 115.899Z" fill="#E0E0E0"/>
<path d="M107.65 121.813C107.653 121.793 108.037 121.849 108.651 121.946C109.266 122.041 110.117 122.174 111.059 122.298C112.002 122.422 112.855 122.519 113.476 122.584C114.096 122.652 114.477 122.697 114.477 122.717C114.477 122.738 114.09 122.732 113.467 122.694C112.844 122.655 111.984 122.576 111.038 122.452C110.093 122.327 109.245 122.177 108.633 122.053C108.019 121.929 107.647 121.834 107.65 121.813Z" fill="#E0E0E0"/>
<path d="M77.7498 56.1329L72.5106 69.2925L88.9697 75.8453L94.2089 62.6857L77.7498 56.1329Z" fill="#92E3A9" stroke="#263238" stroke-miterlimit="10" stroke-linecap="round" stroke-linejoin="round"/>
<path d="M94.2067 62.6883C94.2067 62.6883 94.1801 62.6794 94.1269 62.6588C94.0737 62.6381 93.9969 62.6085 93.8965 62.5672C93.6926 62.4874 93.3942 62.3692 93.0042 62.2156C92.2242 61.9054 91.0808 61.4533 89.6331 60.8802C86.7407 59.7309 82.6281 58.1 77.7384 56.1589L77.7738 56.1441C76.2168 60.0618 74.4294 64.5496 72.5385 69.3034L72.5208 69.265C78.6129 71.6936 84.2767 73.9478 88.9772 75.8239L88.9447 75.8387C90.5283 71.8767 91.8401 68.5914 92.759 66.2957C93.2199 65.1464 93.5803 64.2483 93.8256 63.6337C93.9496 63.3265 94.0442 63.0931 94.1062 62.9335C94.1712 62.771 94.2067 62.6883 94.2067 62.6883C94.2067 62.6883 94.1771 62.7681 94.1151 62.9276C94.053 63.0872 93.9615 63.3206 93.8403 63.6278C93.5981 64.2424 93.2406 65.1435 92.7885 66.2898C91.8756 68.5914 90.5697 71.8856 88.992 75.8564L88.9832 75.8801L88.9595 75.8712C84.256 74.001 78.5922 71.7467 72.5001 69.3241L72.4735 69.3123L72.4853 69.2857C74.3791 64.5349 76.1666 60.047 77.7266 56.1293L77.7354 56.1057L77.7591 56.1146C82.6517 58.0675 86.7673 59.7131 89.6597 60.8683C91.1015 61.4474 92.242 61.9024 93.019 62.2126C93.406 62.3692 93.7044 62.4874 93.9053 62.5701C94.0058 62.6115 94.0796 62.641 94.1328 62.6617C94.183 62.6765 94.2067 62.6883 94.2067 62.6883Z" fill="#92E3A9"/>
<path d="M94.2067 62.6883C94.2067 62.6883 94.1801 62.6794 94.1269 62.6588C94.0737 62.6381 93.9969 62.6085 93.8965 62.5672C93.6926 62.4874 93.3942 62.3692 93.0042 62.2156C92.2242 61.9054 91.0808 61.4533 89.6331 60.8802C86.7407 59.7309 82.6281 58.1 77.7384 56.1589L77.7738 56.1441C76.2168 60.0618 74.4294 64.5496 72.5385 69.3034L72.5208 69.265C78.6129 71.6936 84.2767 73.9478 88.9772 75.8239L88.9447 75.8387C90.5283 71.8767 91.8401 68.5914 92.759 66.2957C93.2199 65.1464 93.5803 64.2483 93.8256 63.6337C93.9496 63.3265 94.0442 63.0931 94.1062 62.9335C94.1712 62.771 94.2067 62.6883 94.2067 62.6883ZM94.2067 62.6883C94.2067 62.6883 94.1771 62.7681 94.1151 62.9276C94.053 63.0872 93.9615 63.3206 93.8403 63.6278C93.5981 64.2424 93.2406 65.1435 92.7885 66.2898C91.8756 68.5914 90.5697 71.8856 88.992 75.8564L88.9832 75.8801L88.9595 75.8712C84.256 74.001 78.5922 71.7467 72.5001 69.3241L72.4735 69.3123L72.4853 69.2857C74.3791 64.5349 76.1666 60.047 77.7266 56.1293L77.7354 56.1057L77.7591 56.1146C82.6517 58.0675 86.7673 59.7131 89.6597 60.8683C91.1015 61.4474 92.242 61.9024 93.019 62.2126C93.406 62.3692 93.7044 62.4874 93.9053 62.5701C94.0058 62.6115 94.0796 62.641 94.1328 62.6617C94.183 62.6765 94.2067 62.6883 94.2067 62.6883Z" stroke="#263238" stroke-miterlimit="10" stroke-linecap="round" stroke-linejoin="round"/>
<path d="M77.9772 57.1986L73.3981 68.7002L88.7015 74.7929L93.2806 63.2913L77.9772 57.1986Z" fill="#92E3A9" stroke="#263238" stroke-miterlimit="10" stroke-linecap="round" stroke-linejoin="round"/>
<path d="M73.4574 68.7392L81.6502 63.7166L83.1806 69.5073L86.3773 68.0124L88.7616 74.8313L73.4574 68.7392Z" fill="white" stroke="#263238" stroke-miterlimit="10" stroke-linecap="round" stroke-linejoin="round"/>
<path d="M86.7141 64.718C86.4482 65.3828 85.6948 65.7078 85.0301 65.4419C84.3653 65.176 84.0403 64.4226 84.3062 63.7578C84.5721 63.0931 85.3255 62.7681 85.9903 63.034C86.655 63.2999 86.98 64.0533 86.7141 64.718Z" fill="white" stroke="#263238" stroke-miterlimit="10" stroke-linecap="round" stroke-linejoin="round"/>
<path d="M34.8303 77.2567C34.8333 77.2449 34.9456 77.3335 35.1819 77.3158C35.2971 77.301 35.4419 77.2508 35.5601 77.1267C35.6724 77.0056 35.7551 76.8106 35.8733 76.6186C36.3312 75.8208 36.9842 74.6804 37.7907 73.2741C37.9946 72.9225 38.2073 72.5532 38.4289 72.1661C38.5412 71.9741 38.6534 71.7762 38.7687 71.5782C38.8248 71.4778 38.8927 71.3773 38.9252 71.2798C38.9577 71.1794 38.9607 71.07 38.9341 70.9637C38.9075 70.8603 38.8484 70.7657 38.7657 70.6948C38.6859 70.6298 38.5648 70.5737 38.4614 70.5146C38.2457 70.3935 38.0271 70.2723 37.8055 70.1482C37.3594 69.9001 36.9044 69.643 36.4346 69.3801C34.5585 68.3253 32.4963 67.1701 30.3307 65.9558C30.0913 65.817 29.7634 65.9086 29.6127 66.1361C29.4591 66.399 29.3055 66.659 29.1548 66.919C28.8505 67.4419 28.5521 67.956 28.2566 68.4612C27.6657 69.4717 27.0985 70.4466 26.5548 71.3773C26.4869 71.4925 26.4189 71.6078 26.3539 71.723C26.286 71.8293 26.2564 71.9416 26.2594 72.0598C26.2653 72.175 26.3067 72.2902 26.3805 72.3759C26.4485 72.4675 26.5578 72.5148 26.673 72.5827C27.1162 72.8339 27.5475 73.0761 27.9641 73.3125C28.7943 73.7852 29.5714 74.2225 30.2804 74.6243C31.6868 75.4279 32.8272 76.0779 33.6279 76.5358C34.0149 76.7604 34.3192 76.9376 34.5349 77.0617C34.6324 77.1208 34.7092 77.1651 34.7683 77.2006C34.8037 77.236 34.8303 77.2538 34.8303 77.2567C34.8303 77.2597 34.8008 77.2449 34.7447 77.2183C34.6826 77.1858 34.6028 77.1445 34.5024 77.0913C34.2838 76.9731 33.9735 76.8047 33.5806 76.589C32.774 76.1429 31.6247 75.5047 30.2095 74.7218C29.4975 74.3259 28.7205 73.8916 27.8843 73.4248C27.4678 73.1914 27.0335 72.9491 26.5903 72.7009C26.4869 72.6389 26.351 72.5827 26.2594 72.4646C26.1648 72.3552 26.1117 72.2105 26.1058 72.0657C26.0998 71.9209 26.1442 71.7703 26.218 71.6521C26.286 71.5368 26.351 71.4216 26.4189 71.3064C26.9596 70.3757 27.5239 69.3978 28.1118 68.3844C28.4043 67.8792 28.7057 67.3622 29.0071 66.8392C29.1607 66.5763 29.3143 66.3133 29.4709 66.0445C29.66 65.7549 30.0795 65.6367 30.3897 65.817C32.5524 67.0342 34.6117 68.1953 36.4878 69.253C36.9546 69.5189 37.4126 69.776 37.8557 70.0271C38.0773 70.1512 38.2959 70.2753 38.5116 70.3964C38.618 70.4614 38.7243 70.5057 38.8366 70.5944C38.94 70.683 39.0139 70.8012 39.0464 70.9282C39.0789 71.0553 39.073 71.1912 39.0346 71.3153C38.9902 71.4423 38.9193 71.5339 38.8662 71.6343C38.7509 71.8323 38.6357 72.0302 38.5234 72.2193C38.2989 72.6034 38.0832 72.9698 37.8764 73.3214C37.0551 74.7159 36.3873 75.8474 35.9176 76.6422C35.7935 76.8342 35.7137 77.0204 35.5867 77.1533C35.4567 77.2804 35.3001 77.3306 35.179 77.3394C35.0549 77.3483 34.9633 77.3217 34.9072 77.2951C34.854 77.2804 34.8303 77.2567 34.8303 77.2567Z" fill="#E0E0E0"/>
<path d="M33.2675 71.2L34.012 72.5237L32.4757 72.5502L30.9393 72.5798L31.7311 71.2296L32.5229 69.8794L33.2675 71.2Z" fill="#E0E0E0"/>
<path d="M38.4792 108.761L29.5566 99.7996L34.0415 91.5625C38.5264 85.822 48.0222 86.1913 48.0222 86.1913C48.0222 86.1913 54.4836 85.5679 62.0234 87.0362C69.5662 88.5046 68.9576 93.4947 68.9576 93.4947L69.9681 111.981L71.0524 127.034L43.2359 127.595L38.4792 108.761Z" fill="#C8DCEC"/>
<path d="M53.4644 126.73L28.5492 127.034C22.5634 127.108 18.569 120.883 21.1305 115.47L31.7844 95.7136L41.4869 102.273L34.8688 116.008L55.0391 116.368L53.4644 126.73Z" fill="#C8DCEC"/>
<path d="M68.0713 90.4929L88.0643 121.361L76.4 122.124C76.4 122.124 69.4333 111.148 69.5929 111.375C69.8765 111.786 68.0713 90.4929 68.0713 90.4929Z" fill="#C8DCEC"/>
<path d="M40.9875 104.048C40.9816 104.048 40.9935 103.992 41.0141 103.889C41.0437 103.77 41.0762 103.623 41.1205 103.443C41.2121 103.055 41.348 102.494 41.4868 101.794C41.6257 101.097 41.7764 100.261 41.8768 99.324C41.9714 98.3904 42.0305 97.3504 41.8887 96.2809C41.7291 95.2143 41.3273 94.2452 40.8575 93.4387C40.3848 92.6291 39.856 91.9644 39.3744 91.4414C38.8928 90.9185 38.4674 90.5285 38.1631 90.2714C37.8617 90.0115 37.6874 89.8755 37.6962 89.8637C37.6992 89.8608 37.7465 89.8903 37.8322 89.9494C37.9178 90.0115 38.0478 90.0971 38.2015 90.2242C38.5176 90.4694 38.9578 90.8505 39.4542 91.3676C39.9505 91.8846 40.4971 92.5493 40.9816 93.3677C41.4662 94.1832 41.8798 95.167 42.0423 96.2602C42.1871 97.3533 42.1221 98.4022 42.0216 99.3417C41.9123 100.281 41.7498 101.12 41.5962 101.818C41.4425 102.515 41.2919 103.073 41.1796 103.457C41.1234 103.649 41.0791 103.797 41.0466 103.898C41.0112 103.998 40.9905 104.048 40.9875 104.048Z" fill="#263238"/>
<path d="M40.1839 105.112C40.1928 105.115 40.1308 105.274 40.0126 105.558C39.8944 105.842 39.7142 106.249 39.4896 106.749C39.0376 107.75 38.3965 109.127 37.6579 110.634C36.9192 112.141 36.222 113.491 35.705 114.46C35.4479 114.944 35.2352 115.334 35.0816 115.603C34.9309 115.872 34.8422 116.017 34.8334 116.011C34.8245 116.005 34.8954 115.851 35.0284 115.574C35.1761 115.275 35.3711 114.882 35.6075 114.407C36.1068 113.399 36.7774 112.052 37.519 110.56C38.2458 109.062 38.9017 107.709 39.3921 106.695C39.6226 106.22 39.8146 105.824 39.9594 105.525C40.0953 105.26 40.1751 105.109 40.1839 105.112Z" fill="#263238"/>
<path d="M53.4643 126.73C53.4613 126.73 53.4613 126.712 53.4643 126.677C53.4672 126.635 53.4702 126.585 53.4761 126.526C53.4909 126.384 53.5116 126.186 53.5352 125.938C53.5943 125.412 53.6741 124.665 53.7804 123.722C54.002 121.813 54.3122 119.122 54.6786 115.952L54.7495 116.032C52.507 116.035 50.0135 116.035 47.3899 116.037C42.3643 116.029 37.8173 116.02 34.5142 116.014C32.8745 116.005 31.545 115.996 30.6114 115.99C30.1593 115.984 29.8048 115.978 29.5507 115.975C29.4355 115.972 29.3439 115.97 29.2759 115.967C29.2139 115.964 29.1814 115.961 29.1814 115.958C29.1814 115.955 29.2139 115.952 29.2759 115.949C29.3468 115.946 29.4384 115.943 29.5507 115.94C29.8048 115.937 30.1593 115.931 30.6114 115.925C31.542 115.919 32.8745 115.91 34.5142 115.902C37.8173 115.896 42.3643 115.887 47.3899 115.878C50.0135 115.881 52.507 115.884 54.7495 115.884H54.8293L54.8204 115.964C54.4304 119.131 54.1025 121.819 53.8691 123.728C53.7479 124.668 53.6534 125.415 53.5854 125.941C53.55 126.189 53.5234 126.384 53.5057 126.526C53.4968 126.588 53.4879 126.635 53.482 126.677C53.4702 126.712 53.4672 126.73 53.4643 126.73Z" fill="#263238"/>
<path d="M35.0431 116.224C35.0224 116.235 34.8511 115.984 34.5468 115.6C34.2425 115.219 33.7875 114.714 33.2172 114.232C32.647 113.751 32.0739 113.387 31.6455 113.151C31.2171 112.912 30.9393 112.788 30.9482 112.764C30.9541 112.746 31.2496 112.838 31.6957 113.053C32.1418 113.269 32.7357 113.624 33.3147 114.114C33.8938 114.605 34.3459 115.13 34.6324 115.532C34.922 115.937 35.0579 116.212 35.0431 116.224Z" fill="#263238"/>
<path d="M70.3847 118.176C70.3788 118.176 70.367 118.088 70.3463 117.922C70.3256 117.742 70.299 117.497 70.2636 117.187C70.1956 116.549 70.104 115.624 70.0065 114.477C69.8056 112.188 69.5722 109.024 69.3625 105.522C69.1557 102.021 69.0109 98.8512 68.9282 96.5556C68.8868 95.4063 68.8573 94.4786 68.8454 93.8375C68.8395 93.5272 68.8366 93.2791 68.8336 93.0988C68.8336 92.9304 68.8336 92.8418 68.8395 92.8418C68.8454 92.8418 68.8543 92.9304 68.8632 93.0988C68.872 93.282 68.8868 93.5272 68.9045 93.8375C68.937 94.4934 68.9813 95.4181 69.0375 96.5556C69.1497 98.8512 69.3093 102.018 69.5161 105.519C69.7229 109.018 69.9386 112.185 70.1129 114.475C70.2015 115.609 70.2725 116.531 70.3227 117.187C70.3463 117.497 70.364 117.742 70.3759 117.925C70.3877 118.088 70.3906 118.176 70.3847 118.176Z" fill="#263238"/>
<path d="M48.1463 101.38C48.1375 101.38 48.1493 101.238 48.1788 100.975C48.2143 100.695 48.2586 100.32 48.3147 99.8587C48.4447 98.8837 48.622 97.5483 48.8288 96.0001L48.944 96.071C48.3472 96.4876 47.7032 96.9396 47.0325 97.4094C46.35 97.8851 45.6941 98.3401 45.0884 98.7626L44.9496 98.86L44.9762 98.6916C45.2096 97.1583 45.4134 95.8347 45.5612 94.8685C45.635 94.4136 45.6971 94.0442 45.7443 93.7665C45.7887 93.5095 45.8182 93.3706 45.8271 93.3736C45.8359 93.3736 45.8241 93.5154 45.7946 93.7754C45.7591 94.0561 45.7118 94.4283 45.6557 94.8833C45.5228 95.8524 45.3366 97.179 45.1239 98.7153L45.0087 98.6444C45.6114 98.2219 46.2673 97.7639 46.9498 97.2853C47.6204 96.8185 48.2675 96.3665 48.8643 95.9528L49.0031 95.8553L48.9795 96.0238C48.752 97.566 48.557 98.9014 48.4122 99.8734C48.3384 100.331 48.2793 100.704 48.235 100.984C48.1818 101.241 48.1522 101.383 48.1463 101.38Z" fill="black"/>
<path d="M59.2639 102.58C59.258 102.586 59.1546 102.485 58.9744 102.296C58.7794 102.089 58.5194 101.815 58.2003 101.478C57.5326 100.754 56.6197 99.7642 55.562 98.6179L55.689 98.5736C55.6299 99.2974 55.5649 100.083 55.497 100.899C55.4261 101.726 55.3581 102.524 55.2931 103.259L55.2783 103.431L55.1661 103.304C54.1379 102.143 53.2486 101.141 52.5986 100.408C52.2973 100.06 52.052 99.7761 51.8659 99.5633C51.6975 99.3654 51.6089 99.2531 51.6148 99.2472C51.6207 99.2413 51.7211 99.3417 51.9014 99.5279C52.0934 99.7347 52.3504 100.007 52.6636 100.343C53.3225 101.064 54.2265 102.054 55.2724 103.2L55.1454 103.242C55.2074 102.506 55.2724 101.708 55.3404 100.881C55.4113 100.066 55.4792 99.2797 55.5413 98.5558L55.5561 98.3875L55.6683 98.5145C56.7113 99.6756 57.6094 100.68 58.2683 101.413C58.5755 101.761 58.8237 102.045 59.0098 102.261C59.1812 102.462 59.2698 102.574 59.2639 102.58Z" fill="black"/>
<path d="M64.8598 102.184C64.8657 102.19 64.7948 102.311 64.6589 102.535C64.5082 102.775 64.3073 103.097 64.0621 103.49C63.5303 104.317 62.8005 105.451 61.9555 106.763L61.8817 106.651C62.5967 106.527 63.3737 106.394 64.1803 106.255C64.9987 106.116 65.7905 105.983 66.5173 105.859L66.6857 105.83L66.5911 105.971C65.7255 107.26 64.978 108.37 64.4344 109.183C64.1714 109.561 63.9587 109.871 63.7991 110.102C63.6485 110.315 63.5657 110.427 63.5569 110.424C63.551 110.418 63.6219 110.297 63.7578 110.075C63.9085 109.836 64.1094 109.52 64.3575 109.133C64.8923 108.314 65.6221 107.192 66.47 105.892L66.5439 106.004C65.8171 106.128 65.0282 106.264 64.2098 106.406C63.4032 106.542 62.6262 106.675 61.9083 106.796L61.7399 106.825L61.8344 106.683C62.6971 105.384 63.4446 104.261 63.9882 103.442C64.2482 103.058 64.4609 102.748 64.6234 102.512C64.7682 102.293 64.8539 102.178 64.8598 102.184Z" fill="black"/>
<path d="M57.4174 107.91C57.4233 107.916 57.3524 108.037 57.2165 108.261C57.0658 108.501 56.8649 108.823 56.6197 109.216C56.0879 110.043 55.3581 111.177 54.5132 112.489L54.4393 112.377C55.1543 112.253 55.9313 112.12 56.7379 111.981C57.5563 111.842 58.3481 111.709 59.0749 111.585L59.2433 111.555L59.1487 111.697C58.2831 112.985 57.5356 114.096 56.992 114.909C56.729 115.287 56.5163 115.597 56.3568 115.828C56.2061 116.04 56.1234 116.153 56.1145 116.15C56.1086 116.144 56.1795 116.023 56.3154 115.801C56.4661 115.562 56.667 115.246 56.9152 114.859C57.4499 114.04 58.1797 112.917 59.0276 111.618L59.1015 111.73C58.3747 111.854 57.5858 111.99 56.7674 112.132C55.9609 112.268 55.1838 112.4 54.4659 112.522L54.2975 112.551L54.392 112.409C55.2547 111.109 56.0022 109.987 56.5458 109.168C56.8058 108.784 57.0186 108.474 57.1811 108.238C57.3258 108.019 57.4115 107.904 57.4174 107.91Z" fill="black"/>
<path d="M73.4987 102.101C73.5046 102.107 73.4337 102.228 73.2978 102.453C73.1471 102.692 72.9462 103.014 72.701 103.407C72.1692 104.234 71.4394 105.369 70.5945 106.681L70.5206 106.568C71.2356 106.444 72.0126 106.311 72.8192 106.172C73.6376 106.034 74.4294 105.901 75.1562 105.777L75.3246 105.747L75.23 105.889C74.3644 107.177 73.6169 108.288 73.0733 109.1C72.8103 109.478 72.5976 109.789 72.4381 110.019C72.2874 110.232 72.2047 110.344 72.1958 110.341C72.1899 110.335 72.2608 110.214 72.3967 109.993C72.5474 109.753 72.7483 109.437 72.9965 109.05C73.5312 108.232 74.261 107.109 75.1089 105.809L75.1828 105.921C74.456 106.045 73.6671 106.181 72.8487 106.323C72.0422 106.459 71.2651 106.592 70.5472 106.713L70.3788 106.743L70.4733 106.601C71.336 105.301 72.0835 104.178 72.6271 103.36C72.8871 102.976 73.0999 102.665 73.2624 102.429C73.4071 102.213 73.4899 102.098 73.4987 102.101Z" fill="black"/>
<path d="M35.8438 97.374C35.8497 97.3799 35.7788 97.501 35.6429 97.7256C35.4922 97.9649 35.2913 98.2869 35.0461 98.6799C34.5143 99.5071 33.7845 100.642 32.9396 101.953L32.8657 101.841C33.5807 101.717 34.3577 101.584 35.1643 101.445C35.9827 101.306 36.7745 101.173 37.5013 101.049L37.6697 101.02L37.5751 101.162C36.7095 102.45 35.962 103.561 35.4184 104.373C35.1554 104.751 34.9427 105.062 34.7832 105.292C34.6325 105.505 34.5497 105.617 34.5409 105.614C34.535 105.608 34.6059 105.487 34.7418 105.265C34.8925 105.026 35.0934 104.71 35.3415 104.323C35.8763 103.505 36.6061 102.382 37.454 101.082L37.5279 101.194C36.8011 101.318 36.0122 101.454 35.1938 101.596C34.3873 101.732 33.6102 101.865 32.8923 101.986L32.7239 102.015L32.8184 101.874C33.6811 100.574 34.4286 99.451 34.9722 98.6326C35.2322 98.2485 35.445 97.9383 35.6075 97.7019C35.7522 97.4833 35.8349 97.3681 35.8438 97.374Z" fill="black"/>
<path d="M24.1618 119.465C24.1677 119.459 24.2652 119.565 24.4336 119.766C24.6138 119.985 24.8561 120.274 25.1545 120.632C25.7749 121.394 26.6258 122.44 27.6097 123.651L27.4797 123.687C27.586 122.969 27.6983 122.189 27.8165 121.376C27.9406 120.555 28.0588 119.763 28.1651 119.033L28.1917 118.865L28.2951 118.998C29.2494 120.221 30.0737 121.276 30.6764 122.047C30.9571 122.413 31.1816 122.712 31.353 122.936C31.5096 123.146 31.5894 123.261 31.5835 123.267C31.5775 123.273 31.483 123.167 31.3146 122.969C31.1344 122.75 30.898 122.461 30.6026 122.106C29.991 121.344 29.1519 120.301 28.1799 119.092L28.3099 119.057C28.2035 119.787 28.0883 120.579 27.9672 121.4C27.846 122.209 27.7308 122.989 27.6215 123.707L27.5979 123.876L27.4945 123.743C26.5283 122.52 25.6922 121.462 25.0806 120.688C24.797 120.322 24.5666 120.02 24.3922 119.796C24.2386 119.586 24.1559 119.471 24.1618 119.465Z" fill="black"/>
<path d="M50.8407 105.162C50.8407 105.171 50.6989 105.189 50.4389 105.212C50.1553 105.236 49.7801 105.268 49.3162 105.31C48.3353 105.384 46.991 105.484 45.434 105.599L45.4783 105.472C46.0072 105.969 46.5833 106.509 47.1801 107.068C47.7858 107.638 48.3678 108.187 48.9026 108.693L49.0267 108.811L48.8583 108.82C47.3101 108.905 45.9717 108.979 44.9968 109.032C44.5359 109.053 44.1606 109.068 43.88 109.08C43.62 109.089 43.4781 109.089 43.4781 109.08C43.4781 109.071 43.617 109.053 43.877 109.029C44.1577 109.006 44.5329 108.976 44.9908 108.938C45.9658 108.87 47.3012 108.778 48.8494 108.672L48.8051 108.799C48.2674 108.294 47.6824 107.747 47.0767 107.18C46.4829 106.619 45.9067 106.078 45.3808 105.579L45.2567 105.463L45.4252 105.455C46.9822 105.36 48.3294 105.28 49.3103 105.221C49.7741 105.198 50.1523 105.18 50.436 105.168C50.696 105.153 50.8378 105.153 50.8407 105.162Z" fill="black"/>
<path d="M44.2936 120.053C44.2995 120.047 44.397 120.15 44.5714 120.348C44.7575 120.564 45.0057 120.847 45.31 121.199C45.9452 121.949 46.8168 122.98 47.8242 124.171L47.6942 124.21C47.7858 123.489 47.8833 122.706 47.9867 121.893C48.0931 121.069 48.1965 120.274 48.291 119.544L48.3117 119.376L48.4181 119.509C49.396 120.714 50.241 121.751 50.8585 122.511C51.1451 122.871 51.3785 123.167 51.5528 123.385C51.7123 123.592 51.7951 123.704 51.7892 123.71C51.7832 123.716 51.6857 123.613 51.5144 123.418C51.3312 123.205 51.086 122.918 50.7876 122.57C50.1612 121.819 49.3015 120.794 48.3058 119.603L48.4358 119.565C48.3442 120.298 48.2438 121.09 48.1404 121.914C48.034 122.726 47.9336 123.506 47.842 124.227L47.8213 124.396L47.7149 124.266C46.7252 123.06 45.8684 122.02 45.242 121.258C44.9525 120.895 44.7161 120.602 44.5389 120.381C44.3704 120.171 44.2877 120.058 44.2936 120.053Z" fill="black"/>
<path d="M32.5939 109.13C32.5939 109.139 32.4521 109.157 32.1921 109.183C31.9085 109.207 31.5332 109.239 31.0694 109.281C30.0885 109.354 28.7442 109.455 27.1872 109.57L27.2315 109.443C27.7604 109.939 28.3365 110.48 28.9333 111.039C29.539 111.609 30.121 112.158 30.6558 112.663L30.7798 112.782L30.6114 112.791C29.0633 112.876 27.7249 112.95 26.7499 113.003C26.289 113.024 25.9138 113.039 25.6331 113.051C25.3731 113.059 25.2313 113.059 25.2313 113.051C25.2313 113.042 25.3702 113.024 25.6302 113C25.9109 112.977 26.2861 112.947 26.744 112.909C27.719 112.841 29.0544 112.749 30.6026 112.643L30.5583 112.77C30.0205 112.265 29.4356 111.718 28.8299 111.151C28.236 110.589 27.6599 110.049 27.134 109.549L27.0099 109.434L27.1783 109.425C28.7353 109.331 30.0826 109.251 31.0635 109.192C31.5273 109.168 31.9055 109.151 32.1891 109.139C32.4491 109.124 32.5909 109.124 32.5939 109.13Z" fill="black"/>
<path d="M42.645 119.716C42.645 119.725 42.5032 119.742 42.2432 119.769C41.9596 119.792 41.5844 119.825 41.1205 119.866C40.1396 119.94 38.7954 120.041 37.2383 120.156L37.2827 120.029C37.8115 120.525 38.3876 121.066 38.9844 121.624C39.5901 122.194 40.1721 122.744 40.7069 123.249L40.831 123.367L40.6626 123.376C39.1144 123.462 37.7761 123.536 36.8011 123.589C36.3402 123.61 35.965 123.624 35.6843 123.636C35.4243 123.645 35.2825 123.645 35.2825 123.636C35.2825 123.627 35.4213 123.61 35.6813 123.586C35.962 123.562 36.3372 123.533 36.7952 123.494C37.7701 123.427 39.1056 123.335 40.6537 123.229L40.6094 123.356C40.0717 122.85 39.4867 122.304 38.881 121.737C38.2872 121.175 37.7111 120.635 37.1852 120.135L37.0611 120.02L37.2295 120.011C38.7865 119.917 40.1337 119.837 41.1146 119.778C41.5785 119.754 41.9566 119.736 42.2403 119.725C42.5032 119.71 42.645 119.707 42.645 119.716Z" fill="black"/>
<path d="M65.3384 92.7856C65.3384 92.7945 65.1966 92.8122 64.9366 92.8358C64.653 92.8595 64.2777 92.8919 63.8139 92.9333C62.833 93.0072 61.4887 93.1076 59.9317 93.2229L59.976 93.0958C60.5049 93.5922 61.081 94.1328 61.6778 94.6912C62.2835 95.2614 62.8655 95.811 63.4003 96.3162L63.5243 96.4344L63.3559 96.4432C61.8078 96.5289 60.4694 96.6028 59.4944 96.656C59.0335 96.6766 58.6583 96.6914 58.3776 96.7032C58.1176 96.7121 57.9758 96.7121 57.9758 96.7032C57.9758 96.6944 58.1147 96.6766 58.3747 96.653C58.6554 96.6294 59.0306 96.5998 59.4885 96.5614C60.4635 96.4935 61.7989 96.4019 63.3471 96.2955L63.3028 96.4226C62.765 95.9173 62.1801 95.3708 61.5744 94.8035C60.9805 94.2422 60.4044 93.7015 59.8785 93.2022L59.7544 93.087L59.9228 93.0781C61.4798 92.9835 62.8271 92.9038 63.808 92.8447C64.2718 92.821 64.65 92.8033 64.9336 92.7915C65.1966 92.7767 65.3384 92.7767 65.3384 92.7856Z" fill="black"/>
<path d="M54.3005 119.716C54.3005 119.716 59.2728 118.283 60.9155 117.863C61.5567 117.701 64.3014 119.148 66.1982 120.351C66.1982 120.351 68.8099 121.899 68.5972 122.378C68.3638 122.903 67.4006 122.794 65.8673 122.073C65.8673 122.073 66.402 123.63 65.3502 123.595C65.3502 123.595 65.8732 125.276 64.8864 125.45C63.8996 125.625 63.6691 123.48 62.7975 123.361C61.9289 123.246 60.1296 123.128 60.1296 123.128C60.1296 123.128 58.6317 125.607 57.4736 125.781C56.3125 125.955 53.6268 125.642 53.6268 125.642L54.3005 119.716Z" fill="#FFBE9D"/>
<path d="M62.7828 120.058C62.8064 120.023 63.4268 120.375 64.1714 120.844C64.9159 121.314 65.5009 121.722 65.4772 121.76C65.4536 121.796 64.8332 121.444 64.0886 120.974C63.3471 120.504 62.7621 120.097 62.7828 120.058Z" fill="#EB996E"/>
<path d="M62.4903 121.016C62.508 120.977 63.2467 121.278 64.1389 121.692C65.0312 122.103 65.7402 122.469 65.7225 122.508C65.7048 122.546 64.9662 122.245 64.0739 121.831C63.1817 121.42 62.4726 121.054 62.4903 121.016Z" fill="#EB996E"/>
<path d="M63.022 123.332C63.0279 123.29 63.5302 123.323 64.1447 123.409C64.7593 123.491 65.2527 123.595 65.2468 123.636C65.2408 123.677 64.7386 123.645 64.124 123.559C63.5095 123.477 63.0161 123.376 63.022 123.332Z" fill="#EB996E"/>
<path d="M47.8331 68.4406C47.9483 68.8218 47.8183 69.2649 47.514 69.519C47.2097 69.7761 46.7488 69.8263 46.3943 69.649C45.7206 69.3063 45.635 68.3786 45.7679 67.6341C45.9009 66.8895 46.152 66.0977 45.8418 65.4093C45.6025 64.8834 45.0854 64.5496 44.6836 64.136C43.9805 63.4151 43.6082 62.3633 43.7795 61.3706C43.9509 60.3779 44.6954 59.4856 45.6645 59.2167C46.6543 58.939 47.8745 59.2433 48.6101 58.5283C49.1449 58.0084 49.1774 57.1575 49.591 56.54C50.2321 55.5768 51.5882 55.4261 52.7346 55.5827C53.8809 55.7393 55.045 56.1057 56.1677 55.828C57.1043 55.5945 57.8754 54.9416 58.7529 54.5398C60.6556 53.6682 63.09 54.1409 64.5289 55.6595C65.9707 57.1781 66.3104 59.6333 65.3414 61.4887C64.9927 62.1564 64.4668 62.7592 63.7725 63.0428" fill="#263238"/>
<path d="M53.5353 92.8447C56.7084 92.8417 59.267 90.2447 59.2256 87.0716L59.1518 81.6413C59.1518 81.6413 63.7135 81.1833 64.0178 76.663C64.3192 72.1426 64.1005 61.7133 64.1005 61.7133C58.9863 59.1783 52.9001 59.6067 48.1936 62.8389L47.4963 63.3176L47.8361 87.2311C47.8775 90.3452 50.4183 92.8476 53.5353 92.8447Z" fill="#FFBE9D"/>
<path d="M62.8981 69.8971C62.0945 69.7375 62.1004 68.7005 62.907 68.5528C62.9424 68.5469 62.9808 68.5469 63.0163 68.5528C63.8199 68.7123 63.814 69.7493 63.0074 69.8971C62.9749 69.9059 62.9336 69.9059 62.8981 69.8971Z" fill="#263238"/>
<path d="M63.7874 68.4553C63.7135 68.5292 63.2881 68.1628 62.6647 68.1274C62.0413 68.0801 61.5715 68.3874 61.5065 68.3047C61.474 68.2663 61.5538 68.1303 61.7577 67.9915C61.9586 67.8526 62.2983 67.7285 62.6883 67.7522C63.0754 67.7788 63.3974 67.9472 63.5776 68.1126C63.7638 68.2751 63.8228 68.4228 63.7874 68.4553Z" fill="#263238"/>
<path d="M56.5783 68.606C56.8767 68.8129 56.9506 69.2235 56.7438 69.5219C56.537 69.8203 56.1263 69.8942 55.8279 69.6874C55.5295 69.4806 55.4556 69.0699 55.6624 68.7715C55.8692 68.4731 56.2799 68.3992 56.5783 68.606Z" fill="#263238"/>
<path d="M56.9891 68.6355C56.9152 68.7094 56.4897 68.343 55.8663 68.3076C55.243 68.2603 54.7732 68.5676 54.7082 68.4848C54.6757 68.4464 54.7555 68.3105 54.9593 68.1717C55.1602 68.0328 55.5 67.9087 55.89 67.9324C56.277 67.9589 56.5991 68.1273 56.7793 68.2928C56.9654 68.4553 57.0245 68.603 56.9891 68.6355Z" fill="#263238"/>
<path d="M59.2079 73.9123C59.2049 73.8621 59.5949 73.8059 60.2272 73.7528C60.3926 73.7439 60.5196 73.7143 60.5374 73.6257C60.5728 73.5282 60.5196 73.3509 60.4458 73.153C60.3069 72.7335 60.1681 72.3051 60.0233 71.8589C59.4413 70.0183 59.0454 68.5026 59.1369 68.4731C59.2315 68.4435 59.7781 69.9119 60.3601 71.7526C60.496 72.2017 60.629 72.6301 60.756 73.0525C60.8062 73.2446 60.9067 73.4691 60.8092 73.735C60.756 73.868 60.6231 73.9566 60.5137 73.9802C60.4044 74.0068 60.3128 74.0009 60.2331 74.0009C59.6008 73.9921 59.2079 73.9596 59.2079 73.9123Z" fill="#263238"/>
<path d="M57.1457 74.4885C57.9434 74.8578 58.8948 75.3187 60.1534 75.5433C60.1534 75.5433 59.3616 76.666 58.0853 76.1164C56.7557 75.5492 57.1457 74.4885 57.1457 74.4885Z" fill="white"/>
<path d="M59.1607 81.5734C59.1607 81.5734 56.2889 81.6502 53.3551 79.5762C53.3551 79.5762 54.5723 82.9088 59.1075 82.7463L59.1607 81.5734Z" fill="#EB996E"/>
<path d="M64.13 62.8537C64.13 62.8537 61.4 64.2423 57.7778 62.5198C55.4024 61.3912 52.6459 60.8712 52.0521 61.3557C51.4552 61.8403 51.3755 64.2689 49.0592 65.0223C49.0592 65.0223 49.3103 69.646 47.4608 69.516C45.6113 69.386 46.6276 62.1978 46.6276 62.1978L51.0978 59.9051L56.0052 58.8799L60.6585 59.4442L64.2688 60.3571L64.13 62.8537Z" fill="#263238"/>
<path d="M47.7947 68.0298C47.7208 67.9914 44.7368 66.9426 44.6659 70.0389C44.595 73.1381 47.7208 72.5679 47.7297 72.4793C47.7385 72.3907 47.7947 68.0298 47.7947 68.0298Z" fill="#FFBE9D"/>
<path d="M46.8108 71.2858C46.796 71.2769 46.7547 71.3212 46.6631 71.3626C46.5745 71.401 46.4208 71.4246 46.2583 71.3626C45.9333 71.2355 45.6704 70.7096 45.6674 70.1512C45.6645 69.8676 45.7295 69.6017 45.8358 69.3831C45.9363 69.1585 46.087 69.0049 46.2524 68.9783C46.4179 68.9429 46.5331 69.0463 46.5685 69.1349C46.607 69.2235 46.5863 69.2826 46.604 69.2885C46.6129 69.2974 46.672 69.2383 46.6483 69.1083C46.6365 69.0463 46.6011 68.9724 46.5301 68.9104C46.4563 68.8483 46.3499 68.8158 46.2347 68.8247C45.9954 68.8365 45.7767 69.0522 45.6615 69.2915C45.5345 69.5338 45.4547 69.8351 45.4547 70.1512C45.4606 70.7746 45.7679 71.3685 46.2111 71.5074C46.4267 71.5694 46.6099 71.5074 46.7074 71.4364C46.802 71.3596 46.8197 71.2917 46.8108 71.2858Z" fill="#EB996E"/>
<path d="M46.217 58.3303C46.1993 58.2949 46.7075 58.1501 47.2924 58.3687C47.8774 58.5844 48.167 59.0276 48.1315 59.0423C48.099 59.0748 47.7799 58.7085 47.2393 58.5135C46.7045 58.3096 46.2229 58.3776 46.217 58.3303Z" fill="#263238"/>
<path d="M48.0813 56.4749C48.1345 56.4778 48.0517 57.1278 48.1581 57.9019C48.2645 58.6848 48.6308 59.2285 48.5895 59.2521C48.5747 59.2639 48.4624 59.1428 48.3295 58.9094C48.1995 58.6789 48.0606 58.3274 48.0045 57.9255C47.8951 57.116 48.0517 56.469 48.0813 56.4749Z" fill="#263238"/>
<path d="M60.8121 66.9663C60.7944 66.9309 60.9273 66.8245 61.1785 66.7211C61.4296 66.6177 61.8019 66.532 62.2184 66.535C62.635 66.5409 63.0043 66.6354 63.2525 66.7418C63.5007 66.8482 63.6337 66.9575 63.6159 66.9959C63.5775 67.0786 62.9807 66.8452 62.2155 66.8423C61.4503 66.8275 60.8476 67.0491 60.8121 66.9663Z" fill="#263238"/>
<path d="M53.9045 66.3164C53.8868 66.281 54.0198 66.1746 54.2709 66.0712C54.522 65.9678 54.8943 65.8821 55.3109 65.8851C55.7274 65.891 56.0968 65.9855 56.3449 66.0919C56.5931 66.1983 56.7261 66.3076 56.7083 66.346C56.6699 66.4287 56.0731 66.1953 55.3079 66.1923C54.5427 66.1776 53.94 66.3992 53.9045 66.3164Z" fill="#263238"/>
<path d="M60.2773 67.4537C60.2803 67.4567 60.2862 67.5217 60.2891 67.6369C60.2921 67.7669 60.298 67.9324 60.3039 68.1362C60.3098 68.3549 60.3128 68.6149 60.3187 68.9133C60.3187 69.2117 60.3364 69.5603 60.4664 69.9178C60.5905 70.2723 60.8032 70.6387 61.1193 70.9489C61.4384 71.2532 61.855 71.5073 62.3395 71.6196C62.5818 71.6757 62.8359 71.7052 63.0959 71.6846C63.3559 71.6727 63.6188 71.6196 63.87 71.5221C64.3752 71.3359 64.8331 70.9725 65.1433 70.491C65.4388 70.033 65.5717 69.4982 65.5599 68.9783C65.5599 68.4494 65.5629 67.9383 65.5629 67.4508L65.6338 67.5217C64.0856 67.5069 62.762 67.4951 61.7989 67.4862C61.338 67.4774 60.9657 67.4715 60.685 67.4656C60.5668 67.4626 60.4664 67.4597 60.3837 67.4567C60.3187 67.4597 60.2803 67.4567 60.2773 67.4537C60.2714 67.4478 60.4044 67.4419 60.6584 67.436C60.9332 67.4301 61.2996 67.4242 61.7546 67.4153C62.7266 67.4065 64.0679 67.3947 65.6367 67.3799H65.7076V67.4508C65.7076 67.9383 65.7106 68.4494 65.7106 68.9783C65.7283 69.516 65.5865 70.0921 65.2733 70.5737C64.9454 71.0818 64.4579 71.4689 63.9231 71.6609C63.6572 71.7643 63.3795 71.8175 63.1047 71.8293C62.83 71.8471 62.5611 71.8175 62.307 71.7555C61.7959 71.6343 61.3587 71.3625 61.0307 71.0375C60.7028 70.7066 60.4871 70.3225 60.363 69.9473C60.2359 69.5721 60.2241 69.2117 60.233 68.9014C60.2389 68.5971 60.2448 68.3312 60.2478 68.1067C60.2537 67.9058 60.2596 67.7433 60.2625 67.6133C60.2714 67.5069 60.2744 67.4508 60.2773 67.4537Z" fill="#263238"/>
<path d="M53.036 67.3002C53.0389 67.3031 53.0448 67.3681 53.0478 67.4834C53.0507 67.6134 53.0567 67.7788 53.0626 67.9827C53.0685 68.2013 53.0714 68.4613 53.0773 68.7597C53.0773 69.0581 53.0951 69.4067 53.2251 69.7642C53.3491 70.1188 53.5619 70.4851 53.878 70.7953C54.1971 71.0996 54.6137 71.3537 55.0982 71.466C55.3405 71.5221 55.5946 71.5517 55.8546 71.531C56.1145 71.5192 56.3775 71.466 56.6286 71.3685C57.1338 71.1824 57.5918 70.819 57.902 70.3374C58.1975 69.8794 58.3304 69.3447 58.3186 68.8247C58.3186 68.2958 58.3215 67.7847 58.3215 67.2972L58.3925 67.3681C56.8443 67.3534 55.5207 67.3415 54.5575 67.3327C54.0966 67.3238 53.7244 67.3179 53.4437 67.312C53.3255 67.309 53.2251 67.3061 53.1423 67.3031C53.0744 67.3061 53.0389 67.3031 53.036 67.3002C53.0301 67.2943 53.163 67.2884 53.4171 67.2825C53.6919 67.2765 54.0582 67.2706 54.5132 67.2618C55.4852 67.2529 56.8266 67.2411 58.3954 67.2263H58.4663V67.2972C58.4663 67.7847 58.4693 68.2958 58.4693 68.8247C58.487 69.3624 58.3452 69.9385 58.032 70.4201C57.7041 70.9283 57.2166 71.3153 56.6818 71.5074C56.4159 71.6108 56.1382 71.664 55.8634 71.6758C55.5886 71.6935 55.3198 71.664 55.0657 71.6019C54.5546 71.4808 54.1173 71.209 53.7894 70.884C53.4614 70.5531 53.2457 70.169 53.1217 69.7938C52.9946 69.4185 52.9828 69.0581 52.9917 68.7479C52.9976 68.4436 53.0035 68.1777 53.0064 67.9531C53.0123 67.7522 53.0183 67.5897 53.0212 67.4597C53.0271 67.3534 53.0301 67.2972 53.036 67.3002Z" fill="#263238"/>
<path d="M60.3424 67.6696C60.3424 67.711 59.8845 67.7464 59.3231 67.7464C58.7588 67.7464 58.3038 67.711 58.3038 67.6696C58.3038 67.6282 58.7618 67.5928 59.3231 67.5928C59.8874 67.5928 60.3424 67.6282 60.3424 67.6696Z" fill="#263238"/>
<path d="M47.387 67.7109C47.387 67.6695 48.6515 67.6311 50.2114 67.6252C51.7714 67.6193 53.0359 67.6518 53.0359 67.6932C53.0359 67.7345 51.7714 67.7729 50.2114 67.7788C48.6515 67.7818 47.387 67.7522 47.387 67.7109Z" fill="#263238"/>
<path d="M104.151 71.3803L95.356 68.2219L86.6462 71.3389C85.5353 71.8648 84.5603 72.178 84.5603 73.215V78.3735C84.5603 81.9544 85.4998 85.5056 87.4291 88.6374C89.0541 91.2728 91.5683 93.988 95.4417 95.7134C99.0018 94.5582 101.658 91.4737 103.283 88.8383C105.212 85.7036 106.152 82.1553 106.152 78.5744V73.9359C106.155 72.4557 105.372 71.7348 104.151 71.3803Z" fill="#92E3A9" stroke="#263238" stroke-miterlimit="10" stroke-linecap="round" stroke-linejoin="round"/>
<path d="M95.4417 92.7175C92.3779 91.3526 90.3865 89.1574 89.1013 87.0715C87.5739 84.5927 86.8323 81.786 86.8323 78.9496V75.3334C86.8323 74.515 87.3257 73.7468 88.3095 73.2889L95.3589 70.6535L95.356 68.2219L86.6462 71.3389C85.7332 71.7378 84.5603 72.178 84.5603 73.215V78.3735C84.5603 81.9544 85.4998 85.5056 87.4291 88.6374C89.0541 91.2728 91.5683 93.988 95.4417 95.7134V92.7175Z" fill="#92E3A9" stroke="#263238" stroke-miterlimit="10" stroke-linecap="round" stroke-linejoin="round"/>
<path d="M95.4416 95.7105C96.0591 95.5036 96.6264 95.2673 97.17 94.9689C98.6295 94.1741 99.8763 93.081 100.828 92.0912C101.891 90.9862 102.683 89.7897 103.371 88.6729C105.301 85.5382 106.24 81.9898 106.155 78.3115L106.16 74.0541C106.155 71.9328 105.067 71.7762 104.154 71.3773L95.3589 68.219L95.3618 70.6505L102.494 73.3303C103.475 73.7882 103.971 74.5564 103.971 75.3748V78.991C103.971 81.8244 103.23 84.6311 101.702 87.1129C100.417 89.1988 98.5113 91.3496 95.4475 92.7146V95.7105H95.4416Z" fill="#799093" stroke="#263238" stroke-width="0.75" stroke-miterlimit="10"/>
<path opacity="0.5" d="M97.6901 78.7223L97.6989 78.025C97.6989 76.7664 96.6737 75.7412 95.4151 75.7412C94.1565 75.7412 93.1313 76.7664 93.1313 78.0221L93.1224 78.7312C92.5049 78.8227 92.0322 79.3516 92.0322 79.9927V84.0994C92.0322 84.8056 92.6054 85.3787 93.3086 85.3787H97.5719C98.278 85.3787 98.8512 84.8056 98.8512 84.0994V79.9927C98.8512 79.325 98.34 78.7814 97.6901 78.7223ZM96.0267 83.0772H94.9128L95.0872 82.2736C94.8951 82.1524 94.7651 81.9397 94.7651 81.6974C94.7651 81.3222 95.0694 81.0179 95.4447 81.0179C95.8199 81.0179 96.1242 81.3222 96.1242 81.6974C96.1242 81.9338 96.006 82.1406 95.8228 82.2618C95.8996 82.572 96.0267 83.0772 96.0267 83.0772ZM97.1996 78.7164H93.6158L93.6247 78.025C93.6247 77.0382 94.4283 76.2346 95.4151 76.2346C96.4019 76.2346 97.2055 77.0382 97.2055 78.0221L97.1996 78.7164Z" fill="white"/>
<path d="M88.2594 78.6721C88.2387 78.675 88.1796 78.4032 88.1264 77.9571C88.0732 77.5109 88.0348 76.8905 88.0555 76.2051C88.0644 75.8623 88.088 75.5374 88.1175 75.2419C88.1471 74.9465 88.2003 74.6717 88.3155 74.4649C88.4278 74.2581 88.5843 74.134 88.6996 74.0778C88.8178 74.0217 88.8946 74.0247 88.8946 74.0335C88.9093 74.0542 88.5962 74.1133 88.413 74.5151C88.3214 74.7071 88.28 74.9642 88.2594 75.2567C88.2357 75.5492 88.218 75.8712 88.2091 76.211C88.1884 76.8905 88.2091 77.505 88.2357 77.9482C88.2594 78.3914 88.28 78.6691 88.2594 78.6721Z" fill="white"/>
<path d="M88.3864 80.9145C88.345 80.9145 88.3066 80.7047 88.3007 80.4417C88.2948 80.1788 88.3243 79.9661 88.3686 79.9661C88.41 79.9661 88.4484 80.1758 88.4543 80.4388C88.4602 80.7017 88.4307 80.9145 88.3864 80.9145Z" fill="white"/>
<path d="M79.1093 102.184L69.3004 126.437H51.6178V127.53H104.287L115.062 102.184H79.1093Z" fill="#263238"/>
<path d="M94.0974 116.501C93.7428 117.722 92.7058 118.493 91.787 118.227C90.8652 117.958 90.4072 116.752 90.7618 115.532C91.1163 114.312 92.1504 113.541 93.0722 113.807C93.994 114.076 94.4549 115.281 94.0974 116.501Z" fill="#FAFAFA"/>
</g>
<defs>
<clipPath id="clip0_2_363">
<rect width="142.108" height="128" fill="white"/>
</clipPath>
</defs>
</svg>
