<svg width="143" height="128" viewBox="0 0 143 128" fill="none" xmlns="http://www.w3.org/2000/svg">
<g clip-path="url(#clip0_2_2160)">
<path d="M134.623 24.9291C134.156 24.1348 133.663 23.3583 133.149 22.5965C126.305 12.4541 114.527 5.51839 102.941 2.38268C97.8683 1.0097 92.6273 0.289259 87.3775 0.112101C52.9438 -1.05715 39.2288 26.0806 27.8493 33.0843C16.4698 40.0879 -1.03935 52.0491 0.129899 77.1436C1.29915 102.238 19.387 125.874 54.4054 127.333C89.4208 128.791 91.7563 113.036 111.306 107.199C124.244 103.336 133.436 90.2917 137.939 78.2361C144.071 61.8076 143.782 40.4688 134.623 24.9291Z" fill="#92E3A9"/>
<path opacity="0.7" d="M134.623 24.9291C134.156 24.1348 133.663 23.3583 133.149 22.5965C126.305 12.4541 114.527 5.51839 102.941 2.38268C97.8683 1.0097 92.6273 0.289259 87.3775 0.112101C52.9438 -1.05715 39.2288 26.0806 27.8493 33.0843C16.4698 40.0879 -1.03935 52.0491 0.129899 77.1436C1.29915 102.238 19.387 125.874 54.4054 127.333C89.4208 128.791 91.7563 113.036 111.306 107.199C124.244 103.336 133.436 90.2917 137.939 78.2361C144.071 61.8076 143.782 40.4688 134.623 24.9291Z" fill="#DDF8F3"/>
<path d="M25.9596 124.288C30.0461 120.946 30.5746 115.324 29.9959 110.355C29.8984 109.525 29.9191 108.642 29.4585 107.946C28.9979 107.249 28.0235 106.827 27.2971 107.24C26.6948 107.582 26.4822 108.324 26.181 108.947C25.7795 109.776 25.1388 110.488 24.3563 110.972C23.8426 111.291 23.193 111.512 22.6379 111.27C21.8791 110.934 21.7108 109.95 21.6487 109.124C21.5336 107.582 21.4155 106.041 21.3003 104.497C21.2383 103.67 21.1704 102.826 20.8456 102.061C20.5208 101.296 19.886 100.617 19.0711 100.461C18.2562 100.307 17.3084 100.842 17.205 101.665C17.1637 102.008 17.2611 102.353 17.267 102.696C17.2729 103.041 17.1401 103.434 16.8182 103.558C16.4905 103.682 16.1362 103.475 15.8675 103.254C14.9344 102.489 14.2583 101.462 13.6235 100.437C12.9886 99.4124 12.3656 98.3613 11.5064 97.5168C10.6472 96.6694 9.50157 96.0376 8.2969 96.07C7.09222 96.1025 5.87278 96.9381 5.66314 98.1251C5.4535 99.315 6.24186 100.443 7.0686 101.323C8.2969 102.631 9.71416 103.762 11.2613 104.665C11.5419 104.828 11.843 105.005 11.97 105.303C12.1973 105.84 11.7131 106.431 11.1757 106.658C10.5675 106.915 9.88542 106.906 9.23879 107.036C8.59216 107.166 7.90715 107.509 7.70932 108.137C7.43472 109.011 8.22308 109.838 8.976 110.361C10.4819 111.406 12.1678 112.191 13.9394 112.673C14.5742 112.844 15.2386 112.986 15.77 113.373C16.3015 113.759 16.6617 114.477 16.4108 115.085C16.1568 115.693 15.401 115.944 14.7484 115.879C14.0929 115.814 13.4876 115.516 12.8528 115.339C11.6659 115.005 10.1866 115.206 9.52815 116.248C9.09706 116.933 9.12659 117.837 9.43662 118.587C9.74369 119.337 10.2958 119.957 10.8746 120.527C12.8942 122.511 15.398 124.037 18.144 124.731C20.8899 125.422 23.3849 125.467 25.9596 124.288Z" fill="#92E3A9" stroke="#263238" stroke-width="0.25" stroke-miterlimit="10"/>
<path d="M26.3169 127.976C25.9715 126.019 25.3426 123.724 24.3889 121.277C23.4411 118.826 22.1744 116.222 20.7542 113.547C20.3969 112.879 20.0455 112.218 19.6971 111.568C19.3487 110.919 19.0032 110.278 18.6253 109.67C17.8753 108.45 17.0604 107.334 16.2543 106.298C15.4483 105.262 14.6422 104.308 13.8834 103.419C13.1216 102.533 12.3982 101.721 11.7043 101.007C10.3225 99.5748 9.0735 98.5532 8.18771 97.8859C7.74481 97.5493 7.39345 97.3013 7.15133 97.1359C7.03322 97.0562 6.94169 96.9942 6.87673 96.9499C6.81473 96.9086 6.7793 96.8909 6.7793 96.8909C6.7793 96.8909 6.80882 96.9174 6.86788 96.9617C6.93283 97.009 7.02141 97.0739 7.13657 97.1596C7.37278 97.3308 7.71824 97.5877 8.15818 97.9272C9.03512 98.6064 10.2723 99.6339 11.6423 101.069C12.3303 101.783 13.0478 102.598 13.8036 103.487C14.5595 104.376 15.3597 105.332 16.1598 106.369C16.963 107.405 17.772 108.518 18.519 109.735C18.894 110.34 19.2365 110.978 19.5849 111.63C19.9333 112.28 20.2847 112.941 20.642 113.609C22.0592 116.284 23.3259 118.879 24.2796 121.324C25.2363 123.766 25.874 126.048 26.2284 127.997" fill="#E0E0E0"/>
<path d="M26.3169 127.976C25.9715 126.019 25.3426 123.724 24.3889 121.277C23.4411 118.826 22.1744 116.222 20.7542 113.547C20.3969 112.879 20.0455 112.218 19.6971 111.568C19.3487 110.919 19.0032 110.278 18.6253 109.67C17.8753 108.45 17.0604 107.334 16.2543 106.298C15.4483 105.262 14.6422 104.308 13.8834 103.419C13.1216 102.533 12.3982 101.721 11.7043 101.007C10.3225 99.5748 9.0735 98.5532 8.18771 97.8859C7.74481 97.5493 7.39345 97.3013 7.15133 97.1359C7.03322 97.0562 6.94169 96.9942 6.87673 96.9499C6.81473 96.9086 6.7793 96.8909 6.7793 96.8909C6.7793 96.8909 6.80882 96.9174 6.86788 96.9617C6.93283 97.009 7.02141 97.0739 7.13657 97.1596C7.37278 97.3308 7.71824 97.5877 8.15818 97.9272C9.03512 98.6064 10.2723 99.6339 11.6423 101.069C12.3303 101.783 13.0478 102.598 13.8036 103.487C14.5595 104.376 15.3597 105.332 16.1598 106.369C16.963 107.405 17.772 108.518 18.519 109.735C18.894 110.34 19.2365 110.978 19.5849 111.63C19.9333 112.28 20.2847 112.941 20.642 113.609C22.0592 116.284 23.3259 118.879 24.2796 121.324C25.2363 123.766 25.874 126.048 26.2284 127.997" stroke="#263238" stroke-width="0.25" stroke-miterlimit="10"/>
<path d="M18.5928 109.661C18.6016 109.661 18.6164 109.534 18.64 109.301C18.6636 109.068 18.6872 108.731 18.7109 108.315C18.7581 107.482 18.7876 106.328 18.8172 105.058C18.8467 103.785 18.8939 102.637 18.9618 101.807C18.9943 101.391 19.0238 101.057 19.0475 100.824C19.0711 100.591 19.0799 100.464 19.0711 100.461C19.0622 100.461 19.0386 100.588 19.0002 100.818C18.9618 101.048 18.9175 101.385 18.8733 101.798C18.7847 102.628 18.7197 103.782 18.6902 105.055C18.6636 106.316 18.64 107.456 18.6193 108.312C18.6075 108.71 18.5957 109.041 18.5869 109.298C18.5839 109.531 18.5869 109.658 18.5928 109.661Z" fill="#E0E0E0" stroke="#263238" stroke-width="0.25" stroke-miterlimit="10"/>
<path d="M7.65918 108.56C7.65918 108.563 7.69756 108.566 7.77138 108.569C7.85996 108.569 7.96625 108.569 8.09322 108.569C8.37077 108.569 8.77528 108.566 9.27132 108.58C10.2664 108.601 11.6423 108.681 13.1511 108.834C14.6628 108.991 16.024 109.192 17.0043 109.369C17.4944 109.451 17.8901 109.531 18.1647 109.584C18.2887 109.608 18.395 109.629 18.4806 109.643C18.5544 109.655 18.5928 109.661 18.5928 109.655C18.5928 109.652 18.5574 109.637 18.4865 109.617C18.4009 109.593 18.3005 109.567 18.1765 109.534C17.9048 109.466 17.5121 109.372 17.022 109.277C16.0447 109.079 14.6806 108.864 13.1629 108.707C11.6482 108.554 10.2693 108.489 9.27132 108.489C8.77233 108.486 8.36781 108.501 8.09027 108.515C7.9633 108.524 7.85701 108.53 7.76843 108.539C7.69756 108.551 7.65918 108.557 7.65918 108.56Z" fill="#E0E0E0" stroke="#263238" stroke-width="0.25" stroke-miterlimit="10"/>
<path d="M24.253 121.088C24.256 121.088 24.2766 121.044 24.3121 120.952C24.3504 120.849 24.4006 120.716 24.4626 120.55C24.5926 120.202 24.7668 119.694 24.9764 119.062C25.3927 117.802 25.9183 116.042 26.4704 114.09C27.0226 112.141 27.5334 110.379 27.929 109.112C28.1269 108.492 28.2863 107.981 28.4044 107.612C28.4576 107.447 28.4989 107.311 28.5314 107.204C28.558 107.11 28.5727 107.06 28.5668 107.06C28.5639 107.06 28.5432 107.104 28.5078 107.196C28.4694 107.299 28.4192 107.432 28.3572 107.597C28.2273 107.946 28.0531 108.453 27.8434 109.085C27.4241 110.346 26.9015 112.106 26.3494 114.058C25.7972 116.006 25.2864 117.769 24.8908 119.036C24.693 119.656 24.5335 120.167 24.4154 120.536C24.3623 120.701 24.3209 120.837 24.2884 120.943C24.2619 121.038 24.2501 121.088 24.253 121.088Z" fill="#E0E0E0" stroke="#263238" stroke-width="0.25" stroke-miterlimit="10"/>
<path d="M9.56653 117.716C9.56653 117.719 9.61672 117.734 9.71416 117.76C9.82636 117.787 9.96809 117.819 10.1423 117.861C10.5291 117.949 11.0635 118.07 11.7161 118.221C13.0447 118.525 14.8754 118.971 16.895 119.464C18.9175 119.96 20.7511 120.391 22.0857 120.674C22.753 120.816 23.2934 120.925 23.6683 120.996C23.8455 121.029 23.9902 121.055 24.0994 121.073C24.1998 121.091 24.25 121.097 24.253 121.091C24.253 121.088 24.2028 121.073 24.1053 121.046C23.9961 121.02 23.8544 120.987 23.6772 120.946C23.2904 120.857 22.756 120.736 22.1034 120.586C20.7748 120.282 18.9441 119.836 16.9245 119.34C14.9049 118.844 13.0684 118.413 11.7338 118.132C11.0665 117.99 10.5261 117.881 10.1512 117.81C9.97399 117.778 9.82931 117.754 9.72006 117.734C9.61967 117.716 9.56653 117.71 9.56653 117.716Z" fill="#E0E0E0" stroke="#263238" stroke-width="0.25" stroke-miterlimit="10"/>
<path d="M64.7509 39.9154L43.4037 46.3379L47.7327 60.7268L69.0799 54.3043L64.7509 39.9154Z" fill="white" stroke="black" stroke-width="0.5" stroke-miterlimit="10"/>
<path d="M69.08 54.3019C69.08 54.3019 69.0475 54.2104 68.9944 54.0391C68.9383 53.862 68.8615 53.6081 68.7582 53.2803C68.5515 52.6101 68.2533 51.6357 67.8724 50.3867C67.1136 47.8858 66.0211 44.3013 64.6924 39.9314L64.7692 39.9728C58.8786 41.7502 51.4616 43.9854 43.4275 46.4095H43.4245L43.4747 46.315C45.016 51.4438 46.4805 56.3215 47.7974 60.7062L47.7088 60.659C53.992 58.784 59.3245 57.1926 63.0891 56.0676C64.9729 55.5096 66.464 55.0667 67.4915 54.7625C68.0023 54.612 68.395 54.4968 68.6666 54.4171C68.7966 54.3787 68.8969 54.3521 68.9708 54.3285C69.0446 54.3108 69.08 54.3019 69.08 54.3019C69.08 54.3019 69.0505 54.3137 68.9826 54.3344C68.9117 54.358 68.8143 54.3876 68.6873 54.4259C68.4186 54.5086 68.0318 54.6267 67.5328 54.7832C66.5112 55.0962 65.029 55.5479 63.157 56.1208C59.3865 57.2634 54.0452 58.8844 47.7531 60.7918L47.6852 60.8125L47.6645 60.7446C46.3447 56.3599 44.8743 51.4851 43.33 46.3564L43.3064 46.2826L43.3802 46.2589H43.3832C51.4232 43.8466 58.8403 41.6203 64.7337 39.8517L64.7928 39.834L64.8105 39.893C66.1185 44.2866 67.1903 47.8917 67.9403 50.4044C68.3094 51.6505 68.5958 52.6248 68.7936 53.2921C68.8881 53.6199 68.9619 53.8708 69.0121 54.045C69.0593 54.2193 69.08 54.3019 69.08 54.3019Z" fill="#E0E0E0"/>
<path d="M69.08 54.3019C69.08 54.3019 69.0475 54.2104 68.9944 54.0391C68.9383 53.862 68.8615 53.6081 68.7582 53.2803C68.5515 52.6101 68.2533 51.6357 67.8724 50.3867C67.1136 47.8858 66.0211 44.3013 64.6924 39.9314L64.7692 39.9728C58.8786 41.7502 51.4616 43.9854 43.4275 46.4095H43.4245L43.4747 46.315C45.016 51.4438 46.4805 56.3215 47.7974 60.7062L47.7088 60.659C53.992 58.784 59.3245 57.1926 63.0891 56.0676C64.9729 55.5096 66.464 55.0667 67.4915 54.7625C68.0023 54.612 68.395 54.4968 68.6666 54.4171C68.7966 54.3787 68.8969 54.3521 68.9708 54.3285C69.0446 54.3108 69.08 54.3019 69.08 54.3019ZM69.08 54.3019C69.08 54.3019 69.0505 54.3137 68.9826 54.3344C68.9117 54.358 68.8143 54.3876 68.6873 54.4259C68.4186 54.5086 68.0318 54.6267 67.5328 54.7832C66.5112 55.0962 65.029 55.5479 63.157 56.1208C59.3865 57.2634 54.0452 58.8844 47.7531 60.7918L47.6852 60.8125L47.6645 60.7446C46.3447 56.3599 44.8743 51.4851 43.33 46.3564L43.3064 46.2826L43.3802 46.2589H43.3832C51.4232 43.8466 58.8403 41.6203 64.7337 39.8517L64.7928 39.834L64.8105 39.893C66.1185 44.2866 67.1903 47.8917 67.9403 50.4044C68.3094 51.6505 68.5958 52.6248 68.7936 53.2921C68.8881 53.6199 68.9619 53.8708 69.0121 54.045C69.0593 54.2193 69.08 54.3019 69.08 54.3019Z" stroke="black" stroke-width="0.5" stroke-miterlimit="10"/>
<path d="M64.7514 39.9138C64.7544 39.9138 64.7426 39.9374 64.7219 39.9788C64.6953 40.029 64.6628 40.088 64.6215 40.1618C64.5241 40.3331 64.3912 40.5634 64.2229 40.8587C63.8656 41.4728 63.3578 42.3438 62.7348 43.4186C61.4563 45.5858 59.6935 48.5739 57.733 51.9045L57.7005 51.9606L57.6385 51.937C57.4318 51.8573 57.2074 51.7716 56.986 51.6831C53.2361 50.2215 49.8406 48.8958 47.3722 47.9332C46.1527 47.449 45.1636 47.0563 44.4638 46.7787C44.1302 46.6429 43.8674 46.5366 43.6755 46.4569C43.5928 46.4214 43.5249 46.3919 43.4717 46.3713C43.4274 46.3506 43.4038 46.3388 43.4038 46.3358C43.4038 46.3329 43.4304 46.3388 43.4776 46.3565C43.5337 46.3772 43.6016 46.4008 43.6873 46.4303C43.8821 46.5012 44.1479 46.5986 44.4845 46.7256C45.1872 46.9913 46.1822 47.3692 47.4105 47.8328C49.8849 48.7865 53.2863 50.0945 57.0421 51.5413C57.2665 51.627 57.4879 51.7155 57.6946 51.7953L57.6001 51.8277C59.5784 48.509 61.3559 45.5297 62.6432 43.3684C63.2869 42.3055 63.8066 41.4403 64.1727 40.8321C64.3499 40.5427 64.4916 40.3154 64.5949 40.15C64.6392 40.0792 64.6776 40.0201 64.7071 39.9758C64.7366 39.9315 64.7485 39.9138 64.7514 39.9138Z" fill="#E0E0E0" stroke="black" stroke-width="0.5" stroke-miterlimit="10"/>
<path d="M126.86 97.3871C126.86 97.3871 125.478 96.0171 122.777 99.4392C120.075 102.861 118.903 104.913 118.903 104.913C118.903 104.913 118.23 105.61 117.787 104.978C117.341 104.346 116.886 102.717 115.9 102.799C114.878 102.882 114.344 103.898 114.214 105.522C114.081 107.143 113.665 110.686 113.624 111.008C113.585 111.321 113.317 111.743 112.945 111.362C112.572 110.981 110.644 107.727 109.156 108.734C107.668 109.741 108.043 114.32 108.076 114.822C108.108 115.324 107.972 115.507 107.724 115.581C107.473 115.655 106.93 114.501 106.342 113.597C105.758 112.694 104.919 111.752 104.107 112.404C103.298 113.057 102.439 116.266 104.482 122.163L105.607 124.832L108.489 125.242C114.71 125.744 117.601 124.111 118.032 123.164C118.46 122.216 117.338 121.64 116.316 121.301C115.295 120.958 114.043 120.722 114.052 120.459C114.061 120.196 114.205 120.022 114.698 119.928C115.191 119.833 119.721 119.051 120.323 117.359C120.926 115.667 117.294 114.613 116.833 114.35C116.37 114.084 116.712 113.721 117.007 113.606C117.309 113.488 120.633 112.195 122.172 111.663C123.71 111.129 124.56 110.358 124.383 109.348C124.215 108.374 122.523 108.341 121.799 108.067C121.076 107.795 121.584 106.968 121.584 106.968C121.584 106.968 123.276 105.318 125.915 101.846C128.555 98.3733 126.834 97.3605 126.834 97.3605" fill="#92E3A9"/>
<path d="M126.86 97.3871C126.86 97.3871 125.478 96.0171 122.777 99.4392C120.075 102.861 118.903 104.913 118.903 104.913C118.903 104.913 118.23 105.61 117.787 104.978C117.341 104.346 116.886 102.717 115.9 102.799C114.878 102.882 114.344 103.898 114.214 105.522C114.081 107.143 113.665 110.686 113.624 111.008C113.585 111.321 113.317 111.743 112.945 111.362C112.572 110.981 110.644 107.727 109.156 108.734C107.668 109.741 108.043 114.32 108.076 114.822C108.108 115.324 107.972 115.507 107.724 115.581C107.473 115.655 106.93 114.501 106.342 113.597C105.758 112.694 104.919 111.752 104.107 112.404C103.298 113.057 102.439 116.266 104.482 122.163L105.607 124.832L108.489 125.242C114.71 125.744 117.601 124.111 118.032 123.164C118.46 122.216 117.338 121.64 116.316 121.301C115.295 120.958 114.043 120.722 114.052 120.459C114.061 120.196 114.205 120.022 114.698 119.928C115.191 119.833 119.721 119.051 120.323 117.359C120.926 115.667 117.294 114.613 116.833 114.35C116.37 114.084 116.712 113.721 117.007 113.606C117.309 113.488 120.633 112.195 122.172 111.663C123.71 111.129 124.56 110.358 124.383 109.348C124.215 108.374 122.523 108.341 121.799 108.067C121.076 107.795 121.584 106.968 121.584 106.968C121.584 106.968 123.276 105.318 125.915 101.846C128.555 98.3733 126.834 97.3605 126.834 97.3605" stroke="#263238" stroke-width="0.25" stroke-miterlimit="10"/>
<path d="M124.436 100.449C124.439 100.452 124.421 100.476 124.389 100.523C124.351 100.576 124.3 100.647 124.238 100.732C124.097 100.924 123.899 101.193 123.648 101.533C123.134 102.226 122.378 103.224 121.439 104.453C119.564 106.909 116.942 110.281 114.028 113.99C111.123 117.701 108.492 121.058 106.582 123.5C105.64 124.714 104.872 125.7 104.335 126.391C104.072 126.725 103.868 126.987 103.72 127.173C103.653 127.256 103.599 127.324 103.558 127.374C103.52 127.418 103.502 127.442 103.499 127.439C103.496 127.436 103.514 127.412 103.546 127.365C103.585 127.312 103.635 127.241 103.697 127.156C103.839 126.964 104.036 126.695 104.287 126.355C104.801 125.662 105.557 124.664 106.493 123.435C108.368 120.979 110.99 117.607 113.904 113.898C116.809 110.19 119.437 106.83 121.348 104.391C122.29 103.177 123.057 102.191 123.595 101.5C123.857 101.166 124.061 100.904 124.209 100.718C124.277 100.635 124.33 100.567 124.371 100.517C124.413 100.47 124.433 100.449 124.436 100.449Z" fill="#E0E0E0" stroke="#263238" stroke-width="0.25" stroke-miterlimit="10"/>
<path d="M116.443 105.105C116.464 105.102 116.508 105.398 116.553 105.879C116.597 106.36 116.635 107.024 116.662 107.757C116.68 108.462 116.697 109.1 116.712 109.635C116.724 110.116 116.733 110.411 116.712 110.414C116.691 110.417 116.644 110.122 116.603 109.641C116.564 109.159 116.532 108.495 116.505 107.763C116.482 107.057 116.458 106.419 116.44 105.885C116.429 105.406 116.423 105.108 116.443 105.105Z" fill="#E0E0E0" stroke="#263238" stroke-width="0.25" stroke-miterlimit="10"/>
<path d="M116.966 110.517C116.963 110.476 118.327 110.325 120.013 110.187C121.702 110.045 123.072 109.965 123.075 110.01C123.078 110.051 121.714 110.201 120.025 110.34C118.339 110.479 116.969 110.559 116.966 110.517Z" fill="#E0E0E0" stroke="#263238" stroke-width="0.25" stroke-miterlimit="10"/>
<path d="M112.065 116.213C112.071 116.193 112.369 116.246 112.85 116.34C113.331 116.432 113.999 116.559 114.737 116.677C115.475 116.795 116.145 116.883 116.632 116.948C117.12 117.01 117.421 117.052 117.418 117.075C117.415 117.096 117.111 117.093 116.621 117.058C116.13 117.022 115.451 116.951 114.71 116.83C113.969 116.712 113.302 116.567 112.826 116.449C112.351 116.325 112.062 116.231 112.065 116.213Z" fill="#E0E0E0" stroke="#263238" stroke-width="0.25" stroke-miterlimit="10"/>
<path d="M110.517 111.421C110.538 111.415 110.644 111.675 110.804 112.1C110.963 112.525 111.17 113.116 111.391 113.774C111.613 114.43 111.805 115.026 111.938 115.463C112.071 115.897 112.141 116.169 112.121 116.178C112.1 116.184 111.994 115.924 111.834 115.499C111.675 115.073 111.468 114.483 111.247 113.824C111.025 113.169 110.833 112.573 110.701 112.136C110.568 111.699 110.497 111.427 110.517 111.421Z" fill="#E0E0E0" stroke="#263238" stroke-width="0.25" stroke-miterlimit="10"/>
<path d="M105.554 115.9C105.575 115.894 105.711 116.228 105.914 116.771C106.118 117.317 106.39 118.073 106.682 118.909C106.974 119.748 107.228 120.509 107.408 121.064C107.585 121.619 107.686 121.965 107.665 121.971C107.645 121.977 107.509 121.643 107.305 121.1C107.101 120.554 106.83 119.798 106.537 118.959C106.245 118.121 105.991 117.359 105.811 116.804C105.634 116.252 105.533 115.906 105.554 115.9Z" fill="#E0E0E0" stroke="#263238" stroke-width="0.25" stroke-miterlimit="10"/>
<path d="M107.656 121.811C107.659 121.791 108.043 121.847 108.657 121.944C109.271 122.039 110.122 122.172 111.064 122.296C112.006 122.42 112.859 122.517 113.479 122.582C114.099 122.65 114.48 122.694 114.48 122.715C114.48 122.736 114.093 122.73 113.47 122.691C112.847 122.653 111.988 122.573 111.043 122.449C110.098 122.325 109.251 122.175 108.64 122.051C108.025 121.927 107.653 121.832 107.656 121.811Z" fill="#E0E0E0" stroke="#263238" stroke-width="0.25" stroke-miterlimit="10"/>
<path d="M113.831 68.3534L113.133 91.2515L129.866 91.7621L130.565 68.864L113.831 68.3534Z" fill="#F5F5F5" stroke="black" stroke-width="0.5" stroke-miterlimit="10"/>
<path d="M110.749 71.3949L110.05 94.293L126.783 94.8036L127.482 71.9055L110.749 71.3949Z" fill="white" stroke="black" stroke-width="0.5" stroke-miterlimit="10"/>
<path d="M126.786 94.8035C126.786 94.8035 126.784 94.7651 126.786 94.6913C126.786 94.6145 126.789 94.5082 126.792 94.3665C126.798 94.0771 126.81 93.6578 126.822 93.1145C126.851 92.0191 126.893 90.4276 126.946 88.411C127.061 84.3806 127.223 78.6643 127.415 71.9028L127.483 71.9736C122.443 71.823 116.753 71.6518 110.751 71.4687H110.748L110.827 71.3949C110.562 79.9487 110.314 87.8647 110.113 94.2927L110.051 94.2277C115.112 94.396 119.287 94.5348 122.201 94.6322C123.657 94.6824 124.799 94.7237 125.582 94.7503C125.969 94.7651 126.267 94.7769 126.473 94.7857C126.68 94.7946 126.786 94.8035 126.786 94.8035C126.786 94.8035 126.689 94.8064 126.491 94.8005C126.287 94.7946 125.995 94.7887 125.611 94.7798C124.832 94.7592 123.695 94.7296 122.245 94.6942C119.322 94.6115 115.132 94.4964 110.054 94.3547L109.992 94.3517L109.995 94.2897C110.187 87.8618 110.423 79.9458 110.68 71.392L110.683 71.3152L110.76 71.3181H110.762C116.765 71.5042 122.455 71.6813 127.492 71.8348L127.563 71.8378L127.56 71.9087C127.339 78.6909 127.153 84.422 127.02 88.4612C126.952 90.469 126.896 92.0575 126.857 93.147C126.837 93.6844 126.822 94.0978 126.81 94.3842C126.804 94.52 126.798 94.6233 126.795 94.7001C126.789 94.768 126.786 94.8035 126.786 94.8035Z" fill="#E0E0E0"/>
<path d="M126.786 94.8035C126.786 94.8035 126.784 94.7651 126.786 94.6913C126.786 94.6145 126.789 94.5082 126.792 94.3665C126.798 94.0771 126.81 93.6578 126.822 93.1145C126.851 92.0191 126.893 90.4276 126.946 88.411C127.061 84.3806 127.223 78.6643 127.415 71.9028L127.483 71.9736C122.443 71.823 116.753 71.6518 110.751 71.4687H110.748L110.827 71.3949C110.562 79.9487 110.314 87.8647 110.113 94.2927L110.051 94.2277C115.112 94.396 119.287 94.5348 122.201 94.6322C123.657 94.6824 124.799 94.7237 125.582 94.7503C125.969 94.7651 126.267 94.7769 126.473 94.7857C126.68 94.7946 126.786 94.8035 126.786 94.8035ZM126.786 94.8035C126.786 94.8035 126.689 94.8064 126.491 94.8005C126.287 94.7946 125.995 94.7887 125.611 94.7798C124.832 94.7592 123.695 94.7296 122.245 94.6942C119.322 94.6115 115.132 94.4964 110.054 94.3547L109.992 94.3517L109.995 94.2897C110.187 87.8618 110.423 79.9458 110.68 71.392L110.683 71.3152L110.76 71.3181H110.762C116.765 71.5042 122.455 71.6813 127.492 71.8348L127.563 71.8378L127.56 71.9087C127.339 78.6909 127.153 84.422 127.02 88.4612C126.952 90.469 126.896 92.0575 126.857 93.147C126.837 93.6844 126.822 94.0978 126.81 94.3842C126.804 94.52 126.798 94.6233 126.795 94.7001C126.789 94.768 126.786 94.8035 126.786 94.8035Z" stroke="black" stroke-width="0.5" stroke-miterlimit="10"/>
<path d="M120.952 76.6948C120.952 76.7361 119.13 76.7155 116.883 76.6476C114.636 76.5797 112.817 76.4881 112.82 76.4468C112.82 76.4055 114.642 76.4261 116.889 76.494C119.133 76.5619 120.952 76.6505 120.952 76.6948Z" fill="#E0E0E0" stroke="black" stroke-width="0.5" stroke-miterlimit="10"/>
<path d="M125.289 78.818C125.289 78.8593 122.481 78.8091 119.024 78.7028C115.563 78.5965 112.761 78.4784 112.761 78.4341C112.761 78.3898 115.569 78.443 119.03 78.5493C122.484 78.6556 125.289 78.7766 125.289 78.818Z" fill="#E0E0E0" stroke="black" stroke-width="0.5" stroke-miterlimit="10"/>
<path d="M125.224 80.8936C125.224 80.935 122.417 80.8848 118.959 80.7785C115.498 80.6722 112.696 80.5541 112.696 80.5098C112.696 80.4685 115.504 80.5187 118.965 80.6249C122.422 80.7312 125.227 80.8523 125.224 80.8936Z" fill="#E0E0E0" stroke="black" stroke-width="0.5" stroke-miterlimit="10"/>
<path d="M125.162 82.9693C125.162 83.0107 122.354 82.9605 118.897 82.8542C115.436 82.7479 112.634 82.6298 112.634 82.5855C112.634 82.5441 115.442 82.5943 118.903 82.7006C122.357 82.8069 125.162 82.928 125.162 82.9693Z" fill="#E0E0E0" stroke="black" stroke-width="0.5" stroke-miterlimit="10"/>
<path d="M125.098 85.045C125.098 85.0863 122.29 85.0362 118.832 84.9299C115.372 84.8236 112.569 84.7055 112.569 84.6612C112.569 84.6169 115.377 84.67 118.838 84.7763C122.295 84.8826 125.1 85.0037 125.098 85.045Z" fill="#E0E0E0" stroke="black" stroke-width="0.5" stroke-miterlimit="10"/>
<path d="M125.036 87.1207C125.036 87.162 122.228 87.1118 118.77 87.0055C115.31 86.8992 112.507 86.7811 112.507 86.7369C112.507 86.6955 115.315 86.7457 118.776 86.852C122.23 86.9583 125.036 87.0794 125.036 87.1207Z" fill="#E0E0E0" stroke="black" stroke-width="0.5" stroke-miterlimit="10"/>
<path d="M124.971 89.1964C124.971 89.2377 122.163 89.1875 118.705 89.0812C115.245 88.9749 112.443 88.8568 112.443 88.8125C112.443 88.7712 115.25 88.8214 118.711 88.9277C122.169 89.034 124.974 89.155 124.971 89.1964Z" fill="#E0E0E0" stroke="black" stroke-width="0.5" stroke-miterlimit="10"/>
<path d="M119.113 91.0949C119.113 91.1362 117.604 91.1244 115.744 91.0683C113.883 91.0122 112.378 90.9325 112.378 90.8882C112.378 90.8469 113.886 90.8587 115.747 90.9148C117.607 90.9738 119.115 91.0535 119.113 91.0949Z" fill="#E0E0E0" stroke="black" stroke-width="0.5" stroke-miterlimit="10"/>
<path d="M77.7752 56.1716L72.5393 69.323L88.9881 75.8717L94.2241 62.7204L77.7752 56.1716Z" fill="#92E3A9" stroke="#263238" stroke-width="0.5" stroke-miterlimit="10" stroke-linecap="round" stroke-linejoin="round"/>
<path d="M94.2218 62.723C94.2218 62.723 94.1953 62.7142 94.1421 62.6935C94.089 62.6728 94.0122 62.6433 93.9118 62.602C93.7081 62.5222 93.4099 62.4041 93.0201 62.2506C92.2406 61.9406 91.0979 61.4888 89.6511 60.916C86.7605 59.7674 82.6504 58.1376 77.7638 56.1977L77.7992 56.1829C76.2432 60.0981 74.4568 64.5832 72.5672 69.334L72.5494 69.2956C78.6378 71.7227 84.298 73.9755 88.9957 75.8505L88.9632 75.8652C90.5458 71.9057 91.8568 68.6224 92.775 66.3282C93.2356 65.1796 93.5959 64.282 93.8409 63.6679C93.965 63.3608 94.0594 63.1275 94.1214 62.9681C94.1864 62.8057 94.2218 62.723 94.2218 62.723C94.2218 62.723 94.1923 62.8027 94.1303 62.9622C94.0683 63.1216 93.9768 63.3549 93.8557 63.662C93.6136 64.2761 93.2563 65.1767 92.8046 66.3223C91.8922 68.6224 90.5871 71.9146 89.0104 75.8829L89.0016 75.9066L88.9779 75.8977C84.2773 74.0287 78.6171 71.7758 72.5288 69.3547L72.5022 69.3428L72.514 69.3163C74.4066 64.5684 76.193 60.0834 77.752 56.1682L77.7608 56.1445L77.7845 56.1534C82.6741 58.1051 86.7871 59.7497 89.6777 60.9042C91.1186 61.4829 92.2583 61.9376 93.0349 62.2476C93.4217 62.4041 93.7199 62.5222 93.9207 62.6049C94.0211 62.6463 94.0949 62.6758 94.148 62.6964C94.1982 62.7112 94.2218 62.723 94.2218 62.723Z" fill="#92E3A9"/>
<path d="M94.2218 62.723C94.2218 62.723 94.1953 62.7142 94.1421 62.6935C94.089 62.6728 94.0122 62.6433 93.9118 62.602C93.7081 62.5222 93.4099 62.4041 93.0201 62.2506C92.2406 61.9406 91.0979 61.4888 89.6511 60.916C86.7605 59.7674 82.6504 58.1376 77.7638 56.1977L77.7992 56.1829C76.2432 60.0981 74.4568 64.5832 72.5672 69.334L72.5494 69.2956C78.6378 71.7227 84.298 73.9755 88.9957 75.8505L88.9632 75.8652C90.5458 71.9057 91.8568 68.6224 92.775 66.3282C93.2356 65.1796 93.5959 64.282 93.8409 63.6679C93.965 63.3608 94.0594 63.1275 94.1214 62.9681C94.1864 62.8057 94.2218 62.723 94.2218 62.723ZM94.2218 62.723C94.2218 62.723 94.1923 62.8027 94.1303 62.9622C94.0683 63.1216 93.9768 63.3549 93.8557 63.662C93.6136 64.2761 93.2563 65.1767 92.8046 66.3223C91.8922 68.6224 90.5871 71.9146 89.0104 75.8829L89.0016 75.9066L88.9779 75.8977C84.2773 74.0287 78.6171 71.7758 72.5288 69.3547L72.5022 69.3428L72.514 69.3163C74.4066 64.5684 76.193 60.0834 77.752 56.1682L77.7608 56.1445L77.7845 56.1534C82.6741 58.1051 86.7871 59.7497 89.6777 60.9042C91.1186 61.4829 92.2583 61.9376 93.0349 62.2476C93.4217 62.4041 93.7199 62.5222 93.9207 62.6049C94.0211 62.6463 94.0949 62.6758 94.148 62.6964C94.1982 62.7112 94.2218 62.723 94.2218 62.723Z" stroke="#263238" stroke-width="0.5" stroke-miterlimit="10" stroke-linecap="round" stroke-linejoin="round"/>
<path d="M78.0024 57.2368L73.4261 68.7312L88.72 74.8201L93.2963 63.3257L78.0024 57.2368Z" fill="#92E3A9" stroke="#263238" stroke-width="0.5" stroke-miterlimit="10" stroke-linecap="round" stroke-linejoin="round"/>
<path d="M73.4855 68.77L81.6731 63.7505L83.2026 69.5377L86.3974 68.0436L88.7802 74.8583L73.4855 68.77Z" fill="white" stroke="#263238" stroke-width="0.5" stroke-miterlimit="10" stroke-linecap="round" stroke-linejoin="round"/>
<path d="M86.7339 64.7514C86.4682 65.4157 85.7153 65.7405 85.0509 65.4748C84.3866 65.209 84.0618 64.4561 84.3275 63.7918C84.5933 63.1274 85.3462 62.8026 86.0105 63.0684C86.6749 63.3341 86.9997 64.087 86.7339 64.7514Z" fill="white" stroke="#263238" stroke-width="0.5" stroke-miterlimit="10" stroke-linecap="round" stroke-linejoin="round"/>
<path d="M34.8825 77.2825C34.8855 77.2707 34.9977 77.3593 35.2339 77.3416C35.349 77.3268 35.4937 77.2766 35.6118 77.1526C35.724 77.0315 35.8067 76.8367 35.9248 76.6447C36.3825 75.8475 37.035 74.7078 37.8411 73.3023C38.0448 72.951 38.2574 72.5819 38.4788 72.1951C38.591 72.0032 38.7032 71.8054 38.8184 71.6075C38.8745 71.5071 38.9424 71.4067 38.9749 71.3093C39.0074 71.2089 39.0103 71.0997 38.9837 70.9934C38.9572 70.89 38.8981 70.7955 38.8154 70.7247C38.7357 70.6597 38.6147 70.6036 38.5113 70.5446C38.2958 70.4235 38.0773 70.3025 37.8558 70.1784C37.41 69.9304 36.9553 69.6735 36.4858 69.4108C34.6109 68.3567 32.5499 67.2022 30.3856 65.9886C30.1465 65.8499 29.8187 65.9414 29.6682 66.1688C29.5146 66.4315 29.3611 66.6914 29.2105 66.9512C28.9064 67.4738 28.6082 67.9876 28.3129 68.4925C27.7224 69.5023 27.1555 70.4767 26.6122 71.4067C26.5443 71.5219 26.4763 71.6371 26.4114 71.7522C26.3435 71.8585 26.314 71.9707 26.3169 72.0888C26.3228 72.204 26.3641 72.3191 26.438 72.4047C26.5059 72.4963 26.6151 72.5435 26.7303 72.6114C27.1732 72.8624 27.6043 73.1045 28.0206 73.3407C28.8503 73.8131 29.6268 74.2501 30.3355 74.6517C31.7409 75.4548 32.8806 76.1044 33.6808 76.5621C34.0676 76.7865 34.3717 76.9636 34.5873 77.0876C34.6847 77.1467 34.7615 77.191 34.8205 77.2264C34.8559 77.2618 34.8825 77.2795 34.8825 77.2825C34.8825 77.2855 34.853 77.2707 34.7969 77.2441C34.7349 77.2116 34.6552 77.1703 34.5548 77.1172C34.3363 76.999 34.0263 76.8308 33.6336 76.6152C32.8275 76.1694 31.6789 75.5316 30.2646 74.7491C29.553 74.3535 28.7765 73.9194 27.9409 73.4529C27.5245 73.2197 27.0905 72.9776 26.6476 72.7295C26.5443 72.6675 26.4084 72.6114 26.3169 72.4933C26.2224 72.3841 26.1693 72.2394 26.1634 72.0947C26.1575 71.95 26.2018 71.7994 26.2756 71.6813C26.3435 71.5662 26.4084 71.451 26.4763 71.3359C27.0167 70.4058 27.5806 69.4285 28.1682 68.4157C28.4605 67.9108 28.7617 67.3941 29.0629 66.8715C29.2164 66.6087 29.3699 66.3459 29.5264 66.0772C29.7154 65.7879 30.1347 65.6698 30.4447 65.8499C32.606 67.0664 34.664 68.2267 36.539 69.2838C37.0055 69.5495 37.4631 69.8064 37.906 70.0574C38.1275 70.1814 38.346 70.3054 38.5615 70.4265C38.6678 70.4914 38.7741 70.5357 38.8863 70.6243C38.9896 70.7129 39.0635 70.831 39.0959 70.9579C39.1284 71.0849 39.1225 71.2207 39.0841 71.3447C39.0398 71.4717 38.969 71.5632 38.9158 71.6636C38.8007 71.8615 38.6855 72.0593 38.5733 72.2482C38.3489 72.6321 38.1334 72.9982 37.9267 73.3496C37.1059 74.7432 36.4386 75.8741 35.9691 76.6684C35.8451 76.8603 35.7654 77.0463 35.6384 77.1792C35.5085 77.3061 35.352 77.3563 35.2309 77.3652C35.1069 77.374 35.0154 77.3475 34.9593 77.3209C34.9061 77.3061 34.8825 77.2825 34.8825 77.2825Z" fill="#E0E0E0"/>
<path d="M33.3206 71.2295L34.0646 72.5523L32.5293 72.5789L30.9939 72.6084L31.7852 71.259L32.5765 69.9097L33.3206 71.2295Z" fill="#E0E0E0"/>
<path d="M133.454 127.525C133.454 127.569 105.211 127.607 70.3821 127.607C35.5409 127.607 7.30481 127.572 7.30481 127.525C7.30481 127.48 35.5409 127.442 70.3821 127.442C105.214 127.445 133.454 127.48 133.454 127.525Z" fill="#263238"/>
<path d="M38.529 108.766L29.6121 99.8111L34.0942 91.5791C38.5763 85.8421 48.0661 86.2112 48.0661 86.2112C48.0661 86.2112 54.5235 85.5882 62.0586 87.0557C69.5967 88.5231 68.9885 93.5101 68.9885 93.5101L69.9983 111.985L71.0819 127.029L43.2828 127.59L38.529 108.766Z" fill="#C8DCEC"/>
<path d="M53.5049 126.724L28.6052 127.029C22.6232 127.102 18.6312 120.881 21.1912 115.472L31.8384 95.7275L41.5349 102.282L34.9209 116.009L55.0786 116.369L53.5049 126.724Z" fill="#C8DCEC"/>
<path d="M68.1028 90.5103L88.0833 121.359L76.4263 122.121C76.4263 122.121 69.464 111.152 69.6234 111.38C69.9069 111.79 68.1028 90.5103 68.1028 90.5103Z" fill="#C8DCEC"/>
<path d="M41.0359 104.057C41.03 104.057 41.0418 104.001 41.0625 103.897C41.092 103.779 41.1245 103.632 41.1688 103.452C41.2603 103.065 41.3961 102.504 41.5349 101.804C41.6737 101.107 41.8243 100.272 41.9247 99.3357C42.0191 98.4026 42.0782 97.3633 41.9365 96.2944C41.777 95.2285 41.3755 94.2601 40.906 93.454C40.4336 92.645 39.905 91.9806 39.4238 91.458C38.9425 90.9354 38.5173 90.5457 38.2132 90.2888C37.912 90.0289 37.7378 89.8931 37.7467 89.8813C37.7496 89.8784 37.7969 89.9079 37.8825 89.9669C37.9681 90.0289 38.098 90.1146 38.2516 90.2415C38.5675 90.4866 39.0074 90.8675 39.5035 91.3842C39.9995 91.9009 40.5458 92.5653 41.03 93.3831C41.5142 94.1981 41.9276 95.1813 42.09 96.2738C42.2347 97.3663 42.1697 98.4144 42.0693 99.3534C41.9601 100.292 41.7977 101.131 41.6441 101.828C41.4906 102.525 41.34 103.083 41.2278 103.466C41.1717 103.658 41.1274 103.806 41.095 103.906C41.0595 104.007 41.0389 104.057 41.0359 104.057Z" fill="#263238"/>
<path d="M40.2327 105.12C40.2416 105.123 40.1796 105.282 40.0615 105.566C39.9434 105.849 39.7633 106.257 39.5389 106.756C39.0871 107.757 38.4464 109.133 37.7082 110.638C36.9701 112.144 36.2732 113.494 35.7565 114.462C35.4997 114.946 35.2871 115.336 35.1335 115.605C34.9829 115.873 34.8944 116.018 34.8855 116.012C34.8766 116.006 34.9475 115.853 35.0804 115.575C35.228 115.277 35.4229 114.884 35.6591 114.409C36.1581 113.402 36.8283 112.056 37.5695 110.565C38.2958 109.068 38.9513 107.715 39.4414 106.703C39.6717 106.227 39.8637 105.832 40.0083 105.533C40.1442 105.268 40.2239 105.117 40.2327 105.12Z" fill="#263238"/>
<path d="M53.5048 126.724C53.5019 126.724 53.5019 126.707 53.5048 126.671C53.5078 126.63 53.5107 126.58 53.5166 126.521C53.5314 126.379 53.5521 126.181 53.5757 125.933C53.6347 125.408 53.7145 124.661 53.8208 123.719C54.0422 121.811 54.3522 119.121 54.7184 115.953L54.7892 116.033C52.5482 116.036 50.0561 116.036 47.4342 116.039C42.4118 116.03 37.8676 116.021 34.5666 116.015C32.9279 116.006 31.5992 115.998 30.6661 115.992C30.2144 115.986 29.8601 115.98 29.6061 115.977C29.491 115.974 29.3995 115.971 29.3315 115.968C29.2695 115.965 29.2371 115.962 29.2371 115.959C29.2371 115.956 29.2695 115.953 29.3315 115.95C29.4024 115.947 29.4939 115.944 29.6061 115.941C29.8601 115.938 30.2144 115.933 30.6661 115.927C31.5962 115.921 32.9279 115.912 34.5666 115.903C37.8676 115.897 42.4118 115.888 47.4342 115.879C50.0561 115.882 52.5482 115.885 54.7892 115.885H54.869L54.8601 115.965C54.4703 119.13 54.1426 121.817 53.9093 123.725C53.7883 124.664 53.6938 125.411 53.6259 125.936C53.5905 126.184 53.5639 126.379 53.5462 126.521C53.5373 126.583 53.5285 126.63 53.5225 126.671C53.5107 126.707 53.5078 126.724 53.5048 126.724Z" fill="#263238"/>
<path d="M35.0951 116.225C35.0745 116.237 34.9032 115.986 34.5991 115.602C34.295 115.221 33.8403 114.716 33.2704 114.235C32.7005 113.753 32.1277 113.39 31.6996 113.154C31.2715 112.915 30.9939 112.791 31.0028 112.767C31.0087 112.75 31.3039 112.841 31.7498 113.057C32.1956 113.272 32.7891 113.626 33.3678 114.117C33.9466 114.607 34.3983 115.132 34.6847 115.534C34.9741 115.938 35.1099 116.213 35.0951 116.225Z" fill="#263238"/>
<path d="M70.4146 118.177C70.4087 118.177 70.3969 118.088 70.3763 117.923C70.3556 117.743 70.329 117.497 70.2936 117.187C70.2257 116.55 70.1341 115.625 70.0367 114.48C69.8359 112.192 69.6027 109.029 69.393 105.53C69.1863 102.032 69.0417 98.8633 68.959 96.5691C68.9177 95.4206 68.8881 94.4934 68.8763 93.8527C68.8704 93.5427 68.8675 93.2947 68.8645 93.1145C68.8645 92.9462 68.8645 92.8577 68.8704 92.8577C68.8763 92.8577 68.8852 92.9462 68.894 93.1145C68.9029 93.2976 68.9177 93.5427 68.9354 93.8527C68.9678 94.5082 69.0121 95.4324 69.0682 96.5691C69.1804 98.8633 69.3399 102.029 69.5466 105.527C69.7532 109.023 69.9688 112.189 70.143 114.477C70.2316 115.611 70.3024 116.532 70.3526 117.187C70.3763 117.497 70.394 117.743 70.4058 117.926C70.4176 118.088 70.4205 118.177 70.4146 118.177Z" fill="#263238"/>
<path d="M48.1901 101.391C48.1813 101.391 48.1931 101.249 48.2226 100.986C48.258 100.706 48.3023 100.331 48.3584 99.87C48.4883 98.8956 48.6655 97.561 48.8722 96.0139L48.9873 96.0847C48.3909 96.501 47.7472 96.9528 47.077 97.4223C46.3949 97.8976 45.7394 98.3524 45.1341 98.7746L44.9954 98.872L45.0219 98.7037C45.2552 97.1713 45.4589 95.8485 45.6066 94.883C45.6804 94.4283 45.7424 94.0592 45.7896 93.7817C45.8339 93.5248 45.8634 93.386 45.8723 93.389C45.8812 93.389 45.8693 93.5307 45.8398 93.7905C45.8044 94.071 45.7571 94.4431 45.701 94.8978C45.5682 95.8662 45.3822 97.192 45.1696 98.7273L45.0544 98.6565C45.6568 98.2342 46.3122 97.7766 46.9943 97.2983C47.6646 96.8317 48.3112 96.38 48.9076 95.9666L49.0464 95.8692L49.0228 96.0375C48.7954 97.5788 48.6005 98.9134 48.4559 99.8848C48.382 100.342 48.323 100.714 48.2787 100.995C48.2256 101.252 48.196 101.394 48.1901 101.391Z" fill="black"/>
<path d="M59.3009 102.589C59.295 102.595 59.1917 102.495 59.0116 102.306C58.8167 102.099 58.5569 101.825 58.238 101.488C57.5707 100.765 56.6583 99.7756 55.6013 98.63L55.7282 98.5857C55.6692 99.3091 55.6042 100.094 55.5363 100.909C55.4654 101.736 55.3975 102.533 55.3326 103.269L55.3178 103.44L55.2056 103.313C54.1781 102.152 53.2893 101.152 52.6398 100.419C52.3386 100.071 52.0935 99.7874 51.9075 99.5748C51.7392 99.377 51.6506 99.2648 51.6565 99.2589C51.6624 99.253 51.7628 99.3534 51.9429 99.5394C52.1349 99.7461 52.3917 100.018 52.7047 100.354C53.3632 101.075 54.2667 102.064 55.3119 103.21L55.1849 103.251C55.2469 102.516 55.3119 101.718 55.3798 100.892C55.4507 100.077 55.5186 99.2913 55.5806 98.568L55.5954 98.3997L55.7076 98.5266C56.7498 99.687 57.6474 100.691 58.3059 101.423C58.613 101.772 58.861 102.055 59.047 102.271C59.2182 102.471 59.3068 102.584 59.3009 102.589Z" fill="black"/>
<path d="M64.8933 102.194C64.8992 102.2 64.8283 102.321 64.6925 102.545C64.5419 102.784 64.3411 103.106 64.096 103.499C63.5646 104.326 62.8353 105.459 61.9908 106.77L61.917 106.658C62.6315 106.534 63.4081 106.401 64.2141 106.263C65.032 106.124 65.8233 105.991 66.5497 105.867L66.718 105.837L66.6235 105.979C65.7584 107.266 65.0114 108.377 64.4681 109.189C64.2053 109.567 63.9927 109.877 63.8333 110.107C63.6827 110.319 63.6 110.432 63.5911 110.429C63.5852 110.423 63.6561 110.302 63.7919 110.08C63.9425 109.841 64.1433 109.525 64.3913 109.138C64.9257 108.321 65.655 107.199 66.5024 105.899L66.5763 106.012C65.8499 106.136 65.0616 106.271 64.2437 106.413C63.4376 106.549 62.6611 106.682 61.9436 106.803L61.7753 106.832L61.8698 106.691C62.7319 105.392 63.4789 104.27 64.0222 103.452C64.2821 103.068 64.4947 102.758 64.657 102.522C64.8017 102.303 64.8874 102.188 64.8933 102.194Z" fill="black"/>
<path d="M57.4555 107.916C57.4614 107.922 57.3906 108.043 57.2547 108.267C57.1042 108.507 56.9034 108.828 56.6583 109.221C56.1268 110.048 55.3975 111.182 54.5531 112.493L54.4792 112.38C55.1938 112.256 55.9703 112.124 56.7764 111.985C57.5943 111.846 58.3856 111.713 59.1119 111.589L59.2802 111.56L59.1858 111.701C58.3206 112.989 57.5736 114.099 57.0303 114.911C56.7675 115.289 56.555 115.599 56.3955 115.829C56.2449 116.042 56.1623 116.154 56.1534 116.151C56.1475 116.145 56.2184 116.024 56.3542 115.803C56.5048 115.563 56.7055 115.247 56.9536 114.861C57.488 114.043 58.2173 112.921 59.0647 111.622L59.1385 111.734C58.4122 111.858 57.6238 111.994 56.8059 112.135C55.9999 112.271 55.2233 112.404 54.5058 112.525L54.3375 112.555L54.432 112.413C55.2942 111.114 56.0412 109.992 56.5845 109.174C56.8443 108.79 57.0569 108.48 57.2193 108.244C57.364 108.025 57.4496 107.91 57.4555 107.916Z" fill="black"/>
<path d="M73.5268 102.111C73.5327 102.117 73.4618 102.238 73.326 102.463C73.1754 102.702 72.9747 103.024 72.7296 103.416C72.1981 104.243 71.4688 105.377 70.6244 106.688L70.5505 106.576C71.2651 106.452 72.0416 106.319 72.8477 106.18C73.6656 106.041 74.4569 105.908 75.1832 105.784L75.3515 105.755L75.2571 105.896C74.3919 107.184 73.6449 108.294 73.1016 109.106C72.8388 109.484 72.6262 109.794 72.4668 110.024C72.3162 110.237 72.2335 110.349 72.2247 110.346C72.2188 110.34 72.2896 110.219 72.4255 109.998C72.576 109.758 72.7768 109.443 73.0249 109.056C73.5593 108.238 74.2886 107.116 75.136 105.817L75.2098 105.929C74.4835 106.053 73.6951 106.189 72.8772 106.33C72.0712 106.466 71.2946 106.599 70.5771 106.72L70.4088 106.75L70.5033 106.608C71.3655 105.309 72.1125 104.187 72.6558 103.369C72.9156 102.985 73.1282 102.675 73.2906 102.439C73.4353 102.223 73.5179 102.108 73.5268 102.111Z" fill="black"/>
<path d="M35.8953 97.3869C35.9012 97.3928 35.8304 97.5139 35.6946 97.7383C35.544 97.9775 35.3432 98.2993 35.0981 98.692C34.5666 99.5187 33.8373 100.653 32.9929 101.964L32.9191 101.851C33.6336 101.727 34.4102 101.594 35.2162 101.456C36.0341 101.317 36.8254 101.184 37.5518 101.06L37.7201 101.031L37.6256 101.172C36.7605 102.46 36.0134 103.57 35.4702 104.382C35.2074 104.76 34.9948 105.07 34.8353 105.3C34.6848 105.513 34.6021 105.625 34.5932 105.622C34.5873 105.616 34.6582 105.495 34.794 105.273C34.9446 105.034 35.1454 104.718 35.3934 104.332C35.9278 103.514 36.6571 102.392 37.5045 101.093L37.5783 101.205C36.852 101.329 36.0636 101.465 35.2458 101.606C34.4397 101.742 33.6631 101.875 32.9456 101.996L32.7773 102.026L32.8718 101.884C33.734 100.585 34.481 99.4626 35.0243 98.6448C35.2841 98.2609 35.4967 97.9509 35.6591 97.7147C35.8038 97.4962 35.8865 97.381 35.8953 97.3869Z" fill="black"/>
<path d="M24.2205 119.464C24.2264 119.458 24.3239 119.564 24.4922 119.765C24.6723 119.984 24.9144 120.273 25.2126 120.63C25.8327 121.392 26.683 122.437 27.6662 123.648L27.5363 123.683C27.6426 122.966 27.7548 122.186 27.8729 121.374C27.9969 120.553 28.115 119.762 28.2213 119.033L28.2479 118.865L28.3513 118.997C29.305 120.22 30.1287 121.274 30.7311 122.044C31.0116 122.411 31.236 122.709 31.4072 122.933C31.5637 123.143 31.6435 123.258 31.6375 123.264C31.6316 123.27 31.5372 123.164 31.3689 122.966C31.1887 122.747 30.9525 122.458 30.6573 122.104C30.0461 121.342 29.2075 120.299 28.2361 119.092L28.366 119.056C28.2597 119.786 28.1446 120.577 28.0235 121.398C27.9025 122.207 27.7873 122.986 27.6781 123.704L27.6544 123.872L27.5511 123.739C26.5856 122.517 25.75 121.46 25.1388 120.686C24.8553 120.32 24.625 120.019 24.4508 119.795C24.2973 119.585 24.2146 119.47 24.2205 119.464Z" fill="black"/>
<path d="M50.8829 105.17C50.8829 105.179 50.7412 105.197 50.4813 105.22C50.1979 105.244 49.8229 105.276 49.3593 105.318C48.379 105.392 47.0356 105.492 45.4796 105.607L45.5238 105.48C46.0524 105.976 46.6281 106.517 47.2246 107.075C47.8299 107.644 48.4115 108.194 48.946 108.699L49.07 108.817L48.9017 108.825C47.3545 108.911 46.0169 108.985 45.0426 109.038C44.5819 109.059 44.207 109.074 43.9265 109.085C43.6666 109.094 43.5249 109.094 43.5249 109.085C43.5249 109.076 43.6637 109.059 43.9235 109.035C44.204 109.011 44.579 108.982 45.0367 108.944C46.011 108.876 47.3456 108.784 48.8928 108.678L48.8485 108.805C48.3111 108.3 47.7265 107.754 47.1212 107.187C46.5277 106.626 45.952 106.085 45.4264 105.586L45.3024 105.471L45.4707 105.462C47.0267 105.368 48.3731 105.288 49.3534 105.229C49.817 105.206 50.1949 105.188 50.4784 105.176C50.7382 105.161 50.8799 105.161 50.8829 105.17Z" fill="black"/>
<path d="M44.3399 120.051C44.3458 120.045 44.4432 120.149 44.6174 120.347C44.8035 120.562 45.0515 120.846 45.3556 121.197C45.9904 121.947 46.8615 122.977 47.8683 124.167L47.7384 124.206C47.8299 123.485 47.9274 122.703 48.0307 121.891C48.137 121.067 48.2403 120.273 48.3348 119.544L48.3555 119.375L48.4618 119.508C49.4391 120.713 50.2836 121.749 50.9007 122.508C51.1871 122.868 51.4203 123.163 51.5945 123.382C51.754 123.589 51.8367 123.701 51.8307 123.707C51.8248 123.713 51.7274 123.609 51.5562 123.414C51.3731 123.202 51.128 122.915 50.8298 122.567C50.2038 121.817 49.3446 120.793 48.3496 119.603L48.4795 119.564C48.388 120.296 48.2876 121.088 48.1842 121.912C48.0779 122.724 47.9775 123.503 47.886 124.223L47.8654 124.392L47.7591 124.262C46.7699 123.057 45.9137 122.018 45.2877 121.256C44.9983 120.893 44.7621 120.601 44.585 120.379C44.4167 120.17 44.334 120.057 44.3399 120.051Z" fill="black"/>
<path d="M32.6474 109.136C32.6474 109.144 32.5057 109.162 32.2459 109.189C31.9624 109.212 31.5874 109.245 31.1239 109.286C30.1436 109.36 28.8001 109.46 27.2441 109.575L27.2884 109.449C27.8169 109.945 28.3927 110.485 28.9891 111.043C29.5944 111.613 30.1761 112.162 30.7105 112.667L30.8345 112.785L30.6662 112.794C29.119 112.879 27.7815 112.953 26.8071 113.006C26.3465 113.027 25.9715 113.042 25.691 113.054C25.4312 113.063 25.2894 113.063 25.2894 113.054C25.2894 113.045 25.4282 113.027 25.688 113.003C25.9685 112.98 26.3435 112.95 26.8012 112.912C27.7756 112.844 29.1101 112.753 30.6573 112.646L30.613 112.773C30.0757 112.268 29.491 111.722 28.8857 111.155C28.2923 110.594 27.7165 110.054 27.1909 109.555L27.0669 109.44L27.2352 109.431C28.7913 109.336 30.1377 109.257 31.1179 109.198C31.5815 109.174 31.9594 109.156 32.2429 109.144C32.5027 109.13 32.6445 109.13 32.6474 109.136Z" fill="black"/>
<path d="M42.6923 119.715C42.6923 119.724 42.5506 119.742 42.2908 119.768C42.0073 119.792 41.6323 119.824 41.1688 119.866C40.1885 119.939 38.845 120.04 37.289 120.155L37.3333 120.028C37.8618 120.524 38.4376 121.064 39.034 121.622C39.6393 122.192 40.221 122.741 40.7554 123.246L40.8794 123.364L40.7111 123.373C39.1639 123.459 37.8264 123.533 36.852 123.586C36.3914 123.607 36.0164 123.621 35.7359 123.633C35.4761 123.642 35.3344 123.642 35.3344 123.633C35.3344 123.624 35.4731 123.607 35.733 123.583C36.0135 123.559 36.3884 123.53 36.8461 123.491C37.8205 123.423 39.1551 123.332 40.7023 123.226L40.658 123.353C40.1206 122.848 39.536 122.301 38.9307 121.735C38.3372 121.174 37.7614 120.633 37.2359 120.134L37.1118 120.019L37.2801 120.01C38.8362 119.916 40.1826 119.836 41.1629 119.777C41.6264 119.753 42.0044 119.736 42.2878 119.724C42.5506 119.709 42.6923 119.706 42.6923 119.715Z" fill="black"/>
<path d="M65.3715 92.8015C65.3715 92.8103 65.2298 92.828 64.97 92.8517C64.6865 92.8753 64.3115 92.9077 63.848 92.9491C62.8677 93.0229 61.5242 93.1233 59.9682 93.2384L60.0125 93.1115C60.541 93.6075 61.1168 94.1479 61.7132 94.7059C62.3185 95.2758 62.9002 95.825 63.4346 96.3299L63.5586 96.448L63.3903 96.4568C61.8431 96.5425 60.5056 96.6163 59.5312 96.6694C59.0706 96.6901 58.6956 96.7048 58.4151 96.7167C58.1553 96.7255 58.0135 96.7255 58.0135 96.7167C58.0135 96.7078 58.1523 96.6901 58.4122 96.6665C58.6927 96.6428 59.0676 96.6133 59.5253 96.5749C60.4997 96.507 61.8343 96.4155 63.3815 96.3092L63.3372 96.4362C62.7998 95.9313 62.2152 95.385 61.6099 94.8181C61.0164 94.2571 60.4406 93.7168 59.9151 93.2178L59.791 93.1026L59.9593 93.0938C61.5154 92.9993 62.8618 92.9196 63.8421 92.8605C64.3056 92.8369 64.6836 92.8192 64.967 92.8074C65.2298 92.7926 65.3715 92.7926 65.3715 92.8015Z" fill="black"/>
<path d="M54.3404 119.715C54.3404 119.715 59.3097 118.283 60.9514 117.864C61.5921 117.701 64.3351 119.148 66.2307 120.35C66.2307 120.35 68.8409 121.897 68.6283 122.375C68.395 122.901 67.4325 122.792 65.9 122.071C65.9 122.071 66.4345 123.627 65.3833 123.592C65.3833 123.592 65.9059 125.272 64.9198 125.446C63.9336 125.62 63.7033 123.477 62.8322 123.358C61.9642 123.243 60.166 123.125 60.166 123.125C60.166 123.125 58.669 125.602 57.5116 125.777C56.3512 125.951 53.6672 125.638 53.6672 125.638L54.3404 119.715Z" fill="#FFBE9D"/>
<path d="M62.8174 120.057C62.841 120.022 63.4611 120.373 64.2052 120.843C64.9492 121.312 65.5339 121.72 65.5102 121.758C65.4866 121.794 64.8666 121.442 64.1225 120.973C63.3814 120.503 62.7968 120.096 62.8174 120.057Z" fill="#EB996E"/>
<path d="M62.5251 121.014C62.5428 120.976 63.281 121.277 64.1727 121.69C65.0644 122.101 65.773 122.467 65.7553 122.505C65.7376 122.544 64.9994 122.242 64.1077 121.829C63.216 121.419 62.5074 121.052 62.5251 121.014Z" fill="#EB996E"/>
<path d="M63.0567 123.329C63.0626 123.288 63.5645 123.32 64.1787 123.406C64.7928 123.488 65.2859 123.592 65.28 123.633C65.2741 123.674 64.7722 123.642 64.158 123.556C63.5439 123.474 63.0508 123.373 63.0567 123.329Z" fill="#EB996E"/>
<path d="M47.8772 68.4717C47.9923 68.8526 47.8624 69.2955 47.5583 69.5495C47.2542 69.8063 46.7936 69.8565 46.4392 69.6794C45.766 69.3369 45.6804 68.4097 45.8133 67.6657C45.9462 66.9216 46.1971 66.1303 45.8871 65.4423C45.6479 64.9168 45.1312 64.5831 44.7297 64.1697C44.0269 63.4493 43.6549 62.3982 43.8261 61.4061C43.9974 60.414 44.7415 59.5223 45.7099 59.2536C46.6991 58.976 47.9185 59.2802 48.6537 58.5656C49.1881 58.046 49.2206 57.1956 49.634 56.5785C50.2747 55.6159 51.63 55.4654 52.7756 55.6218C53.9212 55.7783 55.0846 56.1445 56.2066 55.8669C57.1426 55.6337 57.9132 54.9811 58.7901 54.5796C60.6916 53.7085 63.1246 54.181 64.5626 55.6986C66.0035 57.2163 66.343 59.6699 65.3745 61.5242C65.0261 62.1915 64.5006 62.7938 63.8067 63.0773" fill="#263238"/>
<path d="M47.8772 68.4717C47.9923 68.8526 47.8624 69.2955 47.5583 69.5495C47.2542 69.8063 46.7936 69.8565 46.4392 69.6794C45.766 69.3369 45.6804 68.4097 45.8133 67.6657C45.9462 66.9216 46.1971 66.1303 45.8871 65.4423C45.6479 64.9168 45.1312 64.5831 44.7297 64.1697C44.0269 63.4493 43.6549 62.3982 43.8261 61.4061C43.9974 60.414 44.7415 59.5223 45.7099 59.2536C46.6991 58.976 47.9185 59.2802 48.6537 58.5656C49.1881 58.046 49.2206 57.1956 49.634 56.5785C50.2747 55.6159 51.63 55.4654 52.7756 55.6218C53.9212 55.7783 55.0846 56.1445 56.2066 55.8669C57.1426 55.6337 57.9132 54.9811 58.7901 54.5796C60.6916 53.7085 63.1246 54.181 64.5626 55.6986C66.0035 57.2163 66.343 59.6699 65.3745 61.5242C65.0261 62.1915 64.5006 62.7938 63.8067 63.0773" stroke="#263238" stroke-width="0.2" stroke-miterlimit="10"/>
<path d="M53.5757 92.8606C56.7469 92.8577 59.3039 90.2623 59.2625 87.0912L59.1887 81.6642C59.1887 81.6642 63.7476 81.2066 64.0517 76.689C64.3529 72.1715 64.1344 61.7486 64.1344 61.7486C59.0234 59.2153 52.9409 59.6434 48.2374 62.8736L47.5405 63.3519L47.8801 87.2506C47.9214 90.3627 50.4607 92.8636 53.5757 92.8606Z" fill="#FFBE9D" stroke="#263238" stroke-width="0.2" stroke-miterlimit="10"/>
<path d="M62.9326 69.9275C62.1295 69.768 62.1354 68.7317 62.9415 68.584C62.9769 68.5781 63.0153 68.5781 63.0508 68.584C63.8539 68.7435 63.848 69.7798 63.0419 69.9275C63.0094 69.9363 62.9681 69.9363 62.9326 69.9275Z" fill="#263238" stroke="#263238" stroke-width="0.2" stroke-miterlimit="10"/>
<path d="M63.8214 68.4866C63.7476 68.5605 63.3224 68.1943 62.6994 68.1589C62.0764 68.1117 61.6069 68.4187 61.5419 68.3361C61.5094 68.2977 61.5892 68.1618 61.7929 68.0231C61.9937 67.8843 62.3332 67.7603 62.723 67.7839C63.1098 67.8105 63.4316 67.9788 63.6117 68.1441C63.7977 68.3065 63.8568 68.4542 63.8214 68.4866Z" fill="#263238" stroke="#263238" stroke-width="0.2" stroke-miterlimit="10"/>
<path d="M56.617 68.637C56.9152 68.8437 56.989 69.2541 56.7823 69.5523C56.5756 69.8505 56.1652 69.9243 55.867 69.7176C55.5688 69.5109 55.495 69.1005 55.7017 68.8023C55.9083 68.5041 56.3188 68.4303 56.617 68.637Z" fill="#263238" stroke="#263238" stroke-width="0.2" stroke-miterlimit="10"/>
<path d="M57.0274 68.6666C56.9536 68.7404 56.5284 68.3743 55.9054 68.3388C55.2824 68.2916 54.8129 68.5987 54.748 68.516C54.7155 68.4776 54.7952 68.3418 54.999 68.203C55.1997 68.0642 55.5393 67.9402 55.929 67.9638C56.3158 67.9904 56.6377 68.1587 56.8178 68.3241C57.0038 68.4865 57.0629 68.6341 57.0274 68.6666Z" fill="#263238" stroke="#263238" stroke-width="0.2" stroke-miterlimit="10"/>
<path d="M59.2448 73.9402C59.2418 73.89 59.6316 73.8339 60.2635 73.7807C60.4288 73.7719 60.5558 73.7423 60.5735 73.6538C60.6089 73.5563 60.5558 73.3792 60.4819 73.1813C60.3432 72.7621 60.2044 72.3339 60.0597 71.8881C59.478 70.0486 59.0824 68.5339 59.1739 68.5043C59.2684 68.4748 59.8146 69.9423 60.3963 71.7818C60.5321 72.2306 60.665 72.6587 60.792 73.0809C60.8422 73.2729 60.9426 73.4973 60.8451 73.763C60.792 73.8959 60.6591 73.9844 60.5499 74.0081C60.4406 74.0346 60.3491 74.0287 60.2694 74.0287C59.6375 74.0199 59.2448 73.9874 59.2448 73.9402Z" fill="#263238" stroke="#263238" stroke-width="0.2" stroke-miterlimit="10"/>
<path d="M57.1839 74.5159C57.9811 74.8849 58.9319 75.3456 60.1897 75.57C60.1897 75.57 59.3984 76.692 58.1228 76.1428C56.7942 75.5759 57.1839 74.5159 57.1839 74.5159Z" fill="white" stroke="#263238" stroke-width="0.2" stroke-miterlimit="10"/>
<path d="M59.1976 81.5963C59.1976 81.5963 56.3276 81.6731 53.3956 79.6003C53.3956 79.6003 54.6121 82.9309 59.1444 82.7685L59.1976 81.5963Z" fill="#EB996E" stroke="#263238" stroke-width="0.2" stroke-miterlimit="10"/>
<path d="M64.164 62.8883C64.164 62.8883 61.4357 64.276 57.8158 62.5546C55.4418 61.4267 52.687 60.9071 52.0935 61.3913C51.4971 61.8755 51.4174 64.3026 49.1025 65.0555C49.1025 65.0555 49.3535 69.6764 47.5051 69.5465C45.6568 69.4166 46.6725 62.2328 46.6725 62.2328L51.1398 59.9416L56.0442 58.917L60.6946 59.4809L64.3027 60.3933L64.164 62.8883Z" fill="#263238" stroke="#263238" stroke-width="0.2" stroke-miterlimit="10"/>
<path d="M47.8387 68.0612C47.7649 68.0228 44.7827 66.9746 44.7119 70.069C44.641 73.1663 47.7649 72.5965 47.7738 72.5079C47.7826 72.4193 47.8387 68.0612 47.8387 68.0612Z" fill="#FFBE9D" stroke="#263238" stroke-width="0.2" stroke-miterlimit="10"/>
<path d="M46.8555 71.315C46.8407 71.3061 46.7994 71.3504 46.7079 71.3918C46.6193 71.4301 46.4658 71.4538 46.3034 71.3918C45.9786 71.2648 45.7158 70.7392 45.7128 70.1812C45.7099 69.8977 45.7748 69.632 45.8811 69.4135C45.9815 69.1891 46.1321 69.0356 46.2975 69.009C46.4628 68.9735 46.578 69.0769 46.6134 69.1655C46.6518 69.254 46.6311 69.3131 46.6488 69.319C46.6577 69.3279 46.7167 69.2688 46.6931 69.1389C46.6813 69.0769 46.6459 69.0031 46.575 68.9411C46.5012 68.8791 46.3949 68.8466 46.2797 68.8554C46.0406 68.8673 45.8221 69.0828 45.7069 69.322C45.58 69.5641 45.5002 69.8652 45.5002 70.1812C45.5061 70.8042 45.8132 71.3977 46.2561 71.5364C46.4717 71.5984 46.6547 71.5364 46.7522 71.4656C46.8466 71.3888 46.8644 71.3209 46.8555 71.315Z" fill="#EB996E" stroke="#263238" stroke-width="0.2" stroke-miterlimit="10"/>
<path d="M46.262 58.3679C46.2443 58.3324 46.7522 58.1878 47.3368 58.4062C47.9214 58.6218 48.2108 59.0647 48.1754 59.0794C48.1429 59.1119 47.824 58.7458 47.2837 58.5509C46.7492 58.3472 46.268 58.4151 46.262 58.3679Z" fill="#263238" stroke="#263238" stroke-width="0.2" stroke-miterlimit="10"/>
<path d="M48.1252 56.5135C48.1783 56.5164 48.0956 57.166 48.2019 57.9396C48.3082 58.722 48.6743 59.2653 48.633 59.289C48.6182 59.3008 48.506 59.1797 48.3732 58.9464C48.2433 58.7161 48.1045 58.3648 48.0484 57.9632C47.9391 57.1542 48.0956 56.5076 48.1252 56.5135Z" fill="#263238" stroke="#263238" stroke-width="0.2" stroke-miterlimit="10"/>
<path d="M60.8481 66.9983C60.8304 66.9629 60.9633 66.8566 61.2143 66.7532C61.4652 66.6499 61.8373 66.5643 62.2536 66.5672C62.6699 66.5731 63.039 66.6676 63.287 66.7739C63.535 66.8802 63.6679 66.9894 63.6502 67.0278C63.6118 67.1105 63.0154 66.8772 62.2506 66.8743C61.4859 66.8595 60.8836 67.081 60.8481 66.9983Z" fill="#263238" stroke="#263238" stroke-width="0.2" stroke-miterlimit="10"/>
<path d="M53.9448 66.3489C53.9271 66.3135 54.06 66.2072 54.3109 66.1038C54.5619 66.0005 54.9339 65.9148 55.3503 65.9178C55.7666 65.9237 56.1357 66.0182 56.3837 66.1245C56.6317 66.2308 56.7646 66.34 56.7469 66.3784C56.7085 66.4611 56.112 66.2278 55.3473 66.2249C54.5826 66.2101 53.9802 66.4316 53.9448 66.3489Z" fill="#263238" stroke="#263238" stroke-width="0.2" stroke-miterlimit="10"/>
<path d="M60.3137 67.4857C60.3166 67.4886 60.3225 67.5536 60.3255 67.6687C60.3284 67.7987 60.3343 67.964 60.3402 68.1677C60.3461 68.3862 60.3491 68.6461 60.355 68.9443C60.355 69.2425 60.3727 69.5909 60.5026 69.9482C60.6266 70.3025 60.8392 70.6686 61.1552 70.9787C61.474 71.2828 61.8904 71.5367 62.3746 71.6489C62.6167 71.705 62.8706 71.7345 63.1305 71.7139C63.3903 71.7021 63.6531 71.6489 63.9041 71.5515C64.409 71.3655 64.8666 71.0023 65.1767 70.521C65.4719 70.0633 65.6048 69.5289 65.593 69.0092C65.593 68.4807 65.5959 67.9699 65.5959 67.4827L65.6668 67.5536C64.1196 67.5388 62.7968 67.527 61.8343 67.5182C61.3737 67.5093 61.0016 67.5034 60.7211 67.4975C60.603 67.4945 60.5026 67.4916 60.42 67.4886C60.355 67.4916 60.3166 67.4886 60.3137 67.4857C60.3078 67.4798 60.4406 67.4739 60.6945 67.468C60.9691 67.4621 61.3353 67.4562 61.79 67.4473C62.7614 67.4384 64.1019 67.4266 65.6698 67.4119H65.7406V67.4827C65.7406 67.9699 65.7436 68.4807 65.7436 69.0092C65.7613 69.5466 65.6196 70.1224 65.3066 70.6037C64.9788 71.1115 64.4916 71.4983 63.9572 71.6902C63.6915 71.7936 63.4139 71.8467 63.1393 71.8585C62.8647 71.8763 62.5961 71.8467 62.3421 71.7847C61.8313 71.6637 61.3943 71.392 61.0666 71.0672C60.7388 70.7365 60.5233 70.3527 60.3993 69.9777C60.2723 69.6027 60.2605 69.2425 60.2694 68.9325C60.2753 68.6284 60.2812 68.3626 60.2841 68.1382C60.29 67.9374 60.2959 67.775 60.2989 67.6451C60.3078 67.5388 60.3107 67.4827 60.3137 67.4857Z" fill="#263238"/>
<path d="M60.3137 67.4857C60.3166 67.4886 60.3225 67.5536 60.3255 67.6687C60.3284 67.7987 60.3343 67.964 60.3402 68.1677C60.3461 68.3862 60.3491 68.6461 60.355 68.9443C60.355 69.2425 60.3727 69.5909 60.5026 69.9482C60.6266 70.3025 60.8392 70.6686 61.1552 70.9787C61.474 71.2828 61.8904 71.5367 62.3746 71.6489C62.6167 71.705 62.8706 71.7345 63.1305 71.7139C63.3903 71.7021 63.6531 71.6489 63.9041 71.5515C64.409 71.3655 64.8666 71.0023 65.1767 70.521C65.4719 70.0633 65.6048 69.5289 65.593 69.0092C65.593 68.4807 65.5959 67.9699 65.5959 67.4827L65.6668 67.5536C64.1196 67.5388 62.7968 67.527 61.8343 67.5182C61.3737 67.5093 61.0016 67.5034 60.7211 67.4975C60.603 67.4945 60.5026 67.4916 60.42 67.4886C60.355 67.4916 60.3166 67.4886 60.3137 67.4857ZM60.3137 67.4857C60.3078 67.4798 60.4406 67.4739 60.6945 67.468C60.9691 67.4621 61.3353 67.4562 61.79 67.4473C62.7614 67.4384 64.1019 67.4266 65.6698 67.4119H65.7406V67.4827C65.7406 67.9699 65.7436 68.4807 65.7436 69.0092C65.7613 69.5466 65.6196 70.1224 65.3066 70.6037C64.9788 71.1115 64.4916 71.4983 63.9572 71.6902C63.6915 71.7936 63.4139 71.8467 63.1393 71.8585C62.8647 71.8763 62.5961 71.8467 62.3421 71.7847C61.8313 71.6637 61.3943 71.392 61.0666 71.0672C60.7388 70.7365 60.5233 70.3527 60.3993 69.9777C60.2723 69.6027 60.2605 69.2425 60.2694 68.9325C60.2753 68.6284 60.2812 68.3626 60.2841 68.1382C60.29 67.9374 60.2959 67.775 60.2989 67.6451C60.3078 67.5388 60.3107 67.4827 60.3137 67.4857Z" stroke="#263238" stroke-width="0.2" stroke-miterlimit="10"/>
<path d="M53.0767 67.3321C53.0797 67.3351 53.0856 67.4 53.0885 67.5152C53.0915 67.6451 53.0974 67.8104 53.1033 68.0142C53.1092 68.2327 53.1121 68.4925 53.1181 68.7907C53.1181 69.0889 53.1358 69.4374 53.2657 69.7946C53.3897 70.1489 53.6023 70.5151 53.9182 70.8251C54.2371 71.1292 54.6534 71.3831 55.1377 71.4953C55.3798 71.5514 55.6337 71.581 55.8935 71.5603C56.1534 71.5485 56.4162 71.4953 56.6671 71.3979C57.172 71.2119 57.6297 70.8487 57.9397 70.3674C58.235 69.9098 58.3679 69.3753 58.356 68.8557C58.356 68.3272 58.359 67.8164 58.359 67.3292L58.4299 67.4C56.8827 67.3853 55.5599 67.3735 54.5973 67.3646C54.1367 67.3557 53.7647 67.3498 53.4842 67.3439C53.3661 67.341 53.2657 67.338 53.183 67.3351C53.1151 67.338 53.0797 67.3351 53.0767 67.3321C53.0708 67.3262 53.2037 67.3203 53.4576 67.3144C53.7322 67.3085 54.0983 67.3026 54.553 67.2937C55.5245 67.2849 56.865 67.2731 58.4328 67.2583H58.5037V67.3292C58.5037 67.8164 58.5066 68.3272 58.5066 68.8557C58.5243 69.3931 58.3826 69.9688 58.0696 70.4501C57.7419 70.958 57.2547 71.3448 56.7203 71.5367C56.4545 71.64 56.177 71.6932 55.9024 71.705C55.6278 71.7227 55.3591 71.6932 55.1052 71.6312C54.5944 71.5101 54.1574 71.2385 53.8296 70.9137C53.5019 70.583 53.2864 70.1991 53.1623 69.8241C53.0354 69.4492 53.0236 69.0889 53.0324 68.7789C53.0383 68.4748 53.0442 68.2091 53.0472 67.9847C53.0531 67.7839 53.059 67.6215 53.062 67.4916C53.0679 67.3853 53.0708 67.3292 53.0767 67.3321Z" fill="#263238"/>
<path d="M53.0767 67.3321C53.0797 67.3351 53.0856 67.4 53.0885 67.5152C53.0915 67.6451 53.0974 67.8104 53.1033 68.0142C53.1092 68.2327 53.1121 68.4925 53.1181 68.7907C53.1181 69.0889 53.1358 69.4374 53.2657 69.7946C53.3897 70.1489 53.6023 70.5151 53.9182 70.8251C54.2371 71.1292 54.6534 71.3831 55.1377 71.4953C55.3798 71.5514 55.6337 71.581 55.8935 71.5603C56.1534 71.5485 56.4162 71.4953 56.6671 71.3979C57.172 71.2119 57.6297 70.8487 57.9397 70.3674C58.235 69.9098 58.3679 69.3753 58.356 68.8557C58.356 68.3272 58.359 67.8164 58.359 67.3292L58.4299 67.4C56.8827 67.3853 55.5599 67.3735 54.5973 67.3646C54.1367 67.3557 53.7647 67.3498 53.4842 67.3439C53.3661 67.341 53.2657 67.338 53.183 67.3351C53.1151 67.338 53.0797 67.3351 53.0767 67.3321ZM53.0767 67.3321C53.0708 67.3262 53.2037 67.3203 53.4576 67.3144C53.7322 67.3085 54.0983 67.3026 54.553 67.2937C55.5245 67.2849 56.865 67.2731 58.4328 67.2583H58.5037V67.3292C58.5037 67.8164 58.5066 68.3272 58.5066 68.8557C58.5243 69.3931 58.3826 69.9688 58.0696 70.4501C57.7419 70.958 57.2547 71.3448 56.7203 71.5367C56.4545 71.64 56.177 71.6932 55.9024 71.705C55.6278 71.7227 55.3591 71.6932 55.1052 71.6312C54.5944 71.5101 54.1574 71.2385 53.8296 70.9137C53.5019 70.583 53.2864 70.1991 53.1623 69.8241C53.0354 69.4492 53.0236 69.0889 53.0324 68.7789C53.0383 68.4748 53.0442 68.2091 53.0472 67.9847C53.0531 67.7839 53.059 67.6215 53.062 67.4916C53.0679 67.3853 53.0708 67.3292 53.0767 67.3321Z" stroke="#263238" stroke-width="0.2" stroke-miterlimit="10"/>
<path d="M60.3786 67.7013C60.3786 67.7426 59.921 67.7781 59.36 67.7781C58.796 67.7781 58.3413 67.7426 58.3413 67.7013C58.3413 67.6599 58.799 67.6245 59.36 67.6245C59.9239 67.6245 60.3786 67.6599 60.3786 67.7013Z" fill="#263238" stroke="#263238" stroke-width="0.2" stroke-miterlimit="10"/>
<path d="M47.4313 67.7426C47.4313 67.7012 48.695 67.6629 50.254 67.6569C51.813 67.651 53.0767 67.6835 53.0767 67.7249C53.0767 67.7662 51.813 67.8046 50.254 67.8105C48.695 67.8134 47.4313 67.7839 47.4313 67.7426Z" fill="#263238" stroke="#263238" stroke-width="0.2" stroke-miterlimit="10"/>
<path d="M104.16 71.4095L95.3704 68.2532L86.666 71.3682C85.5558 71.8938 84.5814 72.2068 84.5814 73.2431V78.3984C84.5814 81.9771 85.5204 85.5261 87.4484 88.6559C89.0724 91.2897 91.5851 94.0032 95.456 95.7275C99.0139 94.573 101.668 91.4905 103.292 88.8567C105.22 85.724 106.159 82.1778 106.159 78.5992V73.9636C106.162 72.4843 105.38 71.7639 104.16 71.4095Z" fill="#92E3A9" stroke="#263238" stroke-width="0.5" stroke-miterlimit="10" stroke-linecap="round" stroke-linejoin="round"/>
<path d="M95.456 92.7335C92.3941 91.3694 90.404 89.1756 89.1196 87.091C87.5931 84.6138 86.852 81.8088 86.852 78.9742V75.3602C86.852 74.5423 87.3451 73.7746 88.3283 73.317L95.3733 70.6832L95.3704 68.2532L86.666 71.3682C85.7536 71.7668 84.5814 72.2068 84.5814 73.2431V78.3984C84.5814 81.9771 85.5204 85.5261 87.4484 88.6559C89.0724 91.2897 91.5851 94.0032 95.456 95.7275V92.7335Z" fill="#92E3A9" stroke="#263238" stroke-width="0.5" stroke-miterlimit="10" stroke-linecap="round" stroke-linejoin="round"/>
<path d="M95.456 95.7246C96.0731 95.5179 96.64 95.2817 97.1833 94.9834C98.6419 94.1892 99.8879 93.0967 100.839 92.1076C101.902 91.0033 102.693 89.8075 103.381 88.6914C105.309 85.5586 106.248 82.0125 106.162 78.3364L106.168 74.0817C106.162 71.9617 105.076 71.8052 104.163 71.4066L95.3704 68.2532L95.3733 70.6832L102.501 73.3612C103.481 73.8189 103.977 74.5866 103.977 75.4045V79.0185C103.977 81.8501 103.236 84.6551 101.71 87.1353C100.425 89.2199 98.5208 91.3694 95.4589 92.7335V95.7246H95.456Z" fill="#799093" stroke="#263238" stroke-width="0.5" stroke-miterlimit="10"/>
<path opacity="0.5" d="M97.703 78.7468L97.7119 78.05C97.7119 76.7921 96.6873 75.7676 95.4295 75.7676C94.1717 75.7676 93.1471 76.7921 93.1471 78.047L93.1382 78.7557C92.5211 78.8472 92.0487 79.3757 92.0487 80.0164V84.1206C92.0487 84.8263 92.6215 85.3991 93.3242 85.3991H97.5849C98.2906 85.3991 98.8634 84.8263 98.8634 84.1206V80.0164C98.8634 79.3491 98.3526 78.8059 97.703 78.7468ZM96.0407 83.099H94.9275L95.1017 82.2959C94.9098 82.1748 94.7799 81.9622 94.7799 81.7201C94.7799 81.3451 95.084 81.041 95.459 81.041C95.834 81.041 96.1381 81.3451 96.1381 81.7201C96.1381 81.9563 96.02 82.163 95.8369 82.2841C95.9137 82.5941 96.0407 83.099 96.0407 83.099ZM97.2129 78.7409H93.6313L93.6402 78.05C93.6402 77.0638 94.4433 76.2607 95.4295 76.2607C96.4157 76.2607 97.2188 77.0638 97.2188 78.047L97.2129 78.7409Z" fill="white"/>
<path d="M88.2781 78.6968C88.2575 78.6997 88.1984 78.4281 88.1453 77.9822C88.0921 77.5364 88.0537 76.9163 88.0744 76.2313C88.0833 75.8888 88.1069 75.564 88.1364 75.2687C88.1659 74.9735 88.2191 74.6989 88.3342 74.4922C88.4465 74.2855 88.6029 74.1615 88.7181 74.1054C88.8362 74.0493 88.913 74.0522 88.913 74.0611C88.9277 74.0818 88.6147 74.1408 88.4317 74.5424C88.3402 74.7343 88.2988 74.9912 88.2781 75.2835C88.2545 75.5758 88.2368 75.8977 88.2279 76.2372C88.2073 76.9163 88.2279 77.5305 88.2545 77.9734C88.2781 78.4162 88.2988 78.6938 88.2781 78.6968Z" fill="white"/>
<path d="M88.4051 80.9378C88.3638 80.9378 88.3254 80.7281 88.3195 80.4654C88.3136 80.2026 88.3431 79.99 88.3874 79.99C88.4287 79.99 88.4671 80.1996 88.473 80.4624C88.4789 80.7252 88.4494 80.9378 88.4051 80.9378Z" fill="white"/>
<path d="M79.1338 102.194L69.331 126.432H51.6594V127.525H104.296L115.064 102.194H79.1338Z" fill="#263238"/>
<path d="M94.1126 116.502C93.7582 117.722 92.7219 118.492 91.8036 118.227C90.8824 117.958 90.4247 116.753 90.779 115.534C91.1334 114.314 92.1668 113.544 93.088 113.809C94.0092 114.078 94.4698 115.283 94.1126 116.502Z" fill="#FAFAFA"/>
</g>
<defs>
<clipPath id="clip0_2_2160">
<rect width="142.167" height="128" fill="white"/>
</clipPath>
</defs>
</svg>
