<svg width="150" height="261" viewBox="0 0 150 261" fill="none" xmlns="http://www.w3.org/2000/svg">
<path d="M89.3575 97.6014L101.08 94.2946C101.08 94.2946 101.237 90.1729 102.804 87.493C104.559 84.4997 104.935 82.1175 105.813 83.1362C106.706 84.1706 106.612 85.0168 105.938 86.9288C105.265 88.8408 106.064 90.8468 106.064 90.8468L112.286 83.5593C112.286 83.5593 111.486 87.9161 109.919 92.2102C108.728 95.47 107.443 97.3193 103.384 99.7327C98.5726 102.601 91.4419 105.03 91.4419 105.03L89.3575 97.6014Z" fill="#BA5964"/>
<path d="M70.3165 68.2007C73.5449 70.9276 73.2471 72.6201 76.4442 82.9322C79.1398 91.6772 81.1614 99.4504 81.1614 99.4504L90.2041 96.8959L91.3952 105.327C91.3952 105.327 78.0584 111.345 74.9397 110.499C71.0374 109.449 60.5999 75.0023 60.5999 75.0023C59.7693 68.9216 66.0537 64.126 70.3165 68.2007Z" fill="#228C7E"/>
<path d="M90.282 97.1624C90.282 97.1624 91.3947 100.359 91.3947 105.343" stroke="#AAEEED" stroke-width="1.05" stroke-miterlimit="10" stroke-linecap="round"/>
<path d="M89.7035 255.997C90.0953 256.749 89.7975 258.269 86.7885 259.523C83.7638 260.777 78.31 260.244 76.1473 259.821C73.9846 259.397 72.6525 258.771 69.4554 259.429C66.2426 260.103 60.9769 259.805 59.394 258.457C58.8455 257.815 59.206 256.498 59.206 256.498L89.7035 255.997Z" fill="#8FC9C6"/>
<path d="M60.9141 246.61C60.4753 248.819 58.673 253.991 59.1902 256.514C61.447 258.426 66.2739 258.552 69.8941 257.643C73.5143 256.734 76.0688 258.583 80.6137 258.849C85.0802 259.116 88.7944 257.878 89.7034 255.997C90.6907 253.96 82.9018 252.377 77.6047 250.747C71.665 248.929 68.5933 245.998 68.5933 245.998L60.9141 246.61Z" fill="#228C7E"/>
<path d="M70.3956 250.872C70.3956 250.872 71.4613 247.879 72.8875 246.907" stroke="#8FC9C6" stroke-width="0.525" stroke-miterlimit="10" stroke-linecap="round"/>
<path d="M74.4391 252.471C74.4391 252.471 75.5048 249.478 76.9309 248.506" stroke="#8FC9C6" stroke-width="0.525" stroke-miterlimit="10" stroke-linecap="round"/>
<path d="M78.4672 254.07C78.4672 254.07 79.5329 251.076 80.959 250.105" stroke="#8FC9C6" stroke-width="0.525" stroke-miterlimit="10" stroke-linecap="round"/>
<path d="M60.4916 238.444L60.9304 246.594C60.9304 246.594 61.9491 246.939 62.3722 247.424C62.7953 247.926 63.3752 249.587 64.0961 249.603C66.9327 249.713 68.6096 245.983 68.6096 245.983V237.567L60.4916 238.444Z" fill="#FF9A8D"/>
<path d="M16.0304 257.941C15.5289 258.63 14.0244 259.006 11.5953 256.812C9.16615 254.618 7.31687 249.462 6.76835 247.331C6.21984 245.184 6.21983 243.726 4.24518 241.109C2.25485 238.492 0.280185 233.618 0.81303 231.596C1.15781 230.828 2.5056 230.593 2.5056 230.593L16.0304 257.941Z" fill="#AAEEED"/>
<path d="M12.1746 227.913C9.99622 228.462 4.5424 229.057 2.48938 230.609C1.73713 233.461 3.68045 237.881 6.06258 240.764C8.44471 243.648 7.84917 246.735 9.55741 250.967C11.2343 255.104 13.9455 257.941 16.0299 257.956C18.3023 257.972 16.3747 250.261 15.5754 244.776C14.6821 238.633 16.0142 234.605 16.0142 234.605L12.1746 227.913Z" fill="#03AA99"/>
<path d="M12.3788 238.288C12.3788 238.288 15.5445 237.975 17.0333 238.836" stroke="#AAEEED" stroke-width="0.525" stroke-miterlimit="10" stroke-linecap="round"/>
<path d="M12.6757 242.629C12.6757 242.629 15.8414 242.316 17.3302 243.178" stroke="#AAEEED" stroke-width="0.525" stroke-miterlimit="10" stroke-linecap="round"/>
<path d="M12.9589 246.97C12.9589 246.97 16.1246 246.657 17.6134 247.519" stroke="#AAEEED" stroke-width="0.525" stroke-miterlimit="10" stroke-linecap="round"/>
<path d="M17.0496 222.898L12.1757 227.897C12.1757 227.897 12.3011 228.963 12.0346 229.559C11.7682 230.154 10.5145 231.392 10.7966 232.05C11.9093 234.668 15.9996 234.574 15.9996 234.574L23.0363 229.057L17.0496 222.898Z" fill="#FF9A8D"/>
<path d="M77.3703 112.678C67.5284 112.678 59.1126 113.414 59.1126 113.414C55.9626 114.793 50.5714 121.94 48.9729 126.485C47.3744 131.029 48.0326 138.615 48.8632 142.517C53.4864 164.269 57.5297 177.45 59.332 186.069C60.429 191.35 55.0066 193.795 55.8372 203.402C56.8715 215.328 60.4761 238.444 60.4761 238.444C60.4761 238.444 64.2216 240.529 68.5784 238.539C68.5784 238.539 72.9979 195.848 73.5777 191.006C74.3457 184.486 75.286 180.27 75.9912 166.777C76.9472 148.676 77.3703 112.678 77.3703 112.678Z" fill="#1E4174"/>
<path d="M23.0347 229.057C23.0347 229.057 60.9607 201.255 63.2644 198.732C65.5525 196.193 66.8847 137.94 67.4802 134.195C67.4802 134.195 77.087 120.529 77.3691 112.662L57.2935 110.076C56.0084 114.903 49.2224 114.965 44.0664 126.484C39.5685 136.53 46.4642 164.301 48.7993 191.914C48.7993 191.914 44.8343 191.961 40.0544 195.378C35.6662 198.512 17.0637 222.882 17.0637 222.882C17.0637 222.882 18.4585 227.537 23.0347 229.057Z" fill="#85B8ED"/>
<path d="M57.2935 110.091C56.0084 114.918 49.2224 114.981 44.0664 126.5C39.5685 136.545 46.4642 164.316 48.7993 191.93C48.7993 191.93 44.8343 191.977 40.0544 195.393C35.6662 198.528 17.0637 222.897 17.0637 222.897C17.0637 222.897 17.4869 224.261 18.5996 225.765C22.4392 220.954 32.7199 209.357 38.7379 203.088C46.6993 194.798 51.8083 194.531 52.2001 192.776C52.5762 191.021 52.1844 164.974 50.8053 148.722C49.4262 132.471 50.8053 125.888 55.5539 119.98C58.845 115.89 60.5062 111.596 60.5062 111.596C68.0287 117.708 75.1594 116.156 76.9303 115.639C77.1811 114.589 77.3535 113.586 77.3848 112.661L57.2935 110.091Z" fill="#4E7EAC"/>
<path d="M68.3282 107.459C63.9244 115.796 57.4363 121.516 55.2892 127.064C53.1578 132.612 53.9571 143.864 54.3646 164.379C54.7564 184.533 55.2422 193.732 54.3646 195.112C53.5026 196.491 47.6256 197.823 38.4263 206.677C29.2269 215.532 17.7864 229.057 17.7864 229.057" stroke="#274D79" stroke-width="0.525" stroke-miterlimit="10"/>
<path d="M74.221 109.135C74.221 109.135 73.0143 123.726 59.176 120.654" stroke="#274D79" stroke-width="0.525" stroke-miterlimit="10"/>
<path d="M18.5072 218.635C19.1497 221.973 22.3625 226.408 27.1111 228.242" stroke="#274D79" stroke-width="0.525" stroke-miterlimit="10"/>
<path d="M59.8169 64.4552C59.8169 64.4552 56.6355 65.991 53.987 69.1254C51.7302 72.2441 50.6959 81.5219 52.0123 88.6996C52.8116 93.072 58.4692 106.095 56.1027 111.706C56.1027 111.706 69.4395 116.188 78.2157 112.678C78.7329 110.045 78.6232 105.249 78.9837 97.1937C80.6919 95.3445 82.3688 91.9437 82.5255 89.7496C83.0897 81.5689 75.6926 78.2621 69.6746 73.4508C67.2454 71.5075 65.4118 67.5425 62.9827 65.6776C61.3998 64.4552 59.8169 64.4552 59.8169 64.4552Z" fill="#FFB852"/>
<path d="M65.2557 55.4593L61.4944 58.8131L59.8175 64.4549C59.8175 64.4549 62.184 66.0378 63.0929 67.4169C64.2056 69.0938 66.6818 73.1058 69.6751 73.4506C69.6751 73.4506 69.3774 69.8304 69.8318 67.8714C70.2863 65.9124 71.6498 62.0415 71.6498 62.0415L65.2557 55.4593Z" fill="#FF9A8D"/>
<path d="M65.2552 55.4593C65.2552 55.4593 64.4403 58.6093 64.5813 60.2235C64.7224 61.8221 66.1329 65.1602 69.8314 67.8714C70.2859 65.9124 71.6494 62.0415 71.6494 62.0415L65.2552 55.4593Z" fill="#BA5964"/>
<path d="M81.0997 48.3602C81.805 50.8991 84.7043 54.4409 84.0774 55.0835C83.5602 55.6163 81.084 55.491 81.084 55.491C81.084 55.491 79.2661 53.7357 79.8773 51.2752C80.4885 48.8304 81.0997 48.3602 81.0997 48.3602Z" fill="#BA5964"/>
<path d="M74.7842 32.5316C78.2947 32.845 81.8052 37.7033 81.7425 42.1385C81.6798 46.5579 80.6611 48.9714 80.9432 52.0901C81.2253 55.2088 81.2096 58.2178 79.8932 61.4933C79.0156 63.6717 76.7432 64.1575 73.7185 63.4366C70.9446 62.7627 67.1519 60.0985 66.29 59.2522C65.4124 58.4059 65.2557 55.4752 65.2557 55.4752C65.2557 55.4752 61.1183 54.864 59.222 51.0871C57.3257 47.2789 57.6705 30.9644 74.7842 32.5316Z" fill="#FF9A8D"/>
<path d="M65.2558 55.4594C65.2558 55.4594 61.4789 53.9863 61.8237 49.7862C62.1684 45.4764 67.9671 45.3197 67.732 49.1123C67.732 49.1123 71.1014 48.8146 72.0731 47.3257C73.0447 45.8369 73.9851 38.5025 73.9851 38.5025C73.9851 38.5025 75.1448 40.3204 75.7403 42.9063C76.3358 45.5078 78.2792 45.8212 81.6643 44.207C85.0494 42.5928 87.4159 39.3801 88.0741 36.2614C88.0741 36.2614 85.2845 36.183 83.6546 35.274C83.6546 35.274 87.4785 35.133 89.0771 32.7039C89.0771 32.7039 85.2688 34.3651 82.777 33.0643C80.3008 31.7635 76.6649 28.5038 72.0261 29.068C67.4029 29.6322 64.8013 32.4845 64.8013 32.4845C64.8013 32.4845 60.4759 30.6822 57.2318 33.2367C53.9877 35.7912 51.7153 42.4048 54.4892 49.2377C57.2631 56.0706 61.4946 58.7976 61.4946 58.7976L65.2558 55.4594Z" fill="#001C45"/>
<path d="M56.3066 34.5692C56.3066 34.5692 52.467 29.8206 47.0131 31.2154C41.9825 32.5005 38.8011 36.4342 38.8951 43.9567C38.9891 51.6986 48.9564 62.7786 40.4466 69.5175C40.4466 69.5175 53.1565 69.7056 50.0378 54.2688C47.6557 42.4835 51.8087 37.7976 55.3976 39.2708L56.3066 34.5692Z" fill="#001C45"/>
<path d="M78.0436 49.4721C78.0122 48.9079 77.5264 48.4848 76.9779 48.5161C76.4137 48.5475 75.9906 49.0333 76.0219 49.5818C76.0532 50.146 76.5391 50.5692 77.0876 50.5378C77.6518 50.5065 78.0749 50.0207 78.0436 49.4721Z" fill="#001C45"/>
<path d="M78.8898 46.8083L74.2509 48.2815C74.2509 48.2815 74.3449 46.6986 75.9435 46.2128C77.8868 45.6173 78.8898 46.8083 78.8898 46.8083Z" fill="#001C45"/>
<path d="M64.2054 48.8927C64.8323 48.6733 65.7726 48.7046 66.3054 49.1278C66.5092 49.2845 66.1644 49.6136 65.9763 49.5352C64.9106 49.1435 63.5942 49.0808 63.077 50.3345C63.0457 50.3972 62.9987 50.3345 63.0143 50.2875C63.1397 49.5979 63.5315 49.1278 64.2054 48.8927Z" fill="#BA5964"/>
<path d="M64.6918 48.987C64.8171 48.9243 65.0836 49.2221 65.0522 49.3161C64.8798 49.3945 64.5977 49.5982 64.4724 49.8333C64.2529 50.2407 64.1746 50.5855 64.2216 51.04C64.3156 52.1057 64.9112 52.8736 65.9455 53.1087C65.9612 53.1087 65.9925 53.1714 65.9612 53.1714C65.0522 53.3908 64.0335 52.4661 63.8298 51.6512C63.5947 50.7579 63.6574 49.4728 64.6918 48.987Z" fill="#BA5964"/>
<path d="M57.9217 64.7524L60.1158 63.4986C60.1158 63.4986 68.9861 73.8578 70.0361 81.8034C70.7883 87.4766 67.0114 108.712 67.0114 108.712C67.0114 108.712 56.6366 109.543 51.2612 105.703C51.2612 105.703 54.3956 100.625 52.656 93.1498C51.6843 88.9811 50.885 85.3296 50.8067 80.2676C50.6813 74.3122 52.6716 69.1405 57.9217 64.7524Z" fill="#3ED9C7"/>
<path d="M68.3276 100.532L55.2886 87.1795C55.3513 87.3206 62.0432 103.619 64.1745 108.807C65.8671 108.822 66.9955 108.744 66.9955 108.744C66.9955 108.744 67.638 105.155 68.3276 100.532Z" fill="#03AA99"/>
<path d="M61.0714 68.9218C56.5579 70.5203 50.8847 77.3533 53.8153 84.1706C56.2601 89.8438 66.7603 109.042 68.5782 110.374C70.0357 111.455 84.6262 105.907 88.5129 104.967C88.5129 104.967 87.7293 100.845 86.4598 97.2252L73.891 99.8111C73.891 99.8111 71.8693 95.5013 69.7066 90.2199C66.6976 82.9325 63.0931 73.5607 61.0714 68.9218Z" fill="#3ED9C7"/>
<path d="M103.135 90.4709C103.495 90.2358 114.481 83.1051 118.603 80.4252C119.449 79.8767 119.653 78.7326 119.073 77.9177C118.525 77.1498 117.459 76.9617 116.675 77.4789L103.025 86.5529C103.025 86.5529 99.0757 90.4709 103.135 90.4709Z" fill="#001C45"/>
<path d="M86.4595 97.2252L98.182 93.9184C98.182 93.9184 98.3388 89.7967 99.906 87.1168C101.661 84.1235 102.037 81.7413 102.915 82.76C103.808 83.7944 103.714 84.6406 103.04 86.5526C102.366 88.4646 103.166 90.4706 103.166 90.4706L112.287 84.5623C112.287 84.5623 111.08 88.6056 109.372 91.3169C107.522 94.2475 106.237 96.5043 101.332 99.2312C96.4268 101.958 88.5438 104.669 88.5438 104.669L86.4595 97.2252Z" fill="#FF9A8D"/>
<path d="M69.6915 90.2202C69.7386 89.8441 69.7699 89.4836 69.8013 89.1231L65.5855 80.8327L69.6915 90.2202Z" fill="#03AA99"/>
<path d="M86.4595 96.7082C86.4595 96.7082 88.5125 99.0276 88.7319 105.343" stroke="#AAEEED" stroke-width="1.05" stroke-miterlimit="10" stroke-linecap="round"/>
<path d="M140.716 17.9095H64.2525C59.3158 17.9095 55.3038 13.8975 55.3038 8.96085C55.3038 4.02421 59.3158 0.012207 64.2525 0.012207H140.716C145.652 0.012207 149.664 4.02421 149.664 8.96085C149.664 13.9132 145.652 17.9095 140.716 17.9095Z" fill="white"/>
<path d="M72.2451 3.14658L73.969 6.64141L77.84 7.2056L75.0347 9.93251L75.693 13.7721L72.2451 11.9542L68.7973 13.7721L69.4555 9.93251L66.666 7.2056L70.5212 6.64141L72.2451 3.14658Z" fill="#FABA50"/>
<path d="M87.5407 3.14635L89.2803 6.64118L93.1356 7.20537L90.346 9.93228L91.0042 13.7719L87.5407 11.9539L84.0929 13.7719L84.7511 9.93228L81.9615 7.20537L85.8168 6.64118L87.5407 3.14635Z" fill="#FABA50"/>
<path d="M102.852 3.14635L104.576 6.64118L108.431 7.20537L105.641 9.93228L106.3 13.7719L102.852 11.9539L99.3883 13.7719L100.046 9.93228L97.2569 7.20537L101.128 6.64118L102.852 3.14635Z" fill="#FABA50"/>
<path d="M118.148 3.14635L119.872 6.64118L123.727 7.20537L120.938 9.93228L121.596 13.7719L118.148 11.9539L114.7 13.7719L115.359 9.93228L112.569 7.20537L116.424 6.64118L118.148 3.14635Z" fill="#FABA50"/>
<path d="M133.444 3.14635L135.168 6.64118L139.039 7.20537L136.233 9.93228L136.907 13.7719L133.444 11.9539L129.996 13.7719L130.654 9.93228L127.865 7.20537L131.72 6.64118L133.444 3.14635Z" fill="#FABA50"/>
<path d="M118.148 16.4363V29.0208L126.03 16.4363H118.148Z" fill="white"/>
</svg>
