<svg width="239" height="336" viewBox="0 0 239 336" fill="none" xmlns="http://www.w3.org/2000/svg">
<path d="M160.988 0H14.0488C6.66732 0 0.680664 5.98666 0.680664 13.3681V322.104C0.680664 329.486 6.66732 335.472 14.0488 335.472H160.988C168.37 335.472 174.357 329.486 174.357 322.104V13.3681C174.357 5.98666 168.37 0 160.988 0ZM164.75 304.191C164.75 308.015 161.647 311.118 157.823 311.118H17.2145C13.3906 311.118 10.2875 308.015 10.2875 304.191V31.2811C10.2875 27.4571 13.3906 24.3541 17.2145 24.3541H157.823C161.647 24.3541 164.75 27.4571 164.75 31.2811V304.191Z" fill="#416F75"/>
<path opacity="0.3" d="M157.838 24.3542H17.2143C13.3904 24.3542 10.2874 27.4572 10.2874 31.2811V304.191C10.2874 308.015 13.3904 311.118 17.2143 311.118H157.823C161.646 311.118 164.749 308.015 164.749 304.191V31.2811C164.749 27.4572 161.662 24.3542 157.838 24.3542Z" fill="#BCD3F9"/>
<path d="M79.7444 16.6434C82.2111 16.6434 84.2109 14.6437 84.2109 12.1769C84.2109 9.71016 82.2111 7.71045 79.7444 7.71045C77.2776 7.71045 75.2779 9.71016 75.2779 12.1769C75.2779 14.6437 77.2776 16.6434 79.7444 16.6434Z" fill="#000E5B"/>
<path d="M114.725 12.1771C114.725 10.6883 113.518 9.46588 112.013 9.46588H94.2258C92.7369 9.46588 91.5145 10.6726 91.5145 12.1771C91.5145 13.6659 92.7213 14.8884 94.2258 14.8884H112.013C113.518 14.8884 114.725 13.6659 114.725 12.1771Z" fill="#000E5B"/>
<path d="M233.078 205.066H62.8812C60.1543 205.066 57.9446 202.857 57.9446 200.13V143.633C57.9446 140.906 60.1543 138.696 62.8812 138.696H233.078C235.805 138.696 238.015 140.906 238.015 143.633V200.13C238.015 202.857 235.805 205.066 233.078 205.066Z" fill="#85B8ED"/>
<path d="M233.078 120.799H62.8812C60.1543 120.799 57.9446 118.589 57.9446 115.862V59.3649C57.9446 56.638 60.1543 54.4282 62.8812 54.4282H233.078C235.805 54.4282 238.015 56.638 238.015 59.3649V115.862C238.015 118.589 235.805 120.799 233.078 120.799Z" fill="#85B8ED"/>
<path d="M233.078 289.35H62.8812C60.1543 289.35 57.9446 287.14 57.9446 284.413V227.916C57.9446 225.189 60.1543 222.979 62.8812 222.979H233.078C235.805 222.979 238.015 225.189 238.015 227.916V284.413C238.015 287.14 235.805 289.35 233.078 289.35Z" fill="#85B8ED"/>
<path d="M230.257 116.646H60.0602C57.3333 116.646 55.1235 114.436 55.1235 111.709V55.2117C55.1235 52.4848 57.3333 50.2751 60.0602 50.2751H230.257C232.984 50.2751 235.194 52.4848 235.194 55.2117V111.709C235.194 114.436 232.984 116.646 230.257 116.646Z" fill="#FFFFF8"/>
<path d="M107.749 100.987C117.425 91.3109 117.425 75.6229 107.749 65.9469C98.0733 56.2709 82.3854 56.2709 72.7093 65.9469C63.0333 75.6229 63.0333 91.3109 72.7093 100.987C82.3854 110.663 98.0733 110.663 107.749 100.987Z" fill="#FFFFF8"/>
<path d="M176.455 76.5254H126.054C124.691 76.5254 123.578 75.4127 123.578 74.0493V68.329C123.578 66.9656 124.691 65.8529 126.054 65.8529H176.455C177.818 65.8529 178.931 66.9656 178.931 68.329V74.0493C178.915 75.4284 177.818 76.5254 176.455 76.5254Z" fill="#3ED9C7"/>
<path d="M219.239 85.458H124.393C123.939 85.458 123.563 85.8342 123.563 86.273V86.7745C123.563 87.229 123.939 87.6051 124.393 87.6051H219.239C219.694 87.6051 220.054 87.229 220.054 86.7745V86.273C220.054 85.8342 219.694 85.458 219.239 85.458Z" fill="#638BE2"/>
<path d="M219.239 94.3599H124.393C123.939 94.3599 123.563 94.7361 123.563 95.1905V95.692C123.563 96.1465 123.939 96.5227 124.393 96.5227H219.239C219.694 96.5227 220.054 96.1465 220.054 95.692V95.1905C220.054 94.7204 219.694 94.3599 219.239 94.3599Z" fill="#638BE2"/>
<path d="M219.239 103.246H124.393C123.939 103.246 123.563 103.622 123.563 104.061V104.562C123.563 105.017 123.939 105.377 124.393 105.377H219.239C219.694 105.377 220.054 105.001 220.054 104.562V104.061C220.054 103.622 219.694 103.246 219.239 103.246Z" fill="#638BE2"/>
<path d="M230.257 200.913H60.0602C57.3333 200.913 55.1235 198.703 55.1235 195.977V139.495C55.1235 136.768 57.3333 134.558 60.0602 134.558H230.257C232.984 134.558 235.194 136.768 235.194 139.495V195.992C235.194 198.703 232.984 200.913 230.257 200.913Z" fill="#FFFFF8"/>
<path d="M90.2283 192.513C103.912 192.513 115.006 181.42 115.006 167.736C115.006 154.051 103.912 142.958 90.2283 142.958C76.5442 142.958 65.451 154.051 65.451 167.736C65.451 181.42 76.5442 192.513 90.2283 192.513Z" fill="#FFFFF8"/>
<path d="M176.455 160.793H126.054C124.691 160.793 123.578 159.681 123.578 158.333V152.613C123.578 151.249 124.691 150.152 126.054 150.152H176.455C177.818 150.152 178.931 151.265 178.931 152.613V158.333C178.915 159.696 177.818 160.793 176.455 160.793Z" fill="#3ED9C7"/>
<path d="M219.239 169.742H124.393C123.939 169.742 123.563 170.118 123.563 170.573V171.074C123.563 171.529 123.939 171.905 124.393 171.905H219.239C219.694 171.905 220.054 171.529 220.054 171.074V170.573C220.054 170.103 219.694 169.742 219.239 169.742Z" fill="#638BE2"/>
<path d="M219.239 178.628H124.393C123.939 178.628 123.563 179.004 123.563 179.459V179.96C123.563 180.415 123.939 180.791 124.393 180.791H219.239C219.694 180.791 220.054 180.415 220.054 179.96V179.459C220.054 179.004 219.694 178.628 219.239 178.628Z" fill="#638BE2"/>
<path d="M219.239 187.529H124.393C123.939 187.529 123.563 187.905 123.563 188.36V188.861C123.563 189.316 123.939 189.676 124.393 189.676H219.239C219.694 189.676 220.054 189.3 220.054 188.861V188.36C220.054 187.89 219.694 187.529 219.239 187.529Z" fill="#638BE2"/>
<path d="M230.257 285.197H60.0602C57.3333 285.197 55.1235 282.987 55.1235 280.26V223.763C55.1235 221.036 57.3333 218.826 60.0602 218.826H230.257C232.984 218.826 235.194 221.036 235.194 223.763V280.26C235.194 282.987 232.984 285.197 230.257 285.197Z" fill="#FFFFF8"/>
<path d="M114.328 257.725C117.493 244.412 109.266 231.054 95.953 227.889C82.6397 224.723 69.2814 232.95 66.1162 246.263C62.9511 259.577 71.1778 272.935 84.491 276.1C97.8043 279.265 111.163 271.039 114.328 257.725Z" fill="#FFFFF8"/>
<path d="M176.455 245.077H126.054C124.691 245.077 123.578 243.964 123.578 242.617V236.896C123.578 235.533 124.691 234.42 126.054 234.42H176.455C177.818 234.42 178.931 235.533 178.931 236.896V242.617C178.915 243.964 177.818 245.077 176.455 245.077Z" fill="#3ED9C7"/>
<path d="M219.239 254.01H124.393C123.939 254.01 123.563 254.386 123.563 254.841V255.342C123.563 255.797 123.939 256.157 124.393 256.157H219.239C219.694 256.157 220.054 255.781 220.054 255.342V254.841C220.054 254.371 219.694 254.01 219.239 254.01Z" fill="#638BE2"/>
<path d="M219.239 262.896H124.393C123.939 262.896 123.563 263.272 123.563 263.727V264.228C123.563 264.683 123.939 265.043 124.393 265.043H219.239C219.694 265.043 220.054 264.667 220.054 264.228V263.727C220.054 263.272 219.694 262.896 219.239 262.896Z" fill="#638BE2"/>
<path d="M219.239 271.797H124.393C123.939 271.797 123.563 272.173 123.563 272.628V273.129C123.563 273.584 123.939 273.96 124.393 273.96H219.239C219.694 273.96 220.054 273.584 220.054 273.129V272.628C220.054 272.158 219.694 271.797 219.239 271.797Z" fill="#638BE2"/>
<path d="M114.327 257.726C117.492 244.412 109.266 231.054 95.9528 227.889C82.6398 224.724 69.2816 232.951 66.1166 246.264C62.9515 259.577 71.178 272.935 84.4911 276.1C97.8041 279.265 111.162 271.039 114.327 257.726Z" fill="#E5F7FF"/>
<path d="M91.6553 235.548C97.0151 235.548 101.356 239.889 101.356 245.249V270.355H81.9701V245.249C81.9544 239.889 86.2955 235.548 91.6553 235.548Z" fill="#001C45"/>
<path d="M87.5024 271.217H79.0239V247.552C79.0239 243.368 82.4247 239.967 86.6091 239.967H87.4867V271.217H87.5024Z" fill="#001C45"/>
<path d="M81.5631 250.875C81.5631 250.875 79.8705 250.075 78.8675 251.188C77.8645 252.316 78.3503 254.871 80.0742 255.608C81.7198 256.313 82.472 255.467 82.472 255.467L81.5631 250.875Z" fill="#FF9A8D"/>
<path d="M79.7917 251.642C80.2306 251.517 80.8731 251.564 81.2022 251.877C81.3276 251.987 81.0925 252.206 80.9671 252.144C80.2619 251.83 79.3686 251.752 78.9611 252.567C78.9455 252.614 78.9141 252.567 78.9141 252.536C79.0552 252.081 79.3373 251.783 79.7917 251.642Z" fill="#BA5964"/>
<path d="M80.1364 251.736C80.2148 251.705 80.3872 251.909 80.3715 251.972C80.2461 252.019 80.058 252.144 79.964 252.301C79.7916 252.567 79.7446 252.802 79.7446 253.116C79.7603 253.836 80.1364 254.385 80.8416 254.589C80.8573 254.589 80.873 254.636 80.8573 254.636C80.2304 254.761 79.5722 254.087 79.4625 253.523C79.3215 252.896 79.4155 252.034 80.1364 251.736Z" fill="#BA5964"/>
<path d="M98.8648 250.796C98.8648 250.796 100.557 250.06 101.56 251.188C102.563 252.316 102.078 254.871 100.354 255.608C98.7081 256.313 97.9559 255.467 97.9559 255.467L98.8648 250.796Z" fill="#FF9A8D"/>
<path d="M100.636 251.642C100.197 251.517 99.5542 251.564 99.2251 251.877C99.0997 251.987 99.3348 252.206 99.4601 252.144C100.165 251.83 101.059 251.752 101.466 252.567C101.482 252.614 101.513 252.567 101.513 252.535C101.372 252.081 101.106 251.783 100.636 251.642Z" fill="#BA5964"/>
<path d="M100.307 251.736C100.229 251.705 100.056 251.909 100.072 251.971C100.197 252.018 100.385 252.144 100.479 252.301C100.652 252.567 100.699 252.802 100.699 253.115C100.683 253.836 100.307 254.385 99.6018 254.589C99.5861 254.589 99.5704 254.636 99.5861 254.636C100.213 254.761 100.871 254.087 100.981 253.523C101.106 252.896 101.028 252.034 100.307 251.736Z" fill="#BA5964"/>
<path d="M73.0219 276.781C73.0219 272.973 73.6331 270.7 75.6235 270.058C76.5324 269.76 81.9862 268.067 83.6945 267.55C85.4184 267.033 85.8729 266.014 85.8729 265.137C85.8729 264.259 85.8729 261.235 85.8729 261.235H94.5864C94.5864 261.235 94.5864 264.243 94.5864 265.137C94.5864 266.014 95.0566 267.033 96.7648 267.55C98.473 268.067 103.927 269.76 104.836 270.058C106.826 270.7 107.437 272.988 107.437 276.781H73.0219Z" fill="#FF9A8D"/>
<path d="M85.8732 262.363C85.8732 262.379 86.7351 264.87 90.23 264.87C93.7248 264.87 94.5867 262.379 94.5867 262.363C94.5867 261.72 94.5867 261.235 94.5867 261.235H85.8732C85.8732 261.235 85.8732 261.72 85.8732 262.363Z" fill="#BA5964"/>
<path d="M94.3036 241.111C93.0499 240.39 91.6551 239.967 90.2289 239.967C88.8028 239.967 87.3923 240.39 86.1542 241.111C83.2236 242.788 81.531 245.954 81.531 249.276C81.531 249.292 81.531 249.292 81.531 249.307C81.531 250.248 81.5937 251.188 81.6877 252.113L81.8445 253.429C81.9698 254.464 82.1579 255.482 82.487 256.47C83.7407 260.372 87.2199 262.989 90.2289 262.989C93.2379 262.989 96.7171 260.372 97.9865 256.47C98.2999 255.482 98.5037 254.464 98.629 253.429L98.7858 252.113C98.8955 251.172 98.9582 250.216 98.9582 249.276V249.26C98.9111 245.938 97.2186 242.788 94.3036 241.111Z" fill="#FF9A8D"/>
<path d="M93.2217 251.266C93.2217 250.765 93.6292 250.357 94.1307 250.357C94.6322 250.357 95.0397 250.765 95.0397 251.266C95.0397 251.768 94.6322 252.175 94.1307 252.175C93.6292 252.175 93.2217 251.784 93.2217 251.266Z" fill="#001C45"/>
<path d="M92.3448 248.931L96.5762 250.013C96.5762 250.013 96.4038 248.602 94.9463 248.242C93.1754 247.803 92.3448 248.931 92.3448 248.931Z" fill="#001C45"/>
<path d="M86.3105 252.175C86.8125 252.175 87.2195 251.768 87.2195 251.266C87.2195 250.764 86.8125 250.357 86.3105 250.357C85.8085 250.357 85.4016 250.764 85.4016 251.266C85.4016 251.768 85.8085 252.175 86.3105 252.175Z" fill="#001C45"/>
<path d="M88.1132 248.931L83.8818 250.013C83.8818 250.013 84.0542 248.602 85.5117 248.242C87.2826 247.803 88.1132 248.931 88.1132 248.931Z" fill="#001C45"/>
<path d="M90.215 240.767C90.215 240.767 92.0173 246.879 98.9286 248.289C98.9286 248.289 99.5398 244.324 96.5778 241.911C93.6158 239.497 90.215 239.654 90.215 239.654V240.767Z" fill="#001C45"/>
<path d="M90.2143 240.813C90.2143 240.813 88.412 246.926 81.5007 248.336C81.5007 248.336 80.8895 244.371 83.8515 241.958C86.8135 239.544 90.2143 239.701 90.2143 239.701V240.813Z" fill="#001C45"/>
<path d="M104.836 270.057C103.927 269.759 98.4727 268.066 96.7645 267.549C96.31 267.408 95.9495 267.251 95.6674 267.048C95.7145 267.236 95.7458 267.439 95.7458 267.643C95.7458 269.179 93.2696 270.417 90.2293 270.417C87.1733 270.417 84.7128 269.179 84.7128 267.643C84.7128 267.439 84.7285 267.251 84.7755 267.063C84.4934 267.251 84.1329 267.408 83.7098 267.534C81.9859 268.051 76.5477 269.743 75.6388 270.041C73.6484 270.684 73.0372 272.972 73.0372 276.764H107.468C107.437 272.972 106.842 270.699 104.836 270.057Z" fill="#FABA50"/>
<path d="M77.4414 269.477C76.5794 269.744 75.8899 269.963 75.6235 270.057C73.6331 270.7 73.0219 272.988 73.0219 276.78H77.4884V269.477H77.4414Z" fill="#3ED9C7"/>
<path d="M103.018 269.477C103.88 269.744 104.57 269.963 104.836 270.057C106.827 270.7 107.438 272.988 107.438 276.78H102.971V269.477H103.018Z" fill="#3ED9C7"/>
<path d="M90.2133 271.044C93.6454 271.044 96.341 269.555 96.341 267.659C96.341 267.659 96.341 267.549 96.341 267.393C95.7768 267.173 95.3693 266.876 95.1029 266.546C95.1186 266.891 95.1343 267.44 95.1343 267.643C95.1343 268.678 93.1126 269.822 90.2133 269.822C87.314 269.822 85.2923 268.678 85.2923 267.643C85.2923 267.44 85.308 266.923 85.3237 266.578C85.0416 266.891 84.6498 267.173 84.0856 267.393C84.0856 267.534 84.0856 267.643 84.0856 267.643C84.0856 269.555 86.7811 271.044 90.2133 271.044Z" fill="#228C7E"/>
<path d="M90.2285 250.671C89.8681 250.703 88.9591 254.809 89.3353 255.498C89.492 255.78 89.9464 256.078 90.2285 256.047C90.5106 256.078 90.9651 255.796 91.1218 255.498C91.498 254.793 90.589 250.687 90.2285 250.671Z" fill="#BA5964"/>
<path d="M79.1337 239.435C79.1337 239.435 82.4561 239.419 83.3494 241.3" stroke="#001C45" stroke-width="0.5788" stroke-miterlimit="10" stroke-linecap="round"/>
<path d="M79.6509 236.269C79.6509 236.269 83.4906 237.695 83.3652 241.613" stroke="#001C45" stroke-width="0.5788" stroke-miterlimit="10" stroke-linecap="round"/>
<path d="M90.2292 192.514C103.913 192.514 115.006 181.421 115.006 167.737C115.006 154.052 103.913 142.959 90.2292 142.959C76.5451 142.959 65.452 154.052 65.452 167.737C65.452 181.421 76.5451 192.514 90.2292 192.514Z" fill="#E5F7FF"/>
<path d="M81.5789 166.404C81.5789 166.404 79.902 165.809 78.899 166.921C77.896 168.05 78.3818 170.604 80.1057 171.341C81.7513 172.046 82.5035 171.2 82.5035 171.2L81.5789 166.404Z" fill="#FF9A8D"/>
<path d="M79.8243 167.376C80.2631 167.251 80.9057 167.298 81.2504 167.611C81.3758 167.721 81.1408 167.94 81.0154 167.878C80.3101 167.564 79.4168 167.486 79.0094 168.301C78.9937 168.348 78.9623 168.301 78.9623 168.269C79.072 167.815 79.3541 167.517 79.8243 167.376Z" fill="#BA5964"/>
<path d="M80.1525 167.47C80.2309 167.438 80.4033 167.642 80.3876 167.705C80.2622 167.752 80.0742 167.877 79.9801 168.034C79.8077 168.3 79.7607 168.535 79.7607 168.849C79.7764 169.57 80.1525 170.118 80.8578 170.322C80.8734 170.322 80.8891 170.369 80.8734 170.369C80.2465 170.494 79.5883 169.82 79.4786 169.256C79.3376 168.614 79.4316 167.752 80.1525 167.47Z" fill="#BA5964"/>
<path d="M98.9121 166.404C98.9121 166.404 100.589 165.809 101.592 166.921C102.595 168.05 102.109 170.604 100.385 171.341C98.7397 172.046 97.9874 171.2 97.9874 171.2L98.9121 166.404Z" fill="#FF9A8D"/>
<path d="M100.667 167.376C100.228 167.251 99.5857 167.298 99.2566 167.611C99.1312 167.721 99.3663 167.94 99.4916 167.878C100.197 167.564 101.09 167.486 101.498 168.301C101.513 168.348 101.545 168.301 101.545 168.269C101.404 167.815 101.122 167.517 100.667 167.376Z" fill="#BA5964"/>
<path d="M100.322 167.47C100.243 167.438 100.071 167.642 100.087 167.705C100.212 167.752 100.4 167.877 100.494 168.034C100.666 168.3 100.713 168.535 100.713 168.849C100.698 169.57 100.322 170.118 99.6164 170.322C99.6007 170.322 99.5851 170.369 99.6007 170.369C100.228 170.494 100.886 169.82 100.996 169.256C101.137 168.614 101.043 167.752 100.322 167.47Z" fill="#BA5964"/>
<path d="M69.8083 192.513C69.8083 188.705 71.6106 186.433 73.6009 185.79C74.5099 185.492 81.1548 183.8 82.8787 183.283C84.6026 182.765 85.0571 181.747 85.0571 180.869C85.0571 179.992 85.0571 176.168 85.0571 176.168H95.3692C95.3692 176.168 95.3692 179.976 95.3692 180.869C95.3692 181.747 95.8393 182.765 97.5476 183.283C99.2715 183.8 105.916 185.492 106.825 185.79C108.816 186.433 110.618 188.721 110.618 192.513H69.8083Z" fill="#FF9A8D"/>
<path d="M85.0731 176.168C85.0731 176.168 85.0731 176.591 85.0731 177.813C85.0731 177.813 86.9381 180.744 90.2448 180.744C93.5516 180.744 95.3852 177.845 95.3852 177.845C95.3852 176.622 95.3852 176.183 95.3852 176.183H85.0731V176.168Z" fill="#BA5964"/>
<path d="M106.842 185.774C105.933 185.476 99.2879 183.784 97.5639 183.267C97.3602 183.204 97.1721 183.141 96.9998 183.063C97.1721 183.47 97.2505 183.894 97.2505 184.332C97.2505 186.809 94.1004 188.815 90.2295 188.815C86.3429 188.815 83.2085 186.809 83.2085 184.332C83.2085 183.894 83.3025 183.47 83.4592 183.063C83.2869 183.141 83.0988 183.204 82.8951 183.267C81.1711 183.784 74.5263 185.476 73.6173 185.774C71.627 186.417 69.8247 188.705 69.8247 192.497H110.65C110.634 188.705 108.832 186.432 106.842 185.774Z" fill="#3ED9C7"/>
<path d="M94.3198 156.828C93.0661 156.107 91.6713 155.684 90.2451 155.684C88.819 155.684 87.3458 156.029 86.0921 156.75C83.1614 158.427 81.5472 161.655 81.5472 164.962V164.977C81.5472 165.918 81.5942 166.874 81.7039 167.814L81.8607 169.13C81.986 170.165 82.3151 172.155 83.0987 174.067C84.6503 177.86 88.1138 179.098 90.2451 179.098C92.3765 179.098 95.84 177.86 97.3915 174.067C98.1751 172.155 98.5042 170.165 98.6296 169.13L98.7863 167.814C98.896 166.874 98.9587 165.918 98.9587 164.977V164.962C98.943 161.671 97.2505 158.505 94.3198 156.828Z" fill="#FF9A8D"/>
<path d="M93.2538 167.015C93.2538 166.514 93.6613 166.106 94.1628 166.106C94.6643 166.106 95.0718 166.514 95.0718 167.015C95.0718 167.517 94.6643 167.924 94.1628 167.924C93.6613 167.924 93.2538 167.517 93.2538 167.015Z" fill="#001C45"/>
<path d="M92.7674 164.273L96.9988 165.354C96.9988 165.354 96.7637 164.163 95.2905 163.442C94.648 163.129 93.8957 163.113 93.4256 163.333C92.736 163.662 92.7674 164.273 92.7674 164.273Z" fill="#001C45"/>
<path d="M87.7055 164.273L83.4741 165.354C83.4741 165.354 83.7091 164.163 85.1823 163.442C85.8248 163.129 86.5771 163.113 87.0472 163.333C87.7368 163.662 87.7055 164.273 87.7055 164.273Z" fill="#001C45"/>
<path d="M87.2512 167.015C87.2512 166.514 86.8437 166.106 86.3422 166.106C85.8407 166.106 85.4332 166.514 85.4332 167.015C85.4332 167.517 85.8407 167.924 86.3422 167.924C86.8437 167.924 87.2512 167.517 87.2512 167.015Z" fill="#001C45"/>
<path d="M81.5316 166.592C81.5316 166.592 81.7824 166.514 82.0331 166.294C82.2368 166.106 82.707 165.621 82.707 163.85C82.707 162.079 83.1772 158.866 84.854 157.753C84.854 157.753 84.9324 156.907 84.5093 156.719C83.9294 156.484 82.4562 156.797 81.4376 157.769C79.2435 159.853 80.1368 166.263 80.1368 166.263C80.4816 166.232 81.1555 166.326 81.5316 166.592Z" fill="#001C45"/>
<path d="M99.2249 166.513C99.2249 166.513 98.8018 166.466 98.5667 166.294C98.3316 166.106 97.7831 165.636 97.7831 163.865C97.7831 162.094 97.3129 158.881 95.636 157.769C95.636 157.769 96.9995 156.405 98.9428 157.769C100.902 159.148 100.369 166.278 100.369 166.278C99.9615 166.247 99.5697 166.341 99.2249 166.513Z" fill="#001C45"/>
<path d="M99.2254 161.436V166.514C99.5702 166.341 99.9463 166.263 100.354 166.279C101.513 153.772 95.6209 151.108 89.3521 152.237C84.7289 153.067 84.149 157.346 84.149 157.346L84.8386 157.769C85.6535 157.769 86.061 158.302 86.6879 158.787C87.3304 159.289 87.9886 159.759 88.7095 160.151C89.9006 160.809 91.2327 161.279 92.5805 161.264C92.9253 161.264 93.3014 161.201 93.5208 160.95C93.8029 160.621 93.7246 160.135 93.5835 159.728C93.3954 159.211 93.1447 158.725 92.8156 158.302C93.6776 159.007 94.5238 159.712 96.185 159.884C97 159.963 97.5172 159.477 97.2194 158.615C97.2037 158.552 99.2254 160.386 99.2254 161.436Z" fill="#001C45"/>
<path d="M90.2298 166.451C89.8067 166.482 88.7097 170.588 89.1642 171.278C89.3522 171.56 89.9007 171.858 90.2298 171.826C90.5589 171.858 91.1231 171.575 91.2955 171.278C91.75 170.588 90.653 166.482 90.2298 166.451Z" fill="#BA5964"/>
<path d="M83.71 157.283C83.71 157.283 83.9138 153.177 89.3049 151.547C93.9124 150.152 98.7707 152.033 100.181 153.443C102.109 155.34 100.542 157.158 98.5356 156.782C97.564 156.593 83.71 157.283 83.71 157.283Z" fill="#001C45"/>
<path d="M79.9326 155.151C79.9326 155.151 83.255 155.136 84.1483 157.016" stroke="#001C45" stroke-width="0.5788" stroke-miterlimit="10" stroke-linecap="round"/>
<path d="M80.4498 151.986C80.4498 151.986 84.2894 153.412 84.1641 157.33" stroke="#001C45" stroke-width="0.5788" stroke-miterlimit="10" stroke-linecap="round"/>
<path d="M107.751 100.988C117.427 91.3119 117.427 75.6238 107.751 65.9477C98.0746 56.2716 82.3865 56.2716 72.7103 65.9477C63.0342 75.6238 63.0342 91.3119 72.7103 100.988C82.3865 110.664 98.0746 110.664 107.751 100.988Z" fill="#E5F7FF"/>
<path d="M100.008 82.0106C100.008 82.0106 102.861 68.4858 90.2291 68.4858C77.5976 68.4858 80.1208 82.0106 80.1208 82.0106H100.008Z" fill="#001C45"/>
<path d="M83.6153 68.8462C83.3489 66.4328 85.4803 64.223 88.3953 63.9096C91.2946 63.5961 93.8647 65.2887 94.1312 67.6865C94.3976 70.1 92.2662 72.3097 89.3512 72.6232C86.4363 72.9523 83.8661 71.2597 83.6153 68.8462Z" fill="#001C45"/>
<path d="M81.5321 81.8387C81.5321 81.8387 79.8709 81.1335 78.8679 82.2619C77.8649 83.3903 78.3508 85.9448 80.0747 86.6814C81.7202 87.3866 82.4725 86.5403 82.4725 86.5403L81.5321 81.8387Z" fill="#BA5964"/>
<path d="M79.7922 82.701C80.231 82.5756 80.8735 82.6226 81.2027 82.9361C81.328 83.0458 81.0929 83.2652 80.9676 83.2025C80.2623 82.8891 79.369 82.8107 78.9616 83.6256C78.9459 83.6727 78.9146 83.6256 78.9146 83.5943C79.0556 83.1398 79.3377 82.842 79.7922 82.701Z" fill="#893A47"/>
<path d="M80.1368 82.7944C80.2152 82.7631 80.3876 82.9668 80.3719 83.0295C80.2465 83.0765 80.0585 83.2019 79.9644 83.3586C79.792 83.625 79.745 83.8601 79.745 84.1735C79.7607 84.8944 80.1368 85.4429 80.8421 85.6467C80.8577 85.6467 80.8734 85.6937 80.8577 85.6937C80.2309 85.8191 79.5726 85.1452 79.4629 84.581C79.3219 83.9384 79.4159 83.0765 80.1368 82.7944Z" fill="#893A47"/>
<path d="M98.8966 81.8384C98.8966 81.8384 100.558 81.1332 101.561 82.2459C102.564 83.3742 102.078 85.9288 100.354 86.6653C98.7085 87.3706 97.9563 86.5243 97.9563 86.5243L98.8966 81.8384Z" fill="#BA5964"/>
<path d="M100.636 82.7001C100.197 82.5747 99.555 82.6217 99.2102 82.9352C99.0848 83.0449 99.3199 83.2643 99.4452 83.2016C100.15 82.8882 101.044 82.8098 101.451 83.6247C101.467 83.6718 101.498 83.6247 101.498 83.5934C101.373 83.1389 101.106 82.8411 100.636 82.7001Z" fill="#893A47"/>
<path d="M100.307 82.7943C100.229 82.7629 100.057 82.9667 100.072 83.0293C100.198 83.0764 100.386 83.2017 100.48 83.3585C100.652 83.6249 100.699 83.86 100.699 84.1734C100.684 84.8943 100.307 85.4428 99.6022 85.6466C99.5865 85.6466 99.5708 85.6936 99.5865 85.6936C100.213 85.8189 100.872 85.1451 100.981 84.5809C101.107 83.9383 101.028 83.0764 100.307 82.7943Z" fill="#893A47"/>
<path d="M99.6166 99.8767L95.2754 96.3349H85.0574L80.8103 99.8767H99.6166Z" fill="#3ED9C7"/>
<path d="M85.0567 96.3349L84.7589 98.5133H95.6665L95.2747 96.3349H85.0567Z" fill="#228C7E"/>
<path d="M73.0223 108.246C73.0223 104.438 73.6335 102.165 75.6239 101.523C76.5328 101.225 81.9867 99.5324 83.6949 99.0152C85.4188 98.498 85.8733 97.4793 85.8733 96.6017C85.8733 95.7241 85.8733 92.6994 85.8733 92.6994H94.5868C94.5868 92.6994 94.5868 95.7084 94.5868 96.6017C94.5868 97.4793 95.057 98.498 96.7652 99.0152C98.4891 99.5324 103.927 101.225 104.836 101.523C106.827 102.165 107.438 104.453 107.438 108.246H73.0223Z" fill="#BA5964"/>
<path d="M85.8736 93.8278C85.8736 93.8435 86.7355 96.3353 90.2304 96.3353C93.7252 96.3353 94.5872 93.8435 94.5872 93.8278C94.5872 93.1852 94.5872 92.6994 94.5872 92.6994H85.8736C85.8736 92.6994 85.8736 93.1852 85.8736 93.8278Z" fill="#893A47"/>
<path d="M86.0618 103.794C86.0618 103.794 87.6604 104.782 90.2306 104.782C92.8007 104.782 94.3836 103.794 94.3836 103.794L93.2082 108.245H87.2372L86.0618 103.794Z" fill="#FABA50"/>
<path d="M84.6981 99.1085C84.6981 98.9048 84.7138 98.7167 84.7608 98.5287C84.4787 98.7167 84.1183 98.8734 83.6951 98.9988C81.9712 99.516 76.5331 101.209 75.6241 101.506C73.6338 102.149 73.0226 104.437 73.0226 108.23H87.237L85.4191 101.177C84.275 100.676 84.6981 99.9391 84.6981 99.1085Z" fill="#228C7E"/>
<path d="M104.836 101.506C103.927 101.209 98.4732 99.516 96.7649 98.9988C96.3104 98.8577 95.95 98.701 95.6679 98.4973C95.7149 98.6854 95.7463 98.8891 95.7463 99.0928C95.7463 99.9234 96.1537 100.66 95.0253 101.162L93.2231 108.214H107.469C107.437 104.437 106.842 102.165 104.836 101.506Z" fill="#228C7E"/>
<path d="M95.6682 98.5126L99.6176 99.876L98.1601 101.772L95.5899 102.478L97.6116 104.029L93.2078 108.245L95.6682 98.5126Z" fill="#3ED9C7"/>
<path d="M84.7604 98.5126L80.8111 99.876L82.2843 101.772L84.8388 102.478L82.8171 103.7L87.2209 108.245L84.7604 98.5126Z" fill="#3ED9C7"/>
<path d="M94.304 72.5608C93.0503 71.8399 91.6555 71.4168 90.2293 71.4168C88.8032 71.4168 87.3927 71.8399 86.1547 72.5608C83.224 74.2377 81.5314 77.4034 81.5314 80.7259C81.5314 80.7415 81.5314 80.7415 81.5314 80.7572C81.5314 81.6975 81.5941 82.6378 81.6882 83.5625L81.8449 84.8789C81.9703 85.9132 82.1583 86.9319 82.4874 87.9192C83.7412 91.8215 87.2203 94.7522 90.2293 94.7522C93.2383 94.7522 96.7175 91.8215 97.9869 87.9192C98.3004 86.9319 98.5041 85.9132 98.6295 84.8789L98.7862 83.5625C98.8959 82.6222 98.9586 81.6662 98.9586 80.7259V80.7102C98.9116 77.3877 97.219 74.2377 94.304 72.5608Z" fill="#BA5964"/>
<path d="M93.2226 82.9509C93.2226 82.4494 93.6301 82.0419 94.1316 82.0419C94.6331 82.0419 95.0405 82.4494 95.0405 82.9509C95.0405 83.4524 94.6331 83.8598 94.1316 83.8598C93.6301 83.8598 93.2226 83.4524 93.2226 82.9509Z" fill="#001C45"/>
<path d="M92.3456 80.6159L96.577 81.6973C96.577 81.6973 96.4047 80.2868 94.9472 79.9264C93.1763 79.4875 92.3456 80.6159 92.3456 80.6159Z" fill="#001C45"/>
<path d="M87.2199 82.9509C87.2199 82.4494 86.8125 82.0419 86.3109 82.0419C85.8094 82.0419 85.402 82.4494 85.402 82.9509C85.402 83.4524 85.8094 83.8598 86.3109 83.8598C86.8125 83.8598 87.2199 83.4524 87.2199 82.9509Z" fill="#001C45"/>
<path d="M88.1136 80.616L83.8822 81.6973C83.8822 81.6973 84.0546 80.2869 85.5121 79.9264C87.283 79.4876 88.1136 80.616 88.1136 80.616Z" fill="#001C45"/>
<path d="M81.4224 78.5002H87.2366C87.2366 78.5002 87.4247 75.8987 88.6471 73.6732V78.5002H92.9725V73.6732C92.9725 73.6732 94.1636 76.5099 94.1636 78.5002H99.0376C99.0376 78.5002 98.5674 70.5545 90.2456 70.5545C81.8769 70.5389 81.4224 78.5002 81.4224 78.5002Z" fill="#001C45"/>
<path d="M90.229 82.0421C89.8685 82.0735 88.9596 86.1795 89.3357 86.8691C89.4924 87.1511 89.9469 87.4489 90.229 87.4176C90.5111 87.4489 90.9656 87.1668 91.1223 86.8691C91.4984 86.1795 90.5894 82.0735 90.229 82.0421Z" fill="#893A47"/>
<path d="M94.3516 64.5213C94.3516 64.5213 95.5427 67.6243 94.1166 69.1288" stroke="#001C45" stroke-width="0.5788" stroke-miterlimit="10" stroke-linecap="round"/>
<path d="M97.5022 64.5213C97.5022 64.5213 97.5335 68.6116 93.835 69.8811" stroke="#001C45" stroke-width="0.5788" stroke-miterlimit="10" stroke-linecap="round"/>
</svg>
