<svg width="138" height="270" viewBox="0 0 138 270" fill="none" xmlns="http://www.w3.org/2000/svg">
<path d="M47.2061 94.7369L37.3955 90.913C37.3955 90.913 37.2388 87.5749 35.7813 85.3808C33.5245 81.98 32.741 78.3598 31.785 79.2844C30.8133 80.2404 31.0641 81.9643 31.5656 83.9233C32.0671 85.8823 31.0954 87.8099 31.0954 87.8099L22.5385 81.1024C22.5385 81.1024 22.2408 85.945 23.7139 88.7816C25.2968 91.869 27.2558 94.1571 31.8947 97.3071C36.5335 100.457 44.1031 104.689 44.1031 104.689L47.2061 94.7369Z" fill="#BA5964"/>
<path d="M47.2058 94.7371L61.6396 99.6111V110.848L44.1027 104.673L47.2058 94.7371Z" fill="#228C7E"/>
<path d="M47.3319 94.1257L44.1976 104.375" stroke="#AAEEED" stroke-width="1.05" stroke-miterlimit="10" stroke-linecap="round"/>
<path d="M49.6963 264.997C49.3045 265.749 49.6022 267.269 52.6112 268.523C55.6359 269.777 61.0897 269.244 63.2524 268.821C65.4152 268.398 66.7472 267.771 69.9443 268.429C73.1571 269.103 78.4072 268.805 80.0057 267.457C80.5542 266.815 80.1937 265.498 80.1937 265.498L49.6963 264.997Z" fill="#8FC9C6"/>
<path d="M78.486 255.609C78.9248 257.819 80.7271 262.991 80.2099 265.514C77.9532 267.426 73.1262 267.551 69.506 266.642C65.8858 265.733 63.3313 267.583 58.7864 267.849C54.3199 268.116 50.6057 266.878 49.6968 264.997C48.7094 262.96 56.4984 261.377 61.7955 259.747C67.7351 257.929 70.8068 254.998 70.8068 254.998L78.486 255.609Z" fill="#228C7E"/>
<path d="M69.0039 259.872C69.0039 259.872 67.9382 256.879 66.512 255.907" stroke="#8FC9C6" stroke-width="0.525" stroke-miterlimit="10" stroke-linecap="round"/>
<path d="M64.9772 261.471C64.9772 261.471 63.9116 258.478 62.4854 257.506" stroke="#8FC9C6" stroke-width="0.525" stroke-miterlimit="10" stroke-linecap="round"/>
<path d="M60.9338 263.069C60.9338 263.069 59.8681 260.076 58.442 259.104" stroke="#8FC9C6" stroke-width="0.525" stroke-miterlimit="10" stroke-linecap="round"/>
<path d="M78.4848 246.817V255.609C78.4848 255.609 77.4661 255.954 77.043 256.44C76.6198 256.941 76.04 258.602 75.3191 258.618C72.4825 258.728 70.8056 254.998 70.8056 254.998L69.7399 247.005L78.4848 246.817Z" fill="#FF9A8D"/>
<path d="M121.771 266.94C122.273 267.629 123.778 268.006 126.207 265.811C128.636 263.617 130.485 258.461 131.034 256.33C131.582 254.183 131.582 252.725 133.557 250.108C135.547 247.491 137.537 242.617 136.989 240.595C136.644 239.827 135.296 239.592 135.296 239.592L121.771 266.94Z" fill="#AAEEED"/>
<path d="M125.626 236.913C127.805 237.461 133.258 238.057 135.311 239.608C136.064 242.46 134.12 246.88 131.738 249.764C129.356 252.647 129.952 255.735 128.243 259.966C126.567 264.103 123.855 266.94 121.771 266.956C119.499 266.971 121.426 259.261 122.225 253.776C123.119 247.632 121.787 243.605 121.787 243.605L125.626 236.913Z" fill="#03AA99"/>
<path d="M125.408 247.287C125.408 247.287 122.242 246.974 120.753 247.836" stroke="#AAEEED" stroke-width="0.525" stroke-miterlimit="10" stroke-linecap="round"/>
<path d="M125.125 251.628C125.125 251.628 121.959 251.315 120.47 252.177" stroke="#AAEEED" stroke-width="0.525" stroke-miterlimit="10" stroke-linecap="round"/>
<path d="M124.843 255.97C124.843 255.97 121.678 255.656 120.189 256.518" stroke="#AAEEED" stroke-width="0.525" stroke-miterlimit="10" stroke-linecap="round"/>
<path d="M120.753 231.897L125.627 236.897C125.627 236.897 125.502 237.962 125.768 238.558C126.034 239.153 127.288 240.392 127.006 241.05C125.893 243.667 121.803 243.573 121.803 243.573L114.766 238.056L120.753 231.897Z" fill="#FF9A8D"/>
<path d="M61.5136 121.677C71.3556 121.677 78.6744 122.413 78.6744 122.413C81.8244 123.793 87.2156 130.939 88.8141 135.484C90.4126 140.029 89.7544 147.614 88.9238 151.516C84.3006 173.269 76.59 185.806 74.7877 194.441C73.6907 199.723 78.9094 196.886 78.9094 210.254C78.9094 222.212 78.4706 247.726 78.4706 247.726C78.4706 247.726 74.7878 249.873 69.9138 248.4C69.9138 248.4 62.5323 206.336 61.7174 201.51C60.4009 193.705 59.9465 190.429 59.8054 176.92C59.6174 157.926 61.5136 121.677 61.5136 121.677Z" fill="#1E4174"/>
<path d="M114.75 238.056C114.75 238.056 76.8243 210.254 74.5206 207.731C72.2325 205.192 71.2295 153.021 70.6183 149.275C70.6183 149.275 61.3248 139.809 61.0427 131.958L91.2111 116.85C92.4962 121.677 91.697 124.529 94.847 136.769C98.3575 150.435 91.3052 173.331 88.9857 200.945C88.9857 200.945 92.9507 200.992 97.7306 204.409C102.119 207.543 120.721 231.913 120.721 231.913C120.721 231.913 119.342 236.536 114.75 238.056Z" fill="#85B8ED"/>
<path d="M120.753 231.897C120.753 231.897 120.33 233.261 119.217 234.765C115.377 229.938 105.081 218.357 99.0786 212.088C91.1173 203.797 85.9926 203.531 85.6165 201.776C85.2403 200.021 85.6478 173.99 87.0113 157.722C88.3904 141.47 87.0113 134.888 82.2627 128.996C80.6015 126.927 79.3477 124.795 78.5328 123.213L91.2427 116.85C92.5277 121.692 91.7285 124.529 94.8785 136.784C98.4047 150.466 91.3367 173.347 89.0173 200.945C89.0173 200.945 89.5814 200.961 90.5218 201.149C91.1643 201.274 91.9636 201.494 92.9039 201.823C93.8286 202.168 94.8785 202.638 96.0069 203.28C96.5868 203.609 97.1667 203.986 97.7465 204.409C98.7182 205.098 100.348 206.791 102.323 209.032C106.006 213.201 110.833 219.219 114.625 224.046C115.205 224.782 115.754 225.487 116.286 226.161C118.919 229.531 120.753 231.897 120.753 231.897Z" fill="#4E7EAC"/>
<path d="M63.0491 138.759C63.0491 138.759 68.9574 144.087 78.5173 144.087C88.0771 144.087 94.4242 139.95 94.4242 139.95L91.7757 133.54L63.0491 138.759Z" fill="#4E7EAC"/>
<path d="M69.4587 116.458C73.8625 124.795 80.3507 130.516 82.4977 136.064C84.6291 141.611 83.8298 152.864 83.4223 173.378C83.0305 193.532 82.5447 202.732 83.4223 204.111C84.2843 205.49 90.1613 206.822 99.3607 215.677C108.56 224.531 120.001 238.056 120.001 238.056" stroke="#274D79" stroke-width="0.525" stroke-miterlimit="10"/>
<path d="M74.7252 138.602C74.7252 138.602 74.7879 149.87 83.8932 150.513" stroke="#274D79" stroke-width="0.525" stroke-miterlimit="10"/>
<path d="M119.295 227.634C118.652 230.972 115.439 235.408 110.691 237.241" stroke="#274D79" stroke-width="0.525" stroke-miterlimit="10"/>
<path d="M62.1572 70.9152C61.5147 71.6048 61.311 72.9212 62.4393 76.9332L76.497 65.1166L62.1572 70.9152Z" fill="#10A297"/>
<path d="M50.528 48.5668C50.2303 49.7109 48.4436 54.6789 47.8168 56.152C47.1899 57.6252 51.1236 56.8729 51.1236 56.8729L50.528 48.5668Z" fill="#BA5964"/>
<path d="M73.7376 65.1167L63.5038 74.3788L59.8209 64.7563L69.8196 54.1777L73.7376 65.1167Z" fill="#FF9A8D"/>
<path d="M61.4351 68.9877C61.4351 68.9877 71.3241 61.4182 69.8196 54.1777L59.8209 64.7563L61.4351 68.9877Z" fill="#BA5964"/>
<path d="M69.7883 54.1778C69.7883 54.1778 69.5689 55.7763 69.2241 57.03C68.8793 58.2838 60.9024 64.4585 58.6143 65.4145C56.3262 66.3705 53.0351 66.778 51.4365 58.6756C49.838 50.5732 49.9164 43.1447 54.2105 38.0671C58.5046 32.9894 67.0144 34.823 71.6532 39.0074C76.2921 43.1761 75.681 54.0994 69.7883 54.1778Z" fill="#FF9A8D"/>
<path d="M69.7886 54.1774L71.3087 58.3618C71.3087 58.3618 73.0169 57.6722 74.5058 54.1774C76.1356 50.3535 79.223 43.7399 77.8282 40.4802C75.9946 36.2017 70.4624 36.0293 70.4624 36.0293C70.4624 36.0293 65.5571 28.5539 54.195 27.0494C42.8329 25.5449 40.4037 34.1331 49.7285 37.3615C49.7285 37.3615 45.074 41.5929 49.0703 42.6899C53.0667 43.7869 62.7832 40.7779 62.7832 40.7779C62.7832 40.7779 58.4891 43.9593 60.307 44.9153C62.125 45.8713 68.1587 43.5675 68.1587 43.5675L68.2527 46.9056C68.2527 46.9056 70.5721 45.4168 72.3901 46.6706C74.5841 48.1907 73.5655 54.2244 69.7886 54.1774Z" fill="#001C45"/>
<path d="M68.7852 26.2191C68.7852 26.2191 73.6435 31.908 69.2083 37.9103C69.2083 37.9103 74.8189 36.1394 74.5211 30.4348" stroke="#001C45" stroke-width="0.7875" stroke-miterlimit="10" stroke-linecap="round"/>
<path d="M33.3987 90.0193C33.0539 89.7529 22.7575 81.6819 18.8865 78.6415C18.1029 78.0147 17.9932 76.8706 18.6358 76.1027C19.247 75.3818 20.3283 75.2878 21.0649 75.8833L33.8532 86.1327C33.8688 86.1484 37.4421 90.3955 33.3987 90.0193Z" fill="#001C45"/>
<path d="M63.5831 75.9616C63.5831 75.9616 62.1413 72.4825 62.7682 71.5578C64.8682 68.5018 71.7012 59.5062 72.6572 60.3681C73.6132 61.2301 76.4968 65.101 76.4968 65.101L63.5831 75.9616Z" fill="#3ED9C7"/>
<path d="M62.439 76.9332C61.5614 80.9766 61.6397 87.6371 61.0912 101.757C60.7307 110.847 59.8218 137.207 59.8218 137.207C59.8218 137.207 66.7801 141.768 78.4557 140.827C89.6141 139.934 94.441 134.449 94.441 134.449C94.441 134.449 93.2813 97.3693 89.6141 82.7788C84.1916 67.7338 76.4967 65.1166 76.4967 65.1166L62.439 76.9332Z" fill="#3ED9C7"/>
<path d="M80.3358 82.1521L69.9923 108.857L60.9183 106.412C60.7616 110.487 60.6676 114.154 60.4952 119.091C62.6422 120.015 65.2438 120.924 68.4879 121.833C71.3245 122.633 72.1081 122.1 73.2364 120.172C76.1201 115.298 85.2881 91.9157 85.2881 91.9157L80.3358 82.1521Z" fill="#03AA99"/>
<path d="M73.7544 74.3789C71.9051 75.9618 71.0431 77.4976 69.3035 82.5126C67.3602 88.1075 63.2072 102.573 63.2072 102.573L63.881 102.839L73.7544 74.3789Z" fill="#03AA99"/>
<path d="M83.3288 70.9941C78.063 68.3142 73.5182 71.8717 70.2271 82.2779C67.0927 92.1668 63.88 102.839 63.88 102.839L49.5089 97.2602L46.4058 106.914C46.4058 106.914 59.8053 115.283 65.7606 117.414C71.6219 119.499 72.7503 118.041 81.6833 99.846C88.3281 86.2742 91.9327 75.3666 83.3288 70.9941Z" fill="#3ED9C7"/>
<path d="M49.5094 97.26L39.6988 93.1383C39.6988 93.1383 39.5421 89.8002 38.0846 87.6061C35.8278 84.2053 35.0442 80.5851 34.0882 81.5097C33.1166 82.4657 33.3673 84.1896 33.8688 86.1486C34.3703 88.1076 33.3987 90.0352 33.3987 90.0352L24.8418 83.3277C24.8418 83.3277 24.544 88.1703 26.0172 91.0069C27.6001 94.0942 29.5591 96.3823 34.1979 99.5324C38.8368 102.682 46.4063 106.914 46.4063 106.914L49.5094 97.26Z" fill="#FF9A8D"/>
<path d="M76.4957 65.1166L63.5977 75.9615L62.4537 76.9332C62.0775 77.6541 61.9992 78.3123 62.1403 78.8922L76.4957 65.1166Z" fill="#03AA99"/>
<path d="M49.5558 96.6333L46.3431 107.588" stroke="#AAEEED" stroke-width="1.05" stroke-miterlimit="10" stroke-linecap="round"/>
<path d="M54.9474 49.0221C54.9788 48.4579 55.4646 48.0348 56.0131 48.0661C56.5773 48.0975 57.0004 48.5833 56.9691 49.1318C56.9377 49.696 56.4519 50.1191 55.9034 50.0878C55.3549 50.0564 54.9161 49.5863 54.9474 49.0221Z" fill="#001C45"/>
<path d="M54.1163 46.3579L58.7551 47.8311C58.7551 47.8311 58.6611 46.2482 57.0625 45.7624C55.1036 45.1668 54.1163 46.3579 54.1163 46.3579Z" fill="#001C45"/>
<path d="M71.4333 48.004C70.8064 47.7846 69.8661 47.816 69.3333 48.2391C69.1296 48.3958 69.4743 48.725 69.6624 48.6466C70.7281 48.2548 72.0445 48.1921 72.5617 49.4459C72.593 49.5086 72.6401 49.4459 72.6244 49.3988C72.499 48.725 72.1072 48.2548 71.4333 48.004Z" fill="#BA5964"/>
<path d="M70.9318 48.1136C70.8064 48.0509 70.54 48.3487 70.5714 48.4427C70.7438 48.5211 71.0259 48.7248 71.1512 48.9599C71.3706 49.3674 71.449 49.7122 71.402 50.1666C71.308 51.2323 70.7124 52.0003 69.6781 52.2353C69.6624 52.2353 69.6311 52.298 69.6624 52.298C70.5714 52.5174 71.5901 51.5928 71.7938 50.7778C72.0289 49.8689 71.9818 48.5994 70.9318 48.1136Z" fill="#BA5964"/>
<path d="M9.71914 17.929H86.1823C91.1189 17.929 95.1309 13.917 95.1309 8.98038C95.1309 4.04374 91.1189 0.0317383 86.1823 0.0317383H9.71914C4.7825 0.0317383 0.770508 4.04374 0.770508 8.98038C0.770508 13.9327 4.7825 17.929 9.71914 17.929Z" fill="white"/>
<path d="M78.1904 5.03081L79.1777 7.03682L79.3658 7.42861L79.7889 7.4913L81.9987 7.80474L80.4001 9.35626L80.0867 9.65402L80.1651 10.0772L80.5412 12.2712L78.5665 11.2369L78.1904 11.0331L77.8143 11.2369L75.8396 12.2712L76.2157 10.0772L76.2941 9.65402L75.9807 9.35626L74.3821 7.80474L76.5919 7.4913L77.015 7.42861L77.2031 7.03682L78.1904 5.03081ZM78.1904 3.16586L76.4665 6.66069L72.5955 7.22488L75.3851 9.95179L74.7269 13.7914L78.1747 11.9735L81.6225 13.7914L80.9643 9.95179L83.7539 7.22488L79.8986 6.66069L78.1904 3.16586Z" fill="#FABA50"/>
<path d="M62.879 3.16607L61.1551 6.6609L57.2998 7.22509L60.0894 9.952L59.4312 13.7916L62.879 11.9737L66.3425 13.7916L65.6842 9.952L68.4738 7.22509L64.6029 6.6609L62.879 3.16607Z" fill="#FABA50"/>
<path d="M47.5836 3.16607L45.8597 6.6609L42.0044 7.22509L44.794 9.952L44.1357 13.7916L47.5836 11.9737L51.0314 13.7916L50.3732 9.952L53.1628 7.22509L49.3075 6.6609L47.5836 3.16607Z" fill="#FABA50"/>
<path d="M32.287 3.16607L30.5631 6.6609L26.6922 7.22509L29.4974 9.952L28.8236 13.7916L32.287 11.9737L35.7349 13.7916L35.0766 9.952L37.8662 7.22509L34.0109 6.6609L32.287 3.16607Z" fill="#FABA50"/>
<path d="M16.976 3.16607L15.2521 6.6609L11.3968 7.22509L14.1864 9.952L13.5281 13.7916L16.976 11.9737L20.4395 13.7916L19.7813 9.952L22.5709 7.22509L18.7155 6.6609L16.976 3.16607Z" fill="#FABA50"/>
<path d="M32.2869 16.456V29.0405L24.404 16.456H32.2869Z" fill="white"/>
</svg>
